source-code-pro_black.sfdir

StartChar: exclam
Encoding: 33 33 486
Width: 600
Flags: MW
HStem: -12 21G<268 332> -12 220<268 332>
VStem: 190 220<67 131> 217 166
LayerCount: 2
Fore
SplineSet
244 264 m 1xa0
 220 522 l 1
 214 670 l 1
 386 670 l 1
 380 522 l 1
 356 264 l 1x90
 244 264 l 1xa0
190 99 m 0x60
 190 163 236 208 300 208 c 0
 364 208 410 163 410 99 c 0
 410 35 364 -12 300 -12 c 0
 236 -12 190 35 190 99 c 0x60
EndSplineSet
EndChar

StartChar: quotedbl
Encoding: 34 34 491
Width: 600
Flags: MW
HStem: 284 400<108 108 108 212 388 492 388 388>
VStem: 67 186 347 186
LayerCount: 2
Fore
SplineSet
108 284 m 1
 70 526 l 1
 64 684 l 1
 256 684 l 1
 250 526 l 1
 212 284 l 1
 108 284 l 1
388 284 m 1
 350 526 l 1
 344 684 l 1
 536 684 l 1
 530 526 l 1
 492 284 l 1
 388 284 l 1
EndSplineSet
EndChar

StartChar: numbersign
Encoding: 35 35 533
Width: 600
Flags: MW
HStem: 0 21G<114 114 114 212 304 304 304 402> 180 108<64 136 64 148 64 234 246 326 436 520> 384 108<84 160 84 174 84 258 272 350 462 540>
VStem: 154 98 344 98
LayerCount: 2
Fore
SplineSet
114 0 m 1
 136 180 l 1
 64 180 l 1
 64 288 l 1
 148 288 l 1
 160 384 l 1
 84 384 l 1
 84 492 l 1
 174 492 l 1
 194 650 l 1
 290 650 l 1
 272 492 l 1
 364 492 l 1
 384 650 l 1
 480 650 l 1
 462 492 l 1
 540 492 l 1
 540 384 l 1
 448 384 l 1
 436 288 l 1
 520 288 l 1
 520 180 l 1
 424 180 l 1
 402 0 l 1
 304 0 l 1
 326 180 l 1
 234 180 l 1
 212 0 l 1
 114 0 l 1
246 288 m 1
 338 288 l 1
 350 384 l 1
 258 384 l 1
 246 288 l 1
EndSplineSet
EndChar

StartChar: dollar
Encoding: 36 36 630
Width: 600
Flags: MW
HStem: -110 854<247 359 247 359> 480 264<282 325.5>
VStem: 82 164<420 458.5 420 489.5> 247 112<-110 36 36 36 615 744> 364 164<192 236>
LayerCount: 2
Fore
SplineSet
520 530 m 1x90
 436 432 l 1
 388 464 351 480 300 480 c 0
 264 480 246 469 246 448 c 0
 246 392 528 396 528 214 c 0x68
 528 131 471 62 359 41 c 1
 359 -110 l 1
 247 -110 l 1
 247 36 l 1x90
 184 44 108 71 56 116 c 1
 130 232 l 1
 198 192 250 172 308 172 c 0
 345 172 364 182 364 202 c 0
 364 270 82 258 82 446 c 0x68
 82 533 144 595 247 613 c 1
 247 744 l 1
 359 744 l 1x50
 359 615 l 1
 427 604 478 573 520 530 c 1x90
EndSplineSet
Substitution2: "'ss04' Style Set 4 in Latin lookup 20 subtable" dollar.a
Substitution2: "'aalt' Access All Alternates in Latin lookup 0 subtable" dollar.a
EndChar

StartChar: percent
Encoding: 37 37 649
Width: 600
Flags: MW
HStem: -12 90<416 434 416 468> 236 90<416 434> 308 90<166 184 166 218> 556 90<166 184>
VStem: 23 116<447 511 447 530.5> 211 116<447 511> 273 116<127 191 127 210.5> 461 116<127 191>
LayerCount: 2
Fore
SplineSet
175 308 m 0xbd
 89 308 23 376 23 479 c 0
 23 582 89 646 175 646 c 0
 261 646 327 582 327 479 c 0
 327 376 261 308 175 308 c 0xbd
175 398 m 0
 193 398 211 415 211 479 c 0
 211 543 193 556 175 556 c 0
 157 556 139 543 139 479 c 0
 139 415 157 398 175 398 c 0
99 26 m 1
 13 110 l 1
 201 278 l 1
 259 224 l 1
 99 26 l 1
503 624 m 1
 589 540 l 1
 401 372 l 1
 343 426 l 1
 503 624 l 1
425 -12 m 0xc3
 339 -12 273 56 273 159 c 0
 273 262 339 326 425 326 c 0
 511 326 577 262 577 159 c 0
 577 56 511 -12 425 -12 c 0xc3
425 78 m 0
 443 78 461 95 461 159 c 0
 461 223 443 236 425 236 c 0
 407 236 389 223 389 159 c 0
 389 95 407 78 425 78 c 0
EndSplineSet
EndChar

StartChar: ampersand
Encoding: 38 38 460
Width: 600
Flags: MW
HStem: -12 130<229 259 229 266> 550 112<235.5 256.5>
VStem: 16 162<166 195 166 218.5> 72 141<476.5 507 476.5 533> 278 130<491 522>
LayerCount: 2
Fore
SplineSet
178 186 m 0xe8
 178 146 206 118 252 118 c 0
 266 118 281 123 295 131 c 1
 258 163 223 199 192 236 c 1
 183 221 178 204 178 186 c 0xe8
213 486 m 0xd8
 213 467 218 447 227 426 c 1
 257 449 278 474 278 508 c 0
 278 536 269 550 244 550 c 0
 227 550 213 528 213 486 c 0xd8
436 374 m 1
 592 374 l 1
 573 298 546 227 507 161 c 1
 537 143 565 131 590 126 c 1
 550 -12 l 1
 503 -1 457 18 411 47 c 1
 362 10 302 -12 230 -12 c 0
 86 -12 16 78 16 176 c 0xe8
 16 261 61 312 114 351 c 1
 87 400 72 447 72 486 c 0
 72 580 136 662 240 662 c 0
 344 662 408 602 408 508 c 0
 408 426 350 376 292 330 c 1
 320 298 354 267 390 239 c 1
 410 277 426 322 436 374 c 1
EndSplineSet
EndChar

StartChar: quotesingle
Encoding: 39 39 490
Width: 600
Flags: MW
HStem: 284 400<248 248 248 352>
VStem: 207 186
LayerCount: 2
Fore
SplineSet
248 284 m 1
 210 526 l 1
 204 684 l 1
 396 684 l 1
 390 526 l 1
 352 284 l 1
 248 284 l 1
EndSplineSet
EndChar

StartChar: parenleft
Encoding: 40 40 511
Width: 600
Flags: MW
HStem: -180 916<377 377>
VStem: 170 142<201 355 201 371>
LayerCount: 2
Fore
SplineSet
377 -180 m 1
 250 -62 170 92 170 278 c 0
 170 464 250 618 377 736 c 1
 472 662 l 1
 359 545 312 432 312 278 c 0
 312 124 359 11 472 -106 c 1
 377 -180 l 1
EndSplineSet
Substitution2: "'subs' Subscript in Latin lookup 14 subtable" parenleft.subs
Substitution2: "'sups' Superscript in Latin lookup 13 subtable" parenleft.sups
Substitution2: "'dnom' Denominators in Latin lookup 9 subtable" parenleft.dnom
Substitution2: "'numr' Numerators in Latin lookup 8 subtable" parenleft.numr
AlternateSubs2: "'aalt' Access All Alternates in Latin lookup 1 subtable" parenleft.numr parenleft.dnom parenleft.sups parenleft.subs
EndChar

StartChar: parenright
Encoding: 41 41 512
Width: 600
Flags: MW
HStem: -180 916<223 223>
VStem: 288 142<201 355>
LayerCount: 2
Fore
SplineSet
223 -180 m 1
 128 -106 l 1
 241 11 288 124 288 278 c 0
 288 432 241 545 128 662 c 1
 223 736 l 1
 350 618 430 464 430 278 c 0
 430 92 350 -62 223 -180 c 1
EndSplineSet
Substitution2: "'subs' Subscript in Latin lookup 14 subtable" parenright.subs
Substitution2: "'sups' Superscript in Latin lookup 13 subtable" parenright.sups
Substitution2: "'dnom' Denominators in Latin lookup 9 subtable" parenright.dnom
Substitution2: "'numr' Numerators in Latin lookup 8 subtable" parenright.numr
AlternateSubs2: "'aalt' Access All Alternates in Latin lookup 1 subtable" parenright.numr parenright.dnom parenright.sups parenright.subs
EndChar

StartChar: asterisk
Encoding: 42 42 521
Width: 600
Flags: MW
HStem: 83 487<186 344 256 414>
VStem: 249 102
LayerCount: 2
Fore
SplineSet
186 83 m 1
 113 133 l 1
 206 286 l 1
 56 353 l 1
 82 435 l 1
 242 396 l 1
 256 570 l 1
 344 570 l 1
 358 396 l 1
 518 435 l 1
 544 353 l 1
 394 286 l 1
 487 133 l 1
 414 83 l 1
 300 219 l 1
 186 83 l 1
EndSplineSet
Substitution2: "'ss01' Style Set 1 in Latin lookup 17 subtable" asterisk.a
Substitution2: "'aalt' Access All Alternates in Latin lookup 0 subtable" asterisk.a
EndChar

StartChar: plus
Encoding: 43 43 660
Width: 600
Flags: MW
HStem: 270 120<64 238 64 238 362 536>
VStem: 238 124<90 270 90 270 390 570>
LayerCount: 2
Fore
SplineSet
238 90 m 1
 238 270 l 1
 64 270 l 1
 64 390 l 1
 238 390 l 1
 238 570 l 1
 362 570 l 1
 362 390 l 1
 536 390 l 1
 536 270 l 1
 362 270 l 1
 362 90 l 1
 238 90 l 1
EndSplineSet
EndChar

StartChar: comma
Encoding: 44 44 482
Width: 600
Flags: MW
HStem: -218 456<218 350> 12 226<270 301.5 300 308>
VStem: 308 134
LayerCount: 2
Fore
SplineSet
218 -218 m 1xa0
 177 -120 l 1
 266 -91 309 -43 308 12 c 1
 305 12 303 12 300 12 c 0
 238 12 180 53 180 125 c 0
 180 192 235 238 305 238 c 0x60
 395 238 442 168 442 50 c 0
 442 -81 367 -176 218 -218 c 1xa0
EndSplineSet
Substitution2: "'subs' Subscript in Latin lookup 14 subtable" comma.subs
Substitution2: "'sups' Superscript in Latin lookup 13 subtable" comma.sups
Substitution2: "'dnom' Denominators in Latin lookup 9 subtable" comma.dnom
Substitution2: "'numr' Numerators in Latin lookup 8 subtable" comma.numr
AlternateSubs2: "'aalt' Access All Alternates in Latin lookup 1 subtable" comma.numr comma.dnom comma.sups comma.subs
EndChar

StartChar: hyphen
Encoding: 45 45 502
Width: 600
Flags: MW
HStem: 270 120<64 536 64 536>
VStem: 64 472<270 390 270 390>
LayerCount: 2
Fore
SplineSet
64 270 m 1
 64 390 l 1
 536 390 l 1
 536 270 l 1
 64 270 l 1
EndSplineSet
Substitution2: "'ss01' Style Set 1 in Latin lookup 17 subtable" hyphen.a
Substitution2: "'aalt' Access All Alternates in Latin lookup 0 subtable" hyphen.a
EndChar

StartChar: period
Encoding: 46 46 481
Width: 600
Flags: MW
HStem: -12 260<261 339>
VStem: 170 260<82 153.5>
LayerCount: 2
Fore
SplineSet
170 118 m 0
 170 189 222 248 300 248 c 0
 378 248 430 189 430 118 c 0
 430 46 378 -12 300 -12 c 0
 222 -12 170 46 170 118 c 0
EndSplineSet
Substitution2: "'subs' Subscript in Latin lookup 14 subtable" period.subs
Substitution2: "'sups' Superscript in Latin lookup 13 subtable" period.sups
Substitution2: "'dnom' Denominators in Latin lookup 9 subtable" period.dnom
Substitution2: "'numr' Numerators in Latin lookup 8 subtable" period.numr
AlternateSubs2: "'aalt' Access All Alternates in Latin lookup 1 subtable" period.numr period.dnom period.sups period.subs
EndChar

StartChar: slash
Encoding: 47 47 517
Width: 600
Flags: MW
HStem: -160 870<64 536 64 536>
VStem: 64 472
LayerCount: 2
Fore
SplineSet
536 710 m 1
 206 -160 l 1
 64 -160 l 1
 394 710 l 1
 536 710 l 1
EndSplineSet
Substitution2: "'frac' Diagonal Fractions in Latin lookup 10 subtable" slash.frac
EndChar

StartChar: zero
Encoding: 48 48 461
Width: 600
Flags: MW
HStem: -12 132<273.5 326.5 273.5 374.5> 240 160<277 323> 514 132<273.5 326.5>
VStem: 50 152<241 399 241 428.5> 220 160<296 344> 398 152<241 399>
LayerCount: 2
Fore
SplineSet
300 -12 m 0
 151 -12 50 103 50 320 c 0
 50 537 151 646 300 646 c 0
 449 646 550 537 550 320 c 0
 550 103 449 -12 300 -12 c 0
300 514 m 0
 247 514 202 478 202 320 c 0
 202 162 247 120 300 120 c 0
 353 120 398 162 398 320 c 0
 398 478 353 514 300 514 c 0
300 240 m 0xfc
 254 240 220 272 220 320 c 0
 220 368 254 400 300 400 c 0
 346 400 380 368 380 320 c 0
 380 272 346 240 300 240 c 0xfc
EndSplineSet
Substitution2: "'onum' Oldstyle Figures in Latin lookup 15 subtable" zero.onum
Substitution2: "'subs' Subscript in Latin lookup 14 subtable" zero.subs
Substitution2: "'sups' Superscript in Latin lookup 13 subtable" zero.sups
Substitution2: "'dnom' Denominators in Latin lookup 9 subtable" zero.dnom
Substitution2: "'numr' Numerators in Latin lookup 8 subtable" zero.numr
AlternateSubs2: "'aalt' Access All Alternates in Latin lookup 1 subtable" zero.numr zero.dnom zero.sups zero.subs zero.onum
EndChar

StartChar: one
Encoding: 49 49 462
Width: 600
Flags: MW
HStem: 0 138<75 233 405 541 75 233> 466 168<104 405>
VStem: 233 172<138 466 466 466>
LayerCount: 2
Fore
SplineSet
405 138 m 1
 541 138 l 1
 541 0 l 1
 75 0 l 1
 75 138 l 1
 233 138 l 1
 233 466 l 1
 104 466 l 1
 104 572 l 1
 180 586 229 604 279 634 c 1
 405 634 l 1
 405 138 l 1
EndSplineSet
Substitution2: "'onum' Oldstyle Figures in Latin lookup 15 subtable" one.onum
Substitution2: "'subs' Subscript in Latin lookup 14 subtable" one.subs
Substitution2: "'sups' Superscript in Latin lookup 13 subtable" one.sups
Substitution2: "'dnom' Denominators in Latin lookup 9 subtable" one.dnom
Substitution2: "'numr' Numerators in Latin lookup 8 subtable" one.numr
AlternateSubs2: "'aalt' Access All Alternates in Latin lookup 1 subtable" one.numr one.dnom one.sups one.subs one.onum
EndChar

StartChar: two
Encoding: 50 50 463
Width: 600
Flags: MW
HStem: 0 144<412 540 412 540> 512 134<229.5 281>
VStem: 345 163<387 456.5>
LayerCount: 2
Fore
SplineSet
52 0 m 1
 52 98 l 1
 221 236 345 342 345 428 c 0
 345 485 309 512 253 512 c 0
 206 512 169 482 135 452 c 1
 44 544 l 1
 113 614 177 646 277 646 c 0
 413 646 508 564 508 438 c 0
 508 336 402 224 298 136 c 1
 333 140 381 144 412 144 c 2
 540 144 l 1
 540 0 l 1
 52 0 l 1
EndSplineSet
Substitution2: "'onum' Oldstyle Figures in Latin lookup 15 subtable" two.onum
Substitution2: "'subs' Subscript in Latin lookup 14 subtable" two.subs
Substitution2: "'sups' Superscript in Latin lookup 13 subtable" two.sups
Substitution2: "'dnom' Denominators in Latin lookup 9 subtable" two.dnom
Substitution2: "'numr' Numerators in Latin lookup 8 subtable" two.numr
AlternateSubs2: "'aalt' Access All Alternates in Latin lookup 1 subtable" two.numr two.dnom two.sups two.subs two.onum
EndChar

StartChar: three
Encoding: 51 51 464
Width: 600
Flags: MW
HStem: -12 138<234 289 234 344.5> 262 120<188 245 188 258.5> 512 134<241 289>
VStem: 188 212<326 330 326 382 326 382> 344 172<436.5 473> 364 172<166 210>
LayerCount: 2
Fore
SplineSet
36 78 m 1xe4
 114 186 l 1
 156 150 210 126 258 126 c 0
 320 126 364 146 364 186 c 0xe4
 364 234 329 262 188 262 c 1
 188 382 l 1xf0
 302 382 344 410 344 454 c 0
 344 492 314 512 264 512 c 0
 218 512 182 494 138 460 c 1
 52 564 l 1
 117 616 190 646 272 646 c 0
 418 646 516 582 516 467 c 0xe8
 516 406 475 360 400 330 c 1
 400 326 l 1xf0
 478 304 536 254 536 174 c 0
 536 54 413 -12 276 -12 c 0
 168 -12 86 22 36 78 c 1xe4
EndSplineSet
Substitution2: "'onum' Oldstyle Figures in Latin lookup 15 subtable" three.onum
Substitution2: "'subs' Subscript in Latin lookup 14 subtable" three.subs
Substitution2: "'sups' Superscript in Latin lookup 13 subtable" three.sups
Substitution2: "'dnom' Denominators in Latin lookup 9 subtable" three.dnom
Substitution2: "'numr' Numerators in Latin lookup 8 subtable" three.numr
AlternateSubs2: "'aalt' Access All Alternates in Latin lookup 1 subtable" three.numr three.dnom three.sups three.subs three.onum
EndChar

StartChar: four
Encoding: 52 52 465
Width: 600
Flags: MW
HStem: 0 21G<330 490 330 330> 142 130<195 330 195 330 490 563> 494 140<332 336 332 332>
VStem: 330 160<0 142 0 142 272 344 344 365.5>
LayerCount: 2
Fore
SplineSet
195 272 m 1
 330 272 l 1
 330 344 l 2
 330 387 334 451 336 494 c 1
 332 494 l 1
 311 456 284 418 261 380 c 2
 195 272 l 1
563 272 m 1
 563 142 l 1
 490 142 l 1
 490 0 l 1
 330 0 l 1
 330 142 l 1
 33 142 l 1
 33 262 l 1
 278 634 l 1
 490 634 l 1
 490 272 l 1
 563 272 l 1
EndSplineSet
Substitution2: "'onum' Oldstyle Figures in Latin lookup 15 subtable" four.onum
Substitution2: "'subs' Subscript in Latin lookup 14 subtable" four.subs
Substitution2: "'sups' Superscript in Latin lookup 13 subtable" four.sups
Substitution2: "'dnom' Denominators in Latin lookup 9 subtable" four.dnom
Substitution2: "'numr' Numerators in Latin lookup 8 subtable" four.numr
AlternateSubs2: "'aalt' Access All Alternates in Latin lookup 1 subtable" four.numr four.dnom four.sups four.subs four.onum
EndChar

StartChar: five
Encoding: 53 53 466
Width: 600
Flags: MW
HStem: -12 138<231 289 231 349> 290 118<245 375.5> 490 144<256 508 256 256>
VStem: 100 152 364 172<180 235>
LayerCount: 2
Fore
SplineSet
42 78 m 1
 118 186 l 1
 159 152 206 126 256 126 c 0
 322 126 364 152 364 208 c 0
 364 262 320 290 264 290 c 0
 226 290 208 284 166 260 c 1
 92 308 l 1
 108 634 l 1
 508 634 l 1
 508 490 l 1
 256 490 l 1
 248 398 l 1
 274 406 293 408 318 408 c 0
 433 408 536 346 536 212 c 0
 536 70 416 -12 282 -12 c 0
 173 -12 96 26 42 78 c 1
EndSplineSet
Substitution2: "'onum' Oldstyle Figures in Latin lookup 15 subtable" five.onum
Substitution2: "'subs' Subscript in Latin lookup 14 subtable" five.subs
Substitution2: "'sups' Superscript in Latin lookup 13 subtable" five.sups
Substitution2: "'dnom' Denominators in Latin lookup 9 subtable" five.dnom
Substitution2: "'numr' Numerators in Latin lookup 8 subtable" five.numr
AlternateSubs2: "'aalt' Access All Alternates in Latin lookup 1 subtable" five.numr five.dnom five.sups five.subs five.onum
EndChar

StartChar: six
Encoding: 54 54 467
Width: 600
Flags: MW
HStem: -12 128<295 332.5 295 378.5> 280 120<333.5 338> 508 138<312 366>
VStem: 54 157 394 156<170.5 232>
LayerCount: 2
Fore
SplineSet
312 116 m 0
 353 116 394 137 394 204 c 0
 394 260 360 280 316 280 c 0
 283 280 249 265 216 226 c 1
 233 136 278 116 312 116 c 0
542 566 m 1
 452 464 l 1
 428 486 386 508 346 508 c 0
 278 508 218 464 211 335 c 1
 254 377 313 400 354 400 c 0
 462 400 550 340 550 204 c 0
 550 68 441 -12 316 -12 c 0
 189 -12 54 76 54 306 c 0
 54 536 189 646 330 646 c 0
 425 646 498 608 542 566 c 1
EndSplineSet
Substitution2: "'onum' Oldstyle Figures in Latin lookup 15 subtable" six.onum
Substitution2: "'subs' Subscript in Latin lookup 14 subtable" six.subs
Substitution2: "'sups' Superscript in Latin lookup 13 subtable" six.sups
Substitution2: "'dnom' Denominators in Latin lookup 9 subtable" six.dnom
Substitution2: "'numr' Numerators in Latin lookup 8 subtable" six.numr
AlternateSubs2: "'aalt' Access All Alternates in Latin lookup 1 subtable" six.numr six.dnom six.sups six.subs six.onum
EndChar

StartChar: seven
Encoding: 55 55 468
Width: 600
Flags: MW
HStem: 0 21G<180 180 180 352> 490 144<59 359 59 542>
VStem: 180 172<0 0>
LayerCount: 2
Fore
SplineSet
180 0 m 1
 193 200 231 327 359 490 c 1
 59 490 l 1
 59 634 l 1
 542 634 l 1
 542 528 l 1
 384 357 365 247 352 0 c 1
 180 0 l 1
EndSplineSet
Substitution2: "'onum' Oldstyle Figures in Latin lookup 15 subtable" seven.onum
Substitution2: "'subs' Subscript in Latin lookup 14 subtable" seven.subs
Substitution2: "'sups' Superscript in Latin lookup 13 subtable" seven.sups
Substitution2: "'dnom' Denominators in Latin lookup 9 subtable" seven.dnom
Substitution2: "'numr' Numerators in Latin lookup 8 subtable" seven.numr
AlternateSubs2: "'aalt' Access All Alternates in Latin lookup 1 subtable" seven.numr seven.dnom seven.sups seven.subs seven.onum
EndChar

StartChar: eight
Encoding: 56 56 469
Width: 600
Flags: MW
HStem: -12 118<276 325 276 377> 528 118<281 324>
VStem: 58 148<157 198 157 199> 80 150<445 488 445 522> 376 140<444 480> 384 160<148 195>
LayerCount: 2
Fore
SplineSet
206 182 m 0xe4
 206 132 250 106 302 106 c 0
 348 106 384 124 384 172 c 0
 384 218 332 236 249 268 c 1
 223 246 206 214 206 182 c 0xe4
340 378 m 1xd8
 364 404 376 430 376 458 c 0
 376 502 348 528 300 528 c 0
 262 528 230 510 230 466 c 0
 230 424 273 402 340 378 c 1xd8
58 162 m 0xe4
 58 236 107 280 171 312 c 1
 171 316 l 1
 118 354 80 400 80 466 c 0
 80 578 173 646 304 646 c 0
 431 646 516 578 516 470 c 0xd8
 516 412 475 366 427 337 c 1
 427 333 l 1
 493 300 544 250 544 166 c 0
 544 64 456 -12 298 -12 c 0
 150 -12 58 58 58 162 c 0xe4
EndSplineSet
Substitution2: "'onum' Oldstyle Figures in Latin lookup 15 subtable" eight.onum
Substitution2: "'subs' Subscript in Latin lookup 14 subtable" eight.subs
Substitution2: "'sups' Superscript in Latin lookup 13 subtable" eight.sups
Substitution2: "'dnom' Denominators in Latin lookup 9 subtable" eight.dnom
Substitution2: "'numr' Numerators in Latin lookup 8 subtable" eight.numr
AlternateSubs2: "'aalt' Access All Alternates in Latin lookup 1 subtable" eight.numr eight.dnom eight.sups eight.subs eight.onum
EndChar

StartChar: nine
Encoding: 57 57 470
Width: 600
Flags: MW
HStem: -12 138<232 286 232 338.5> 234 120<260 264.5> 518 128<265.5 303>
VStem: 48 156<402 463.5 402 498> 387 157
LayerCount: 2
Fore
SplineSet
282 354 m 0
 315 354 349 369 382 408 c 1
 365 498 320 518 286 518 c 0
 245 518 204 497 204 430 c 0
 204 374 238 354 282 354 c 0
56 68 m 1
 146 170 l 1
 170 148 212 126 252 126 c 0
 320 126 380 170 387 299 c 1
 344 257 285 234 244 234 c 0
 136 234 48 294 48 430 c 0
 48 566 157 646 282 646 c 0
 409 646 544 558 544 328 c 0
 544 98 409 -12 268 -12 c 0
 173 -12 100 26 56 68 c 1
EndSplineSet
Substitution2: "'onum' Oldstyle Figures in Latin lookup 15 subtable" nine.onum
Substitution2: "'subs' Subscript in Latin lookup 14 subtable" nine.subs
Substitution2: "'sups' Superscript in Latin lookup 13 subtable" nine.sups
Substitution2: "'dnom' Denominators in Latin lookup 9 subtable" nine.dnom
Substitution2: "'numr' Numerators in Latin lookup 8 subtable" nine.numr
AlternateSubs2: "'aalt' Access All Alternates in Latin lookup 1 subtable" nine.numr nine.dnom nine.sups nine.subs nine.onum
EndChar

StartChar: colon
Encoding: 58 58 483
Width: 600
Flags: MW
HStem: -12 260<261 339> 298 260<261 339>
VStem: 170 260<82 153.5 392 463.5>
LayerCount: 2
Fore
SplineSet
170 428 m 0
 170 499 222 558 300 558 c 0
 378 558 430 499 430 428 c 0
 430 356 378 298 300 298 c 0
 222 298 170 356 170 428 c 0
170 118 m 0
 170 189 222 248 300 248 c 0
 378 248 430 189 430 118 c 0
 430 46 378 -12 300 -12 c 0
 222 -12 170 46 170 118 c 0
EndSplineSet
EndChar

StartChar: semicolon
Encoding: 59 59 484
Width: 600
Flags: MW
HStem: 12 226<270 301.5 300 308> 298 260<261 339>
VStem: 170 260<392 463.5> 308 134
LayerCount: 2
Fore
SplineSet
300 298 m 0x60
 222 298 170 356 170 428 c 0
 170 499 222 558 300 558 c 0
 378 558 430 499 430 428 c 0
 430 356 378 298 300 298 c 0x60
218 -218 m 1
 177 -120 l 1
 266 -91 309 -43 308 12 c 1
 305 12 303 12 300 12 c 0
 238 12 180 53 180 125 c 0
 180 192 235 238 305 238 c 0
 395 238 442 168 442 50 c 0x90
 442 -81 367 -176 218 -218 c 1
EndSplineSet
EndChar

StartChar: less
Encoding: 60 60 666
Width: 600
Flags: MW
HStem: 24 616<506 506>
VStem: 114 140<330 334 330 390 330 390>
LayerCount: 2
Fore
SplineSet
114 274 m 1
 114 390 l 1
 506 640 l 1
 506 486 l 1
 254 334 l 1
 254 330 l 1
 506 178 l 1
 506 24 l 1
 114 274 l 1
EndSplineSet
EndChar

StartChar: equal
Encoding: 61 61 665
Width: 600
Flags: MW
HStem: 150 120<64 536 64 536> 390 120<64 536 64 536>
VStem: 64 472<150 270 150 270 390 510 150 510>
LayerCount: 2
Fore
SplineSet
64 390 m 1
 64 510 l 1
 536 510 l 1
 536 390 l 1
 64 390 l 1
64 150 m 1
 64 270 l 1
 536 270 l 1
 536 150 l 1
 64 150 l 1
EndSplineSet
EndChar

StartChar: greater
Encoding: 62 62 667
Width: 600
Flags: MW
HStem: 24 616<94 94>
VStem: 346 140<330 334 334 334>
LayerCount: 2
Fore
SplineSet
486 390 m 1
 486 274 l 1
 94 24 l 1
 94 178 l 1
 346 330 l 1
 346 334 l 1
 94 486 l 1
 94 640 l 1
 486 390 l 1
EndSplineSet
EndChar

StartChar: question
Encoding: 63 63 488
Width: 600
Flags: MW
HStem: -12 21G<254 318> -12 220<254 318> 544 138<261 295>
VStem: 176 220<67 131> 340 164<462 512>
LayerCount: 2
Fore
SplineSet
208 264 m 1xa8
 188 394 340 430 340 494 c 0
 340 530 310 544 280 544 c 0
 242 544 217 526 188 502 c 1
 94 588 l 1
 143 644 212 682 292 682 c 0
 408 682 504 632 504 516 c 0
 504 386 348 374 358 264 c 1
 208 264 l 1xa8
176 99 m 0x70
 176 163 222 208 286 208 c 0
 350 208 396 163 396 99 c 0
 396 35 350 -12 286 -12 c 0
 222 -12 176 35 176 99 c 0x70
EndSplineSet
EndChar

StartChar: at
Encoding: 64 64 531
Width: 600
Flags: MW
HStem: -148 102<294 374.5 294 374.5> 88 110<356.5 358.5> 546 102<281.5 364.5>
VStem: 24 116<147 360 147 393> 204 124<224.5 255 224.5 287> 430 122<224 302 302 302>
LayerCount: 2
Fore
SplineSet
552 400 m 2
 552 100 l 1
 462 100 l 1
 450 148 l 1
 446 148 l 1
 422 112 386 88 331 88 c 0
 257 88 204 155 204 232 c 0
 204 342 302 385 448 404 c 1
 448 420 l 2
 448 486 406 546 323 546 c 0
 240 546 140 470 140 250 c 0
 140 44 243 -46 345 -46 c 0
 404 -46 436 -32 474 -10 c 1
 522 -94 l 1
 464 -126 411 -148 338 -148 c 0
 177 -148 24 -23 24 254 c 0
 24 532 164 648 327 648 c 0
 484 648 552 539 552 400 c 2
328 236 m 0
 328 213 343 198 370 198 c 0
 396 198 413 210 430 224 c 1
 430 302 l 1
 353 290 328 274 328 236 c 0
EndSplineSet
Substitution2: "'case' Case-Sensitive Forms in Latin lookup 16 subtable" at.case
Substitution2: "'aalt' Access All Alternates in Latin lookup 0 subtable" at.case
EndChar

StartChar: A
Encoding: 65 65 2
Width: 600
GlyphClass: 2
Flags: MW
HStem: 0 21G<0 176 0 0 418 600 418 418> 138 133<239 355 239 386 208 355> 522 128<294 298 294 294>
VStem: 0 600<0 0>
AnchorPoint: "Anchor-4" 492 0 basechar 0
AnchorPoint: "Anchor-2" 300 -22 basechar 0
AnchorPoint: "Anchor-0" 300 672 basechar 0
LayerCount: 2
Fore
SplineSet
239 271 m 1
 355 271 l 1
 345 316 l 2
 331 378 314 457 298 522 c 1
 294 522 l 1
 280 456 263 378 249 316 c 2
 239 271 l 1
418 0 m 1
 386 138 l 1
 208 138 l 1
 176 0 l 1
 0 0 l 1
 196 650 l 1
 404 650 l 1
 600 0 l 1
 418 0 l 1
EndSplineSet
EndChar

StartChar: B
Encoding: 66 66 3
Width: 600
GlyphClass: 2
Flags: MW
HStem: 0 132<248 298 298 310> 274 120<248 286 286 298 248 286> 518 132<248 286 248 248>
VStem: 76 172<132 132 132 274 394 518> 366 168<460 482> 394 168<182 230>
AnchorPoint: "Anchor-2" 314 -22 basechar 0
AnchorPoint: "Anchor-0" 283 672 basechar 0
LayerCount: 2
Fore
SplineSet
76 0 m 1xf4
 76 650 l 1
 290 650 l 2
 426 650 534 616 534 488 c 0xf8
 534 432 500 368 424 348 c 1
 424 344 l 1
 516 326 562 278 562 192 c 0
 562 58 450 0 310 0 c 2
 76 0 l 1xf4
248 394 m 1
 286 394 l 2
 342 394 366 422 366 462 c 0
 366 502 342 518 286 518 c 2
 248 518 l 1
 248 394 l 1
248 132 m 1
 298 132 l 2
 366 132 394 158 394 206 c 0
 394 254 366 274 298 274 c 2xf4
 248 274 l 1
 248 132 l 1
EndSplineSet
EndChar

StartChar: C
Encoding: 67 67 4
Width: 600
GlyphClass: 2
Flags: MW
HStem: -12 148<333 398 333 407> 514 148<329 391>
VStem: 51 176<265 385 265 429>
AnchorPoint: "Anchor-2" 348 -22 basechar 0
AnchorPoint: "Anchor-1" 348 0 basechar 0
AnchorPoint: "Anchor-0" 356 672 basechar 0
LayerCount: 2
Fore
SplineSet
51 320 m 0
 51 538 193 662 369 662 c 0
 453 662 521 622 567 578 c 1
 473 472 l 1
 443 498 413 514 369 514 c 0
 289 514 227 444 227 326 c 0
 227 204 289 136 377 136 c 0
 419 136 453 158 481 188 c 1
 575 84 l 1
 520 20 447 -12 367 -12 c 0
 197 -12 51 98 51 320 c 0
EndSplineSet
EndChar

StartChar: D
Encoding: 68 68 5
Width: 600
GlyphClass: 2
Flags: MW
HStem: 0 138<230 232 232 251> 512 138<230 232 230 230>
VStem: 58 172<138 138 138 512> 382 176<252 404>
AnchorPoint: "Anchor-2" 290 -22 basechar 0
AnchorPoint: "Anchor-0" 296 672 basechar 0
LayerCount: 2
Fore
SplineSet
58 0 m 1
 58 650 l 1
 241 650 l 2
 427 650 558 558 558 328 c 0
 558 98 427 0 251 0 c 2
 58 0 l 1
230 138 m 1
 232 138 l 2
 315 138 382 176 382 328 c 0
 382 480 315 512 232 512 c 2
 230 512 l 1
 230 138 l 1
EndSplineSet
EndChar

StartChar: E
Encoding: 69 69 6
Width: 600
GlyphClass: 2
Flags: MW
HStem: 0 144<258 536 258 536> 260 144<258 486 258 486> 506 144<258 526 258 258>
VStem: 86 172<144 260 404 506>
AnchorPoint: "Anchor-4" 418 0 basechar 0
AnchorPoint: "Anchor-2" 316 -22 basechar 0
AnchorPoint: "Anchor-0" 318 672 basechar 0
LayerCount: 2
Fore
SplineSet
86 0 m 1
 86 650 l 1
 526 650 l 1
 526 506 l 1
 258 506 l 1
 258 404 l 1
 486 404 l 1
 486 260 l 1
 258 260 l 1
 258 144 l 1
 536 144 l 1
 536 0 l 1
 86 0 l 1
EndSplineSet
EndChar

StartChar: F
Encoding: 70 70 7
Width: 600
GlyphClass: 2
Flags: MW
HStem: 0 21G<98 98 98 270> 238 144<270 500 270 500> 506 144<270 539 270 270>
VStem: 98 172<0 238 382 506>
AnchorPoint: "Anchor-2" 200 -22 basechar 0
AnchorPoint: "Anchor-0" 322 672 basechar 0
LayerCount: 2
Fore
SplineSet
98 0 m 1
 98 650 l 1
 539 650 l 1
 539 506 l 1
 270 506 l 1
 270 382 l 1
 500 382 l 1
 500 238 l 1
 270 238 l 1
 270 0 l 1
 98 0 l 1
EndSplineSet
EndChar

StartChar: H
Encoding: 72 72 9
Width: 600
GlyphClass: 2
Flags: MW
HStem: 0 21G<58 58 58 230 370 370 370 542> 258 150<230 370 230 370> 630 20G<58 230 230 230 370 542 542 542>
VStem: 58 172<0 258 408 650> 370 172<0 258 258 258 408 650 0 650>
AnchorPoint: "Anchor-2" 299 -22 basechar 0
AnchorPoint: "Anchor-0" 299 672 basechar 0
LayerCount: 2
Fore
SplineSet
58 0 m 1
 58 650 l 1
 230 650 l 1
 230 408 l 1
 370 408 l 1
 370 650 l 1
 542 650 l 1
 542 0 l 1
 370 0 l 1
 370 258 l 1
 230 258 l 1
 230 0 l 1
 58 0 l 1
EndSplineSet
EndChar

StartChar: I
Encoding: 73 73 10
Width: 600
GlyphClass: 2
Flags: MW
HStem: 0 144<66 214 66 214 386 534> 506 144<66 214 66 534 386 386 386 534>
VStem: 214 172<144 506 144 506>
AnchorPoint: "Anchor-4" 282 0 basechar 0
AnchorPoint: "Anchor-2" 300 -22 basechar 0
AnchorPoint: "Anchor-0" 300 672 basechar 0
LayerCount: 2
Fore
SplineSet
66 0 m 1
 66 144 l 1
 214 144 l 1
 214 506 l 1
 66 506 l 1
 66 650 l 1
 534 650 l 1
 534 506 l 1
 386 506 l 1
 386 144 l 1
 534 144 l 1
 534 0 l 1
 66 0 l 1
EndSplineSet
EndChar

StartChar: J
Encoding: 74 74 11
Width: 600
GlyphClass: 2
Flags: MW
HStem: -12 148<246 294 246 365.5> 506 144<106 353 106 525>
VStem: 353 172<240 506 506 506>
AnchorPoint: "Anchor-2" 304 -22 basechar 0
AnchorPoint: "Anchor-0" 322 672 basechar 0
LayerCount: 2
Fore
SplineSet
51 95 m 1
 148 202 l 1
 185 160 226 136 266 136 c 0
 322 136 353 158 353 240 c 2
 353 506 l 1
 106 506 l 1
 106 650 l 1
 525 650 l 1
 525 226 l 2
 525 96 459 -12 272 -12 c 0
 200 -12 112 14 51 95 c 1
EndSplineSet
EndChar

StartChar: K
Encoding: 75 75 12
Width: 600
GlyphClass: 2
Flags: MW
HStem: 0 21G<57 57 57 230 410 410 410 599> 630 20G<57 230 230 230 394 583 583 583>
VStem: 57 173<0 162 408 650>
AnchorPoint: "Anchor-2" 318 -22 basechar 0
AnchorPoint: "Anchor-0" 308 672 basechar 0
LayerCount: 2
Fore
SplineSet
57 0 m 1
 57 650 l 1
 230 650 l 1
 230 408 l 1
 234 408 l 1
 394 650 l 1
 583 650 l 1
 392 386 l 1
 599 0 l 1
 410 0 l 1
 292 250 l 1
 230 162 l 1
 230 0 l 1
 57 0 l 1
EndSplineSet
EndChar

StartChar: L
Encoding: 76 76 13
Width: 600
GlyphClass: 2
Flags: MW
HStem: 0 144<268 545 268 545> 630 20G<96 268 268 268>
VStem: 96 172<144 650 144 650 144 650>
AnchorPoint: "Anchor-2" 326 -22 basechar 0
AnchorPoint: "Anchor-0" 197 672 basechar 0
LayerCount: 2
Fore
SplineSet
96 0 m 1
 96 650 l 1
 268 650 l 1
 268 144 l 1
 545 144 l 1
 545 0 l 1
 96 0 l 1
EndSplineSet
EndChar

StartChar: M
Encoding: 77 77 14
Width: 600
GlyphClass: 2
Flags: MW
HStem: 0 21G<58 58 58 194 404 404 404 542> 483 167<172 176 172 172 423 426 423 423>
VStem: 58 136<0 153 0 650> 404 138<0 153 153 191.5>
AnchorPoint: "Anchor-2" 300 -22 basechar 0
AnchorPoint: "Anchor-0" 300 672 basechar 0
LayerCount: 2
Fore
SplineSet
58 0 m 1
 58 650 l 1
 227 650 l 1
 282 438 l 1
 300 354 l 1
 303 354 l 1
 321 438 l 1
 373 650 l 1
 542 650 l 1
 542 0 l 1
 404 0 l 1
 404 153 l 2
 404 230 418 407 426 483 c 1
 423 483 l 1
 369 290 l 1
 335 173 l 1
 261 173 l 1
 227 290 l 1
 176 483 l 1
 172 483 l 1
 180 407 194 230 194 153 c 2
 194 0 l 1
 58 0 l 1
EndSplineSet
EndChar

StartChar: N
Encoding: 78 78 15
Width: 600
GlyphClass: 2
Flags: MW
HStem: 0 21G<60 60 60 224 366 366 366 540> 630 20G<60 234 234 234 376 540 540 540>
VStem: 60 164<0 188 0 650> 376 164<462 650 0 650>
AnchorPoint: "Anchor-2" 300 -22 basechar 0
AnchorPoint: "Anchor-0" 306 672 basechar 0
LayerCount: 2
Fore
SplineSet
60 0 m 1
 60 650 l 1
 234 650 l 1
 343 360 l 1
 396 214 l 1
 400 214 l 1
 392 284 376 382 376 462 c 2
 376 650 l 1
 540 650 l 1
 540 0 l 1
 366 0 l 1
 257 291 l 1
 204 436 l 1
 200 436 l 1
 208 362 224 268 224 188 c 2
 224 0 l 1
 60 0 l 1
EndSplineSet
EndChar

StartChar: O
Encoding: 79 79 16
Width: 600
GlyphClass: 2
Flags: MW
HStem: -12 148<272 328 272 379> 514 148<272 328>
VStem: 34 176<269 387 269 435> 390 176<269 387>
AnchorPoint: "Anchor-4" 300 0 basechar 0
AnchorPoint: "Anchor-3" 426 640 basechar 0
AnchorPoint: "Anchor-2" 300 -22 basechar 0
AnchorPoint: "Anchor-0" 300 672 basechar 0
LayerCount: 2
Fore
SplineSet
300 -12 m 0
 142 -12 34 114 34 328 c 0
 34 542 142 662 300 662 c 0
 458 662 566 541 566 328 c 0
 566 114 458 -12 300 -12 c 0
300 136 m 0
 356 136 390 210 390 328 c 0
 390 446 356 514 300 514 c 0
 244 514 210 446 210 328 c 0
 210 210 244 136 300 136 c 0
EndSplineSet
EndChar

StartChar: P
Encoding: 80 80 17
Width: 600
GlyphClass: 2
Flags: MW
HStem: 0 21G<63 63 63 235> 206 136<235 307 307 315 235 307> 514 136<235 307 235 235>
VStem: 63 172<0 206 342 514> 407 168<405 463>
AnchorPoint: "Anchor-2" 161 -22 basechar 0
AnchorPoint: "Anchor-0" 312 672 basechar 0
LayerCount: 2
Fore
SplineSet
63 0 m 1
 63 650 l 1
 315 650 l 2
 455 650 575 598 575 434 c 0
 575 275 451 206 315 206 c 2
 235 206 l 1
 235 0 l 1
 63 0 l 1
235 342 m 1
 307 342 l 2
 375 342 407 376 407 434 c 0
 407 492 371 514 307 514 c 2
 235 514 l 1
 235 342 l 1
EndSplineSet
EndChar

StartChar: Q
Encoding: 81 81 18
Width: 600
GlyphClass: 2
Flags: MW
HStem: -184 136<486.5 509> 514 148<268 324>
VStem: 31 176<269 387 269 435> 385 176<269 387>
AnchorPoint: "Anchor-0" 306 672 basechar 0
LayerCount: 2
Fore
SplineSet
296 514 m 0
 240 514 207 446 207 328 c 0
 207 210 240 136 296 136 c 0
 352 136 385 210 385 328 c 0
 385 446 352 514 296 514 c 0
560 -34 m 1
 590 -160 l 1
 568 -174 532 -184 486 -184 c 0
 353 -184 259 -109 216 0 c 1
 103 36 31 152 31 328 c 0
 31 542 138 662 296 662 c 0
 454 662 561 541 561 328 c 0
 561 163 497 50 395 7 c 1
 418 -37 467 -48 506 -48 c 0
 526 -48 546 -41 560 -34 c 1
EndSplineSet
EndChar

StartChar: R
Encoding: 82 82 19
Width: 600
GlyphClass: 2
Flags: MW
HStem: 0 21G<58 230 58 58 404 596 404 404> 218 136<230 288 288 292 230 288> 514 136<230 230 230 288>
VStem: 58 172<0 218 354 514> 392 168<412 468>
AnchorPoint: "Anchor-2" 320 -22 basechar 0
AnchorPoint: "Anchor-0" 302 672 basechar 0
LayerCount: 2
Fore
SplineSet
230 514 m 1
 230 354 l 1
 288 354 l 2
 356 354 392 384 392 440 c 0
 392 496 356 514 288 514 c 2
 230 514 l 1
596 0 m 1
 404 0 l 1
 292 218 l 1
 230 218 l 1
 230 0 l 1
 58 0 l 1
 58 650 l 1
 300 650 l 2
 440 650 560 602 560 440 c 0
 560 347 518 286 455 252 c 1
 596 0 l 1
EndSplineSet
EndChar

StartChar: S
Encoding: 83 83 20
Width: 600
GlyphClass: 2
Flags: MW
HStem: -12 148<274.5 329.5 274.5 380> 514 148<292 342>
VStem: 68 174<454.5 484.5 454.5 515.5> 380 176<167.5 197.5>
AnchorPoint: "Anchor-2" 310 -22 basechar 0
AnchorPoint: "Anchor-1" 300 0 basechar 0
AnchorPoint: "Anchor-0" 306 672 basechar 0
LayerCount: 2
Fore
SplineSet
44 81 m 1
 142 199 l 1
 191 162 249 136 300 136 c 0
 359 136 380 153 380 182 c 0
 380 213 347 223 286 245 c 1
 205 279 l 1
 130 307 68 366 68 460 c 0
 68 571 168 662 316 662 c 0
 393 662 475 634 538 575 c 1
 452 467 l 1
 405 498 368 514 316 514 c 0
 268 514 242 499 242 470 c 0
 242 439 279 429 344 405 c 1
 419 374 l 1
 506 342 556 286 556 196 c 0
 556 86 464 -12 296 -12 c 0
 211 -12 117 18 44 81 c 1
EndSplineSet
EndChar

StartChar: T
Encoding: 84 84 21
Width: 600
GlyphClass: 2
Flags: MW
HStem: 0 21G<214 214 214 386> 506 144<27 214 27 573 386 386 386 573>
VStem: 214 172<0 506 0 506>
AnchorPoint: "Anchor-2" 300 -22 basechar 0
AnchorPoint: "Anchor-1" 300 0 basechar 0
AnchorPoint: "Anchor-0" 300 672 basechar 0
LayerCount: 2
Fore
SplineSet
214 0 m 1
 214 506 l 1
 27 506 l 1
 27 650 l 1
 573 650 l 1
 573 506 l 1
 386 506 l 1
 386 0 l 1
 214 0 l 1
EndSplineSet
EndChar

StartChar: V
Encoding: 86 86 23
Width: 600
GlyphClass: 2
Flags: MW
HStem: 0 21G<196 196 196 404> 0 160<196 306 302 306 302 404> 630 20G<4 186 186 186 420 596 596 596>
VStem: 4 592<650 650>
AnchorPoint: "Anchor-2" 296 -22 basechar 0
AnchorPoint: "Anchor-0" 300 672 basechar 0
LayerCount: 2
Fore
SplineSet
196 0 m 1xb0
 4 650 l 1
 186 650 l 1
 254 366 l 1
 272 297 284 230 302 160 c 1
 306 160 l 1x70
 324 230 337 297 354 366 c 2
 420 650 l 1
 596 650 l 1
 404 0 l 1
 196 0 l 1xb0
EndSplineSet
EndChar

StartChar: X
Encoding: 88 88 25
Width: 600
GlyphClass: 2
Flags: MW
HStem: 0 21G<4 4 4 188 404 404 404 596> 630 20G<15 207 207 207 401 585 585 585>
VStem: 4 592<0 0>
AnchorPoint: "Anchor-2" 288 -22 basechar 0
AnchorPoint: "Anchor-0" 300 672 basechar 0
LayerCount: 2
Fore
SplineSet
4 0 m 1
 192 334 l 1
 15 650 l 1
 207 650 l 1
 259 544 l 2
 274 514 289 478 308 436 c 1
 312 436 l 1
 327 478 342 514 355 544 c 2
 401 650 l 1
 585 650 l 1
 408 326 l 1
 596 0 l 1
 404 0 l 1
 344 116 l 2
 326 150 311 184 294 224 c 1
 290 224 l 1
 275 184 260 150 244 116 c 2
 188 0 l 1
 4 0 l 1
EndSplineSet
EndChar

StartChar: Y
Encoding: 89 89 26
Width: 600
GlyphClass: 2
Flags: MW
HStem: 0 21G<214 214 214 386> 630 20G<8 192 192 192 412 592 592 592>
VStem: 214 172<0 215 0 215>
AnchorPoint: "Anchor-2" 300 -22 basechar 0
AnchorPoint: "Anchor-0" 300 672 basechar 0
LayerCount: 2
Fore
SplineSet
214 0 m 1
 214 215 l 1
 8 650 l 1
 192 650 l 1
 246 508 l 1
 263 458 281 412 299 360 c 1
 303 360 l 1
 321 412 340 458 358 508 c 2
 412 650 l 1
 592 650 l 1
 386 215 l 1
 386 0 l 1
 214 0 l 1
EndSplineSet
EndChar

StartChar: Z
Encoding: 90 90 27
Width: 600
GlyphClass: 2
Flags: MW
HStem: 0 144<265 550 265 550> 506 144<80 335 80 547>
VStem: 53 497<0 104 104 104>
AnchorPoint: "Anchor-2" 310 -22 basechar 0
AnchorPoint: "Anchor-0" 314 672 basechar 0
LayerCount: 2
Fore
SplineSet
53 0 m 1
 53 104 l 1
 335 506 l 1
 80 506 l 1
 80 650 l 1
 547 650 l 1
 547 546 l 1
 265 144 l 1
 550 144 l 1
 550 0 l 1
 53 0 l 1
EndSplineSet
EndChar

StartChar: bracketleft
Encoding: 91 91 513
Width: 600
Flags: MW
HStem: -152 90<321 494 321 494> 618 90<321 494 321 321>
VStem: 191 130<-62 618 -62 708 -62 708>
LayerCount: 2
Fore
SplineSet
191 -152 m 1
 191 708 l 1
 494 708 l 1
 494 618 l 1
 321 618 l 1
 321 -62 l 1
 494 -62 l 1
 494 -152 l 1
 191 -152 l 1
EndSplineSet
EndChar

StartChar: backslash
Encoding: 92 92 519
Width: 600
Flags: MW
HStem: -160 870<64 394 64 536>
VStem: 64 472
LayerCount: 2
Fore
SplineSet
394 -160 m 1
 64 710 l 1
 206 710 l 1
 536 -160 l 1
 394 -160 l 1
EndSplineSet
EndChar

StartChar: bracketright
Encoding: 93 93 514
Width: 600
Flags: MW
HStem: -152 90<107 279 107 410 107 279> 618 90<107 279 107 410>
VStem: 279 131<-62 618 618 618>
LayerCount: 2
Fore
SplineSet
107 -62 m 1
 279 -62 l 1
 279 618 l 1
 107 618 l 1
 107 708 l 1
 410 708 l 1
 410 -152 l 1
 107 -152 l 1
 107 -62 l 1
EndSplineSet
EndChar

StartChar: asciicircum
Encoding: 94 94 671
Width: 600
Flags: MW
HStem: 270 400<76 368 76 368 232 384 232 524> 516 154<298 302 298 298>
VStem: 76 448<270 270>
LayerCount: 2
Fore
SplineSet
76 270 m 1xa0
 232 670 l 1
 368 670 l 1
 524 270 l 1
 384 270 l 1
 346 380 l 1
 302 516 l 1
 298 516 l 1x60
 254 380 l 1
 216 270 l 1
 76 270 l 1xa0
EndSplineSet
EndChar

StartChar: underscore
Encoding: 95 95 510
Width: 600
Flags: MW
HStem: -174 126<60 540 60 540>
VStem: 60 480<-174 -48 -174 -48>
LayerCount: 2
Fore
SplineSet
60 -48 m 1
 540 -48 l 1
 540 -174 l 1
 60 -174 l 1
 60 -48 l 1
EndSplineSet
EndChar

StartChar: a
Encoding: 97 97 28
Width: 600
GlyphClass: 2
Flags: MW
HStem: -12 132<164 292> 0 21G<402 542 402 402> 222 102<370 370> 376 136<266 302>
VStem: 54 164<144.5 173 144.5 198> 370 172<158 222 222 222>
AnchorPoint: "Anchor-2" 312 -22 basechar 0
AnchorPoint: "Anchor-0" 306 522 basechar 0
LayerCount: 2
Fore
SplineSet
54 142 m 0x7c
 54 254 142 312 370 324 c 1
 364 360 330 376 274 376 c 0
 232 376 190 362 130 334 c 1
 70 446 l 1
 146 488 224 512 308 512 c 0
 450 512 542 442 542 278 c 2
 542 0 l 1
 402 0 l 1x7c
 390 52 l 1
 386 52 l 1
 337 16 278 -12 216 -12 c 0xbc
 112 -12 54 60 54 142 c 0x7c
218 156 m 0xbc
 218 133 236 120 272 120 c 0
 312 120 343 138 370 158 c 1
 370 222 l 1
 248 218 218 190 218 156 c 0xbc
EndSplineSet
Substitution2: "'ss02' Style Set 2 in Latin lookup 18 subtable" a.a
Substitution2: "'sups' Superscript in Latin lookup 12 subtable" a.sups
AlternateSubs2: "'aalt' Access All Alternates in Latin lookup 1 subtable" a.sups a.a
EndChar

StartChar: b
Encoding: 98 98 29
Width: 600
GlyphClass: 2
Flags: MW
HStem: -12 21G<322.5 399.5> -12 140<322.5 325 292.5 399.5> 0 21G<64 64 64 198> 372 140<294.5 419.5> 676 20G<64 236 236 236>
VStem: 64 172<152 152 152 336 534 696> 382 176<208 297>
AnchorPoint: "Anchor-2" 307 -22 basechar 0
AnchorPoint: "Anchor-0" 156 730 basechar 0
LayerCount: 2
Fore
SplineSet
64 0 m 1x3e
 64 696 l 1
 236 696 l 1
 236 534 l 1
 232 462 l 1
 268 494 314 512 359 512 c 0
 480 512 558 412 558 259 c 0
 558 86 454 -12 345 -12 c 0
 300 -12 255 10 216 54 c 1
 212 54 l 1x9e
 198 0 l 1
 64 0 l 1x3e
236 152 m 1x5e
 257 134 281 128 304 128 c 0
 346 128 382 160 382 256 c 0
 382 338 357 372 308 372 c 0
 281 372 260 362 236 336 c 1
 236 152 l 1x5e
EndSplineSet
Substitution2: "'sups' Superscript in Latin lookup 12 subtable" b.sups
Substitution2: "'aalt' Access All Alternates in Latin lookup 0 subtable" b.sups
EndChar

StartChar: c
Encoding: 99 99 30
Width: 600
GlyphClass: 2
Flags: MW
HStem: -12 138<324 375> 374 138<327.5 381>
VStem: 62 176<212 288 212 333>
AnchorPoint: "Anchor-2" 340 -22 basechar 0
AnchorPoint: "Anchor-1" 340 0 basechar 0
AnchorPoint: "Anchor-0" 340 522 basechar 0
LayerCount: 2
Fore
SplineSet
62 250 m 0
 62 416 200 512 355 512 c 0
 433 512 502 486 544 446 c 1
 466 340 l 1
 429 365 397 374 365 374 c 0
 290 374 238 326 238 250 c 0
 238 174 289 126 359 126 c 0
 408 126 449 147 483 168 c 1
 551 60 l 1
 489 9 408 -12 342 -12 c 0
 184 -12 62 84 62 250 c 0
EndSplineSet
Substitution2: "'sups' Superscript in Latin lookup 12 subtable" c.sups
Substitution2: "'aalt' Access All Alternates in Latin lookup 0 subtable" c.sups
EndChar

StartChar: d
Encoding: 100 100 31
Width: 600
GlyphClass: 2
Flags: MW
HStem: -12 140<271.5 273.5> 0 21G<396 536 396 396> 372 140<277 278.5 198.5 310> 492 20G<198.5 278.5> 676 20G<364 536 536 536>
VStem: 42 176<207 296 207 332> 364 172<164 348 348 348 534 696 0 696>
AnchorPoint: "Anchor-2" 310 -22 basechar 0
AnchorPoint: "Anchor-0" 438 730 basechar 0
LayerCount: 2
Fore
SplineSet
42 250 m 0x5e
 42 414 146 512 251 512 c 0
 306 512 339 492 370 462 c 1
 364 534 l 1
 364 696 l 1
 536 696 l 1
 536 0 l 1
 396 0 l 1x5e
 384 46 l 1
 380 46 l 1
 345 12 296 -12 251 -12 c 0x9e
 124 -12 42 88 42 250 c 0x5e
218 252 m 0xae
 218 162 247 128 296 128 c 0
 324 128 345 136 364 164 c 1
 364 348 l 1
 344 366 322 372 298 372 c 0
 256 372 218 340 218 252 c 0xae
EndSplineSet
Substitution2: "'sups' Superscript in Latin lookup 12 subtable" d.sups
Substitution2: "'aalt' Access All Alternates in Latin lookup 0 subtable" d.sups
EndChar

StartChar: e
Encoding: 101 101 32
Width: 600
GlyphClass: 2
Flags: MW
HStem: -12 130<323.5 361> 198 112<226 394 224 543 226 226> 382 130<294.5 345>
VStem: 394 156<310 330>
AnchorPoint: "Anchor-4" 404 0 basechar 0
AnchorPoint: "Anchor-2" 312 -22 basechar 0
AnchorPoint: "Anchor-0" 312 522 basechar 0
LayerCount: 2
Fore
SplineSet
50 250 m 0
 50 414 178 512 312 512 c 0
 470 512 550 404 550 270 c 0
 550 240 545 210 543 198 c 1
 226 198 l 1
 238 136 293 118 354 118 c 0
 394 118 430 128 474 148 c 1
 530 46 l 1
 470 8 392 -12 330 -12 c 0
 172 -12 50 84 50 250 c 0
224 310 m 1
 394 310 l 1
 394 350 374 382 316 382 c 0
 273 382 236 362 224 310 c 1
EndSplineSet
Substitution2: "'sups' Superscript in Latin lookup 12 subtable" e.sups
Substitution2: "'aalt' Access All Alternates in Latin lookup 0 subtable" e.sups
EndChar

StartChar: f
Encoding: 102 102 33
Width: 600
GlyphClass: 2
Flags: MW
HStem: 0 21G<202 374 202 202> 366 134<74 202 74 202 374 532> 574 134<429 464 352 474>
VStem: 202 172<0 366 0 366 500 502 0 558>
AnchorPoint: "Anchor-2" 294 -22 basechar 0
AnchorPoint: "Anchor-0" 410 741 basechar 0
LayerCount: 2
Fore
SplineSet
588 682 m 1
 556 556 l 1
 528 566 492 574 456 574 c 0
 402 574 374 555 374 502 c 2
 374 500 l 1
 532 500 l 1
 532 366 l 1
 374 366 l 1
 374 0 l 1
 202 0 l 1
 202 366 l 1
 74 366 l 1
 74 494 l 1
 202 500 l 1
 202 502 l 2
 202 614 270 708 434 708 c 0
 494 708 548 694 588 682 c 1
EndSplineSet
Substitution2: "'sups' Superscript in Latin lookup 12 subtable" f.sups
Substitution2: "'aalt' Access All Alternates in Latin lookup 0 subtable" f.sups
EndChar

StartChar: g
Encoding: 103 103 34
Width: 600
GlyphClass: 2
Flags: MW
HStem: -206 106<262.5 329.5 262.5 362.5> -24 130<282 284 284 334> 158 102<274 299.5 266.5 342.5> 376 124<480 570 480 480> 398 114<266.5 298 225 299.5>
VStem: 44 139<-70 -61.5> 62 161<306 353 306 392> 70 134<83 143> 344 150<306 334 265 353> 412 163<-68 -41>
AnchorPoint: "Anchor-2" 276 -229 basechar 0
AnchorPoint: "Anchor-0" 303 522 basechar 0
LayerCount: 2
Fore
SplineSet
183 -54 m 0xf440
 183 -86 229 -100 296 -100 c 0
 363 -100 412 -82 412 -54 c 0
 412 -28 384 -24 334 -24 c 2
 284 -24 l 2
 245 -24 225 -22 208 -18 c 1
 191 -30 183 -40 183 -54 c 0xf440
44 -82 m 0
 44 -41 70 -10 120 14 c 1
 120 18 l 1
 92 36 70 62 70 104 c 0xf180
 70 138 95 174 130 198 c 1
 130 202 l 1
 92 226 62 272 62 330 c 0
 62 454 167 512 283 512 c 0xea80
 313 512 343 508 368 500 c 1
 570 500 l 1
 570 376 l 1
 480 376 l 1
 487 364 494 344 494 324 c 0
 494 206 402 158 283 158 c 0
 265 158 244 160 220 165 c 1
 208 156 204 150 204 136 c 0
 204 114 226 106 282 106 c 2xf180
 367 106 l 2
 499 106 575 68 575 -24 c 0
 575 -132 456 -206 269 -206 c 0
 145 -206 44 -172 44 -82 c 0
283 260 m 0xea80
 316 260 344 282 344 330 c 0
 344 376 316 398 283 398 c 0
 250 398 223 376 223 330 c 0
 223 282 250 260 283 260 c 0xea80
EndSplineSet
Substitution2: "'ss03' Style Set 3 in Latin lookup 19 subtable" g.a
Substitution2: "'sups' Superscript in Latin lookup 12 subtable" g.sups
AlternateSubs2: "'aalt' Access All Alternates in Latin lookup 1 subtable" g.sups g.a
EndChar

StartChar: h
Encoding: 104 104 35
Width: 600
GlyphClass: 2
Flags: MW
HStem: 0 21G<64 64 64 236 374 374 374 546> 366 146<300 443> 676 20G<64 236 236 236>
VStem: 64 172<0 328 534 696> 374 172<0 286 286 308 0 314>
AnchorPoint: "Anchor-2" 305 -22 basechar 0
AnchorPoint: "Anchor-0" 151 730 basechar 0
LayerCount: 2
Fore
SplineSet
64 0 m 1
 64 696 l 1
 236 696 l 1
 236 534 l 1
 227 446 l 1
 260 478 314 512 388 512 c 0
 498 512 546 432 546 308 c 2
 546 0 l 1
 374 0 l 1
 374 286 l 2
 374 342 360 366 316 366 c 0
 284 366 262 352 236 328 c 1
 236 0 l 1
 64 0 l 1
EndSplineSet
Substitution2: "'sups' Superscript in Latin lookup 12 subtable" h.sups
Substitution2: "'aalt' Access All Alternates in Latin lookup 0 subtable" h.sups
EndChar

StartChar: i
Encoding: 105 105 36
Width: 600
GlyphClass: 2
Flags: MW
HStem: 0 21G<264 436 264 264> 366 134<74 436 74 264> 562 202<312 376>
VStem: 234 220<632 692> 264 172<0 366 366 366>
AnchorPoint: "Anchor-4" 396 0 basechar 0
AnchorPoint: "Anchor-2" 344 -22 basechar 0
AnchorPoint: "Anchor-0" 344 733 basechar 0
LayerCount: 2
Fore
SplineSet
74 366 m 1xe8
 74 500 l 1
 436 500 l 1
 436 0 l 1
 264 0 l 1
 264 366 l 1
 74 366 l 1xe8
344 562 m 0xf0
 280 562 234 602 234 662 c 0
 234 722 280 764 344 764 c 0
 408 764 454 722 454 662 c 0
 454 602 408 562 344 562 c 0xf0
EndSplineSet
Substitution2: "'sups' Superscript in Latin lookup 12 subtable" i.sups
Substitution2: "'aalt' Access All Alternates in Latin lookup 0 subtable" i.sups
EndChar

StartChar: j
Encoding: 106 106 37
Width: 600
GlyphClass: 2
Flags: MW
HStem: -188 134<170 213.5 170 289.5> 366 134<74 436 74 264> 562 202<312 376>
VStem: 234 220<632 692> 264 172<40 46 46 366 366 366>
AnchorPoint: "Anchor-2" 241 -237 basechar 0
AnchorPoint: "Anchor-0" 344 733 basechar 0
LayerCount: 2
Fore
SplineSet
74 366 m 1xe8
 74 500 l 1
 436 500 l 1
 436 46 l 2
 436 -76 384 -188 195 -188 c 0
 130 -188 81 -174 37 -154 c 1
 86 -32 l 1
 128 -50 157 -54 183 -54 c 0
 244 -54 264 -28 264 40 c 2
 264 366 l 1
 74 366 l 1xe8
344 562 m 0xf0
 280 562 234 602 234 662 c 0
 234 722 280 764 344 764 c 0
 408 764 454 722 454 662 c 0
 454 602 408 562 344 562 c 0xf0
EndSplineSet
Substitution2: "'sups' Superscript in Latin lookup 12 subtable" j.sups
Substitution2: "'aalt' Access All Alternates in Latin lookup 0 subtable" j.sups
EndChar

StartChar: k
Encoding: 107 107 38
Width: 600
GlyphClass: 2
Flags: MW
HStem: 0 21G<64 64 64 236 404 404 404 590> 480 20G<392 578 578 578> 676 20G<64 236 236 236>
VStem: 64 172<0 122 322 696>
AnchorPoint: "Anchor-2" 320 -22 basechar 0
AnchorPoint: "Anchor-0" 162 730 basechar 0
LayerCount: 2
Fore
SplineSet
64 0 m 1
 64 696 l 1
 236 696 l 1
 236 322 l 1
 240 322 l 1
 392 500 l 1
 578 500 l 1
 393 292 l 1
 590 0 l 1
 404 0 l 1
 294 186 l 1
 236 122 l 1
 236 0 l 1
 64 0 l 1
EndSplineSet
Substitution2: "'sups' Superscript in Latin lookup 12 subtable" k.sups
Substitution2: "'aalt' Access All Alternates in Latin lookup 0 subtable" k.sups
EndChar

StartChar: l
Encoding: 108 108 39
Width: 600
GlyphClass: 2
Flags: MW
HStem: -12 138<419.5 423.5> 562 134<54 362 54 190>
VStem: 190 172<206 562 562 562>
AnchorPoint: "Anchor-2" 358 -22 basechar 0
AnchorPoint: "Anchor-0" 266 730 basechar 0
LayerCount: 2
Fore
SplineSet
54 562 m 1
 54 696 l 1
 362 696 l 1
 362 200 l 2
 362 142 402 126 437 126 c 0
 458 126 480 130 509 140 c 1
 546 14 l 1
 492 -2 456 -12 391 -12 c 0
 258 -12 190 76 190 206 c 2
 190 562 l 1
 54 562 l 1
EndSplineSet
Substitution2: "'sups' Superscript in Latin lookup 12 subtable" l.sups
Substitution2: "'aalt' Access All Alternates in Latin lookup 0 subtable" l.sups
EndChar

StartChar: m
Encoding: 109 109 40
Width: 600
GlyphClass: 2
Flags: MW
HStem: 0 21G<26 26 26 188 238 238 238 368 418 418 418 580> 366 146<212 297.5 247.5 407.5> 480 20G<26 155 155 155> 492 20G<247.5 297.5 440 503>
VStem: 26 162<0 328 0 500> 238 130<0 328 0 336 0 346.5> 418 162<0 336 336 346.5>
CounterMasks: 1 0e
AnchorPoint: "Anchor-2" 302 -22 basechar 0
AnchorPoint: "Anchor-0" 324 524 basechar 0
LayerCount: 2
Fore
SplineSet
26 0 m 1x9e
 26 500 l 1
 155 500 l 1xae
 167 439 l 1
 171 439 l 1
 188 478 218 512 277 512 c 0
 318 512 350 484 361 432 c 1
 375 474 412 512 468 512 c 0
 538 512 580 448 580 348 c 2
 580 0 l 1
 418 0 l 1
 418 336 l 2
 418 357 414 366 401 366 c 0
 388 366 377 354 368 328 c 1
 368 0 l 1
 238 0 l 1
 238 336 l 2
 238 357 231 366 218 366 c 0
 206 366 197 354 188 328 c 1xce
 188 0 l 1
 26 0 l 1x9e
EndSplineSet
Substitution2: "'sups' Superscript in Latin lookup 12 subtable" m.sups
Substitution2: "'aalt' Access All Alternates in Latin lookup 0 subtable" m.sups
EndChar

StartChar: n
Encoding: 110 110 41
Width: 600
GlyphClass: 2
Flags: MW
HStem: 0 21G<64 64 64 236 374 374 374 546> 366 146<300 442.5> 480 20G<64 204 204 204>
VStem: 64 172<0 328 0 500> 374 172<0 286 286 308 0 314>
AnchorPoint: "Anchor-2" 304 -22 basechar 0
AnchorPoint: "Anchor-0" 314 522 basechar 0
LayerCount: 2
Fore
SplineSet
64 0 m 1xb8
 64 500 l 1
 204 500 l 1xb8
 216 440 l 1
 220 440 l 1
 260 478 314 512 387 512 c 0
 498 512 546 432 546 308 c 2
 546 0 l 1
 374 0 l 1
 374 286 l 2
 374 342 360 366 316 366 c 0
 284 366 262 352 236 328 c 1xd8
 236 0 l 1
 64 0 l 1xb8
EndSplineSet
Substitution2: "'sups' Superscript in Latin lookup 12 subtable" n.sups
Substitution2: "'aalt' Access All Alternates in Latin lookup 0 subtable" n.sups
EndChar

StartChar: o
Encoding: 111 111 42
Width: 600
GlyphClass: 2
Flags: MW
HStem: -12 138<271 329 271 366> 374 138<271 329>
VStem: 42 176<212 288 212 333> 382 176<212 288>
AnchorPoint: "Anchor-4" 354 0 basechar 0
AnchorPoint: "Anchor-3" 414 500 basechar 0
AnchorPoint: "Anchor-2" 300 -22 basechar 0
AnchorPoint: "Anchor-0" 300 522 basechar 0
LayerCount: 2
Fore
SplineSet
42 250 m 0
 42 416 168 512 300 512 c 0
 432 512 558 416 558 250 c 0
 558 84 432 -12 300 -12 c 0
 168 -12 42 84 42 250 c 0
218 250 m 0
 218 174 242 126 300 126 c 0
 358 126 382 174 382 250 c 0
 382 326 358 374 300 374 c 0
 242 374 218 326 218 250 c 0
EndSplineSet
Substitution2: "'sups' Superscript in Latin lookup 12 subtable" o.sups
Substitution2: "'aalt' Access All Alternates in Latin lookup 0 subtable" o.sups
EndChar

StartChar: p
Encoding: 112 112 43
Width: 600
GlyphClass: 2
Flags: MW
HStem: -176 21G<64 236 64 64> -12 21G<323.5 399.5> -12 140<323.5 325 292.5 399.5> 372 140<294.5 420.5> 480 20G<64 204 204 204>
VStem: 64 172<-176 -38 152 336> 382 176<208 297>
AnchorPoint: "Anchor-2" 145 -218 basechar 0
AnchorPoint: "Anchor-0" 324 522 basechar 0
LayerCount: 2
Fore
SplineSet
230 38 m 1xce
 236 -38 l 1
 236 -176 l 1
 64 -176 l 1
 64 500 l 1
 204 500 l 1xce
 216 454 l 1
 220 454 l 1
 258 488 309 512 360 512 c 0xd6
 481 512 558 412 558 258 c 0
 558 86 454 -12 345 -12 c 0
 302 -12 263 6 230 38 c 1xce
236 152 m 1xb6
 257 134 281 128 304 128 c 0
 346 128 382 160 382 256 c 0
 382 338 357 372 308 372 c 0
 281 372 260 362 236 336 c 1
 236 152 l 1xb6
EndSplineSet
Substitution2: "'sups' Superscript in Latin lookup 12 subtable" p.sups
Substitution2: "'aalt' Access All Alternates in Latin lookup 0 subtable" p.sups
EndChar

StartChar: q
Encoding: 113 113 44
Width: 600
GlyphClass: 2
Flags: MW
HStem: -176 21G<364 536 364 364> -12 140<187.5 310> 372 140<277 278 198.5 310> 480 20G<402 536 536 536> 492 20G<198.5 278>
VStem: 42 176<207 296 207 332> 364 172<-176 -33 -33 -33 164 348 348 348>
AnchorPoint: "Anchor-2" 443 -218 basechar 0
AnchorPoint: "Anchor-0" 309 522 basechar 0
LayerCount: 2
Fore
SplineSet
42 250 m 0xce
 42 414 146 512 251 512 c 0
 305 512 345 494 384 450 c 1
 388 450 l 1xce
 402 500 l 1
 536 500 l 1xd6
 536 -176 l 1
 364 -176 l 1
 364 -33 l 1
 371 38 l 1
 339 8 292 -12 251 -12 c 0
 124 -12 42 88 42 250 c 0xce
218 252 m 0
 218 162 247 128 296 128 c 0
 324 128 345 136 364 164 c 1
 364 348 l 1
 344 366 322 372 298 372 c 0xe6
 256 372 218 340 218 252 c 0
EndSplineSet
Substitution2: "'sups' Superscript in Latin lookup 12 subtable" q.sups
Substitution2: "'aalt' Access All Alternates in Latin lookup 0 subtable" q.sups
EndChar

StartChar: r
Encoding: 114 114 45
Width: 600
GlyphClass: 2
Flags: MW
HStem: 0 21G<104 104 104 276> 362 150<419.5 449> 480 20G<104 245 245 245> 492 20
VStem: 104 172<0 248 0 500>
AnchorPoint: "Anchor-2" 204 -22 basechar 0
AnchorPoint: "Anchor-0" 338 522 basechar 0
LayerCount: 2
Fore
SplineSet
104 0 m 1x98
 104 500 l 1
 245 500 l 1xa8
 258 394 l 1
 262 394 l 1
 310 476 382 512 457 512 c 0
 503 512 524 504 552 492 c 1x98
 518 348 l 1
 488 357 467 362 431 362 c 0xc8
 374 362 313 332 276 248 c 1
 276 0 l 1
 104 0 l 1x98
EndSplineSet
Substitution2: "'sups' Superscript in Latin lookup 12 subtable" r.sups
Substitution2: "'aalt' Access All Alternates in Latin lookup 0 subtable" r.sups
EndChar

StartChar: t
Encoding: 116 116 47
Width: 600
GlyphClass: 2
Flags: MW
HStem: -12 134<399 420> 366 134<42 170 42 170 334 532>
VStem: 162 172<212 215 215 366 179.5 366>
AnchorPoint: "Anchor-2" 364 -22 basechar 0
AnchorPoint: "Anchor-1" 372 0 basechar 0
AnchorPoint: "Anchor-0" 266 664 basechar 0
LayerCount: 2
Fore
SplineSet
162 212 m 2
 162 366 l 1
 42 366 l 1
 42 494 l 1
 170 500 l 1
 192 630 l 1
 334 630 l 1
 334 500 l 1
 532 500 l 1
 532 366 l 1
 334 366 l 1
 334 215 l 2
 334 144 367 122 431 122 c 0
 465 122 495 129 522 138 c 1
 552 14 l 1
 508 2 454 -12 386 -12 c 0
 222 -12 162 78 162 212 c 2
EndSplineSet
Substitution2: "'sups' Superscript in Latin lookup 12 subtable" t.sups
Substitution2: "'aalt' Access All Alternates in Latin lookup 0 subtable" t.sups
EndChar

StartChar: u
Encoding: 117 117 48
Width: 600
GlyphClass: 2
Flags: MW
HStem: -12 146<158 299.5> 0 21G<392 532 392 392> 480 20G<56 228 228 228 360 532 532 532>
VStem: 56 172<192 214 214 500> 360 172<178 500 0 500>
AnchorPoint: "Anchor-2" 318 -22 basechar 0
AnchorPoint: "Anchor-0" 296 522 basechar 0
LayerCount: 2
Fore
SplineSet
532 500 m 1x78
 532 0 l 1
 392 0 l 1x78
 380 66 l 1
 376 66 l 1
 334 18 284 -12 214 -12 c 0
 102 -12 56 68 56 192 c 2
 56 500 l 1
 228 500 l 1
 228 214 l 2
 228 158 240 134 285 134 c 0
 314 134 334 142 360 178 c 1xb8
 360 500 l 1
 532 500 l 1x78
EndSplineSet
Substitution2: "'sups' Superscript in Latin lookup 12 subtable" u.sups
Substitution2: "'aalt' Access All Alternates in Latin lookup 0 subtable" u.sups
EndChar

StartChar: v
Encoding: 118 118 49
Width: 600
GlyphClass: 2
Flags: MW
HStem: 0 126<204 306 302 306 302 402> 480 20G<24 196 196 196 412 576 576 576>
VStem: 24 552<500 500>
AnchorPoint: "Anchor-2" 302 -22 basechar 0
AnchorPoint: "Anchor-0" 302 522 basechar 0
LayerCount: 2
Fore
SplineSet
204 0 m 1
 24 500 l 1
 196 500 l 1
 261 282 l 2
 276 232 288 180 302 126 c 1
 306 126 l 1
 320 180 332 232 347 282 c 2
 412 500 l 1
 576 500 l 1
 402 0 l 1
 204 0 l 1
EndSplineSet
Substitution2: "'sups' Superscript in Latin lookup 12 subtable" v.sups
Substitution2: "'aalt' Access All Alternates in Latin lookup 0 subtable" v.sups
EndChar

StartChar: w
Encoding: 119 119 50
Width: 600
GlyphClass: 2
Flags: MW
HStem: 0 138<74 205 202 205 202 268 202 334 407 411> 282 138<298 302 298 298> 480 20G<2 170 170 170 442 598 598 598>
VStem: 2 596<500 500>
AnchorPoint: "Anchor-2" 301 -22 basechar 0
AnchorPoint: "Anchor-0" 301 522 basechar 0
LayerCount: 2
Fore
SplineSet
74 0 m 1
 2 500 l 1
 170 500 l 1
 189 290 l 1
 195 240 196 190 202 138 c 1
 205 138 l 1
 210 190 216 242 226 290 c 1
 246 420 l 1
 362 420 l 1
 384 290 l 2
 393 240 400 190 407 138 c 1
 411 138 l 1
 417 190 417 240 423 290 c 1
 442 500 l 1
 598 500 l 1
 532 0 l 1
 334 0 l 1
 318 134 l 2
 312 180 307 227 302 282 c 1
 298 282 l 1
 295 248 292 207 284 134 c 2
 268 0 l 1
 74 0 l 1
EndSplineSet
Substitution2: "'sups' Superscript in Latin lookup 12 subtable" w.sups
Substitution2: "'aalt' Access All Alternates in Latin lookup 0 subtable" w.sups
EndChar

StartChar: x
Encoding: 120 120 51
Width: 600
GlyphClass: 2
Flags: MW
HStem: 0 21G<27 27 27 206 388 388 388 572> 480 20G<37 221 221 221 384 563 563 563>
VStem: 27 545<0 0>
AnchorPoint: "Anchor-2" 300 -22 basechar 0
AnchorPoint: "Anchor-0" 300 522 basechar 0
LayerCount: 2
Fore
SplineSet
27 0 m 1
 194 260 l 1
 37 500 l 1
 221 500 l 1
 262 430 l 1
 276 402 296 372 311 344 c 1
 315 344 l 1
 326 372 340 402 351 430 c 1
 384 500 l 1
 563 500 l 1
 405 240 l 1
 572 0 l 1
 388 0 l 1
 342 70 l 1
 325 98 305 128 288 156 c 1
 284 156 l 1
 271 128 256 99 243 70 c 1
 206 0 l 1
 27 0 l 1
EndSplineSet
Substitution2: "'sups' Superscript in Latin lookup 12 subtable" x.sups
Substitution2: "'aalt' Access All Alternates in Latin lookup 0 subtable" x.sups
EndChar

StartChar: y
Encoding: 121 121 52
Width: 600
GlyphClass: 2
Flags: MW
HStem: -188 134<131.5 159.5 127.5 212.5> -178 21G<67 67> 480 20G<24 194 194 194 416 578 578 578>
VStem: 24 554<500 500>
AnchorPoint: "Anchor-2" 267 -241 basechar 0
AnchorPoint: "Anchor-0" 308 522 basechar 0
LayerCount: 2
Fore
SplineSet
97 -48 m 1xb0
 110 -52 122 -54 133 -54 c 0
 186 -54 213 -34 226 -4 c 1
 234 18 l 1
 24 500 l 1
 194 500 l 1
 264 308 l 2
 281 260 295 210 309 156 c 1
 313 156 l 1
 325 207 341 258 356 308 c 2
 416 500 l 1
 578 500 l 1
 390 8 l 1
 337 -127 278 -188 147 -188 c 0xb0
 116 -188 90 -184 67 -178 c 1x70
 97 -48 l 1xb0
EndSplineSet
Substitution2: "'sups' Superscript in Latin lookup 12 subtable" y.sups
Substitution2: "'aalt' Access All Alternates in Latin lookup 0 subtable" y.sups
EndChar

StartChar: z
Encoding: 122 122 53
Width: 600
GlyphClass: 2
Flags: MW
HStem: 0 134<306 545 306 545> 366 134<99 301 99 538>
VStem: 70 475<0 92 92 92>
AnchorPoint: "Anchor-2" 318 -22 basechar 0
AnchorPoint: "Anchor-0" 324 522 basechar 0
LayerCount: 2
Fore
SplineSet
70 0 m 1
 70 92 l 1
 301 366 l 1
 99 366 l 1
 99 500 l 1
 538 500 l 1
 538 408 l 1
 306 134 l 1
 545 134 l 1
 545 0 l 1
 70 0 l 1
EndSplineSet
Substitution2: "'sups' Superscript in Latin lookup 12 subtable" z.sups
Substitution2: "'aalt' Access All Alternates in Latin lookup 0 subtable" z.sups
EndChar

StartChar: braceleft
Encoding: 123 123 515
Width: 600
Flags: MW
HStem: -152 90<346 494 457 494 457 494> 228 100<100 100> 618 90<419 457 457 494>
VStem: 100 164<276 280 276 328 276 328> 224 144<-61 196>
LayerCount: 2
Fore
SplineSet
224 -6 m 0xe8
 224 64 234 94 234 156 c 0xe8
 234 190 204 226 100 228 c 1
 100 328 l 1xf0
 204 330 234 366 234 400 c 0
 234 462 224 492 224 562 c 0
 224 672 281 708 411 708 c 2
 494 708 l 1
 494 618 l 1
 457 618 l 2
 381 618 364 608 364 556 c 0
 364 505 368 458 368 400 c 0
 368 320 337 292 264 280 c 1
 264 276 l 1
 337 264 368 236 368 156 c 0
 368 98 364 51 364 0 c 0
 364 -52 381 -62 457 -62 c 2
 494 -62 l 1
 494 -152 l 1
 411 -152 l 2
 281 -152 224 -116 224 -6 c 0xe8
EndSplineSet
EndChar

StartChar: bar
Encoding: 124 124 518
Width: 600
Flags: MW
HStem: -250 1000<224 376 224 376>
VStem: 224 152<-250 750 -250 750>
LayerCount: 2
Fore
SplineSet
224 -250 m 1
 224 750 l 1
 376 750 l 1
 376 -250 l 1
 224 -250 l 1
EndSplineSet
EndChar

StartChar: braceright
Encoding: 125 125 516
Width: 600
Flags: MW
HStem: -152 90<107 144 144 181.5 107 190 107 144> 228 100<501 501> 618 90<107 144 107 190>
VStem: 233 144<-61 196> 337 164<276 280 280 280>
LayerCount: 2
Fore
SplineSet
107 -62 m 1xf0
 144 -62 l 2
 219 -62 236 -52 236 0 c 0
 236 51 233 98 233 156 c 0
 233 236 264 264 337 276 c 1
 337 280 l 1
 264 292 233 320 233 400 c 0
 233 458 236 505 236 556 c 0
 236 608 219 618 144 618 c 2
 107 618 l 1
 107 708 l 1
 190 708 l 2
 320 708 377 672 377 562 c 0
 377 492 366 462 366 400 c 0xf0
 366 366 396 330 501 328 c 1xe8
 501 228 l 1
 396 226 366 190 366 156 c 0
 366 94 377 64 377 -6 c 0
 377 -116 320 -152 190 -152 c 2
 107 -152 l 1
 107 -62 l 1xf0
EndSplineSet
EndChar

StartChar: asciitilde
Encoding: 126 126 673
Width: 600
Flags: MW
HStem: 234 120<359 399.5 359 417> 306 120<201 241>
VStem: 42 516<274 386>
LayerCount: 2
Fore
SplineSet
144 226 m 1x60
 42 274 l 1
 88 382 150 426 216 426 c 0x60
 300 426 332 354 386 354 c 0
 413 354 438 384 456 434 c 1
 558 386 l 1
 512 278 450 234 384 234 c 0xa0
 300 234 268 306 214 306 c 0
 188 306 162 276 144 226 c 1x60
EndSplineSet
EndChar

StartChar: exclamdown
Encoding: 161 161 487
Width: 600
Flags: MW
HStem: 292 220<268 332> 492 20G<268 332>
VStem: 190 220<369 433> 217 166
LayerCount: 2
Fore
SplineSet
356 236 m 1x60
 380 -22 l 1
 386 -170 l 1
 214 -170 l 1
 220 -22 l 1
 244 236 l 1x50
 356 236 l 1x60
410 401 m 0xa0
 410 337 364 292 300 292 c 0
 236 292 190 337 190 401 c 0
 190 465 236 512 300 512 c 0
 364 512 410 465 410 401 c 0xa0
EndSplineSet
EndChar

StartChar: cent
Encoding: 162 162 634
Width: 600
Flags: MW
HStem: -44 700<310 402 310 402>
VStem: 90 166<281.5 330.5 281.5 377> 310 92<-44 47 -44 47 199 413 413 413 567 656>
LayerCount: 2
Fore
SplineSet
310 199 m 1
 310 413 l 1
 273 393 256 355 256 306 c 0
 256 257 275 219 310 199 c 1
462 214 m 1
 530 106 l 1
 492 73 445 54 402 47 c 1
 402 -44 l 1
 310 -44 l 1
 310 47 l 1
 176 66 90 158 90 306 c 0
 90 448 182 539 310 562 c 1
 310 656 l 1
 402 656 l 1
 402 567 l 1
 452 562 495 541 524 512 c 1
 446 406 l 1
 430 419 416 426 402 429 c 1
 402 184 l 1
 425 189 445 201 462 214 c 1
EndSplineSet
EndChar

StartChar: sterling
Encoding: 163 163 631
Width: 600
Flags: MW
HStem: 0 144<281 557 281 557> 266 104<145 145 145 177 68 145 326 326 326 462> 508 138<357 399.5>
VStem: 131 163<422.5 453 413.5 498> 178 149<228.5 251 228.5 252.5>
LayerCount: 2
Fore
SplineSet
281 148 m 1xe8
 281 144 l 1
 557 144 l 1
 557 0 l 1
 63 0 l 1
 63 106 l 1
 126 130 178 180 178 250 c 0
 178 255 178 261 177 266 c 1xe8
 68 266 l 1
 68 364 l 1
 145 370 l 1
 137 391 131 413 131 432 c 0
 131 564 231 646 367 646 c 0
 448 646 507 618 557 562 c 1
 465 470 l 1
 440 496 415 508 384 508 c 0
 330 508 294 484 294 422 c 0
 294 405 297 388 302 370 c 1xf0
 462 370 l 1
 462 266 l 1
 326 266 l 1
 327 260 327 254 327 248 c 0
 327 209 314 182 281 148 c 1xe8
EndSplineSet
EndChar

StartChar: currency
Encoding: 164 164 629
Width: 600
Flags: MW
HStem: 147 99<203 321 279 397> 414 98<202 321>
VStem: 74 152<308.5 351> 374 152<308.5 351 308.5 356>
LayerCount: 2
Fore
SplineSet
112 56 m 1
 27 141 l 1
 107 221 l 1
 86 251 74 287 74 330 c 0
 74 372 86 408 106 437 c 1
 27 517 l 1
 112 602 l 1
 202 512 l 1
 233 525 267 532 300 532 c 0
 333 532 367 525 398 512 c 1
 488 602 l 1
 573 517 l 1
 493 437 l 1
 514 408 526 372 526 330 c 0
 526 287 513 251 492 221 c 1
 573 141 l 1
 488 56 l 1
 397 147 l 1
 366 134 332 128 300 128 c 0
 267 128 234 134 203 147 c 1
 112 56 l 1
226 330 m 0
 226 278 258 246 300 246 c 0
 342 246 374 278 374 330 c 0
 374 382 342 414 300 414 c 0
 258 414 226 382 226 330 c 0
EndSplineSet
EndChar

StartChar: yen
Encoding: 165 165 632
Width: 600
Flags: MW
HStem: 0 222<50 386 50 214> 142 80<50 214 50 214 386 550> 272 80<50 177 50 214 50 177 423 550> 614 20G<23 199 199 199 405 577 577 577>
VStem: 214 172<0 142 0 142 222 272 0 272>
LayerCount: 2
Fore
SplineSet
23 634 m 1x78
 199 634 l 1
 248 516 l 2
 266 472 282 428 300 386 c 1
 304 386 l 1
 321 429 339 473 356 516 c 2
 405 634 l 1
 577 634 l 1
 423 352 l 1
 550 352 l 1
 550 272 l 1
 386 272 l 1
 386 222 l 1
 550 222 l 1
 550 142 l 1
 386 142 l 1x78
 386 0 l 1
 214 0 l 1xb8
 214 142 l 1
 50 142 l 1
 50 222 l 1
 214 222 l 1
 214 272 l 1
 50 272 l 1
 50 352 l 1
 177 352 l 1
 23 634 l 1x78
EndSplineSet
EndChar

StartChar: brokenbar
Encoding: 166 166 520
Width: 600
Flags: MW
HStem: -250 1000<224 376 224 376>
VStem: 224 152<-250 200 -250 200 320 750>
LayerCount: 2
Fore
SplineSet
224 320 m 1
 224 750 l 1
 376 750 l 1
 376 320 l 1
 224 320 l 1
224 200 m 1
 376 200 l 1
 376 -250 l 1
 224 -250 l 1
 224 200 l 1
EndSplineSet
EndChar

StartChar: section
Encoding: 167 167 524
Width: 600
Flags: MW
HStem: -92 126<255 290 255 340.5> -2 21G<70 70> 566 126<297.5 327.5>
VStem: 64 144<305.5 341.5 305.5 343> 114 154<513 547 508 579> 322 154<56 89 27 98> 392 144<260 297>
LayerCount: 2
Fore
SplineSet
208 332 m 0x72
 208 279 293 259 367 221 c 1
 384 234 392 250 392 270 c 0
 392 324 309 344 233 380 c 1
 216 367 208 351 208 332 c 0x72
492 624 m 1
 414 518 l 1
 383 545 343 566 312 566 c 0
 283 566 268 558 268 536 c 0
 268 480 536 464 536 284 c 0x6a
 536 228 508 183 455 149 c 1
 468 129 476 104 476 74 c 0
 476 -20 409 -92 272 -92 c 0xb4
 198 -92 116 -64 70 -2 c 1x72
 168 84 l 1
 200 50 238 34 272 34 c 0
 308 34 322 46 322 66 c 0
 322 130 64 130 64 320 c 0xb4
 64 366 93 416 141 447 c 1
 124 469 114 496 114 530 c 0x6a
 114 628 185 692 302 692 c 0
 384 692 450 657 492 624 c 1
EndSplineSet
EndChar

StartChar: dieresis
Encoding: 168 168 725
Width: 600
Flags: MW
HStem: 564 176<160 212 388 440>
VStem: 98 176<627 677> 326 176<627 677>
LayerCount: 2
Fore
SplineSet
186 564 m 0
 134 564 98 602 98 652 c 0
 98 702 134 740 186 740 c 0
 238 740 274 702 274 652 c 0
 274 602 238 564 186 564 c 0
414 564 m 0
 362 564 326 602 326 652 c 0
 326 702 362 740 414 740 c 0
 466 740 502 702 502 652 c 0
 502 602 466 564 414 564 c 0
EndSplineSet
EndChar

StartChar: copyright
Encoding: 169 169 526
Width: 600
Flags: MW
HStem: -8 68<236 364 236 376> 128 98<299 329 299 334.5> 420 98<301.5 332> 588 68<236 364>
VStem: 14 72<246 406 246 430> 136 121<294 350 294 383> 514 72<246 406>
LayerCount: 2
Fore
SplineSet
14 326 m 0
 14 534 148 656 300 656 c 0
 452 656 586 534 586 326 c 0
 586 118 452 -8 300 -8 c 0
 148 -8 14 118 14 326 c 0
86 326 m 0
 86 166 172 60 300 60 c 0
 428 60 514 166 514 326 c 0
 514 486 428 588 300 588 c 0
 172 588 86 486 86 326 c 0
136 324 m 0
 136 442 220 518 312 518 c 0
 366 518 400 495 428 468 c 1
 365 398 l 1
 352 412 340 420 324 420 c 0
 279 420 257 376 257 324 c 0
 257 264 280 226 318 226 c 0
 340 226 352 234 370 246 c 1
 424 168 l 1
 392 144 355 128 314 128 c 0
 210 128 136 204 136 324 c 0
EndSplineSet
EndChar

StartChar: guillemotleft
Encoding: 171 171 500
Width: 600
Flags: MW
HStem: 14 476<204 204 204 484>
VStem: 26 530<78 338 78 338>
LayerCount: 2
Fore
SplineSet
204 14 m 1
 26 166 l 1
 26 338 l 1
 204 490 l 1
 276 426 l 1
 148 252 l 1
 276 78 l 1
 204 14 l 1
484 14 m 1
 306 166 l 1
 306 338 l 1
 484 490 l 1
 556 426 l 1
 428 252 l 1
 556 78 l 1
 484 14 l 1
EndSplineSet
EndChar

StartChar: logicalnot
Encoding: 172 172 675
Width: 600
Flags: MW
HStem: 270 120<64 536 64 412>
VStem: 412 124<90 270 270 270>
LayerCount: 2
Fore
SplineSet
64 270 m 1
 64 390 l 1
 536 390 l 1
 536 90 l 1
 412 90 l 1
 412 270 l 1
 64 270 l 1
EndSplineSet
EndChar

StartChar: uni00AD
Encoding: 173 173 503
Width: 600
Flags: MW
HStem: 270 120<64 536 64 536>
VStem: 64 472<270 390 270 390>
LayerCount: 2
Fore
SplineSet
64 270 m 1
 64 390 l 1
 536 390 l 1
 536 270 l 1
 64 270 l 1
EndSplineSet
Substitution2: "'ss01' Style Set 1 in Latin lookup 17 subtable" uni00AD.a
Substitution2: "'aalt' Access All Alternates in Latin lookup 0 subtable" uni00AD.a
EndChar

StartChar: registered
Encoding: 174 174 528
Width: 600
Flags: MW
HStem: 308 54<257 341 257 355> 472 43<279 297 297 303 279 297> 563 47<279 297 279 279> 662 54<257 341>
VStem: 97 60<466 558 466 571> 215 64<416 472 515 563> 323 68<534 546.5> 441 60<466 558>
LayerCount: 2
Fore
SplineSet
299 308 m 0
 187 308 97 394 97 512 c 0
 97 630 187 716 299 716 c 0
 411 716 501 630 501 512 c 0
 501 394 411 308 299 308 c 0
299 362 m 0
 383 362 441 420 441 512 c 0
 441 604 383 662 299 662 c 0
 215 662 157 604 157 512 c 0
 157 420 215 362 299 362 c 0
215 416 m 1
 215 610 l 1
 309 610 l 2
 357 610 391 588 391 544 c 0
 391 522 381 502 357 490 c 1
 397 416 l 1
 331 416 l 1
 303 472 l 1
 279 472 l 1
 279 416 l 1
 215 416 l 1
279 515 m 1
 297 515 l 2
 315 515 323 528 323 540 c 0
 323 553 313 563 297 563 c 2
 279 563 l 1
 279 515 l 1
EndSplineSet
EndChar

StartChar: degree
Encoding: 176 176 628
Width: 600
Flags: MW
HStem: 386 80<282 320 282 344> 606 80<282 320>
VStem: 149 88<515 557 515 579> 365 88<515 557>
LayerCount: 2
Fore
SplineSet
301 386 m 0
 215 386 149 450 149 536 c 0
 149 622 215 686 301 686 c 0
 387 686 453 622 453 536 c 0
 453 450 387 386 301 386 c 0
301 466 m 0
 339 466 365 494 365 536 c 0
 365 578 339 606 301 606 c 0
 263 606 237 578 237 536 c 0
 237 494 263 466 301 466 c 0
EndSplineSet
EndChar

StartChar: plusminus
Encoding: 177 177 670
Width: 600
Flags: MW
HStem: 0 120<64 536 64 536> 290 120<64 238 64 238 362 536>
VStem: 238 124<170 290 170 290 410 570>
LayerCount: 2
Fore
SplineSet
238 170 m 1
 238 290 l 1
 64 290 l 1
 64 410 l 1
 238 410 l 1
 238 570 l 1
 362 570 l 1
 362 410 l 1
 536 410 l 1
 536 290 l 1
 362 290 l 1
 362 170 l 1
 238 170 l 1
64 0 m 1
 64 120 l 1
 536 120 l 1
 536 0 l 1
 64 0 l 1
EndSplineSet
EndChar

StartChar: two.sups
Encoding: 178 178 540
Width: 600
Flags: MW
HStem: 440 100<361 437 361 437> 668 98<263.5 283.5>
VStem: 168 269<440 503 503 503> 309 118<634.5 643.5>
LayerCount: 2
Fore
SplineSet
168 440 m 1xa0
 168 503 l 1xa0
 242 547 309 603 309 633 c 0
 309 654 296 668 271 668 c 0
 256 668 238 657 222 636 c 1
 152 700 l 1
 192 740 235 766 291 766 c 0
 373 766 427 724 427 656 c 0
 427 613 393 571 361 540 c 1xd0
 437 540 l 1
 437 440 l 1
 168 440 l 1xa0
EndSplineSet
EndChar

StartChar: three.sups
Encoding: 179 179 541
Width: 600
Flags: MW
HStem: 428 90<282 295 273.5 339> 569 62<256 271.5 256 278.5> 676 90<276 286>
VStem: 256 172<569 702.5 631 702.5> 320 120<533 548 501 549.5>
LayerCount: 2
Fore
SplineSet
162 465 m 1xf0
 207 541 l 1
 228 530 261 518 286 518 c 0
 304 518 320 526 320 540 c 0xe8
 320 559 301 569 256 569 c 1
 256 631 l 1
 287 631 308 634 308 656 c 0
 308 668 296 676 276 676 c 0
 254 676 233 664 213 654 c 1
 166 726 l 1
 198 749 247 766 305 766 c 0
 372 766 428 729 428 676 c 0
 428 640 416 620 375 606 c 1
 424 592 440 566 440 530 c 0
 440 472 376 428 302 428 c 0
 262 428 214 430 162 465 c 1xf0
EndSplineSet
EndChar

StartChar: uni00B5
Encoding: 181 181 678
Width: 600
Flags: MW
HStem: -12 138<479 563> -6 140<265 294>
VStem: 56 172<182 214 214 500> 360 162<198 205 153 500>
LayerCount: 2
Fore
SplineSet
56 -200 m 1x70
 56 500 l 1
 228 500 l 1
 228 214 l 2
 228 150 248 134 282 134 c 0
 316 134 339 155 360 198 c 1x70
 360 500 l 1
 534 500 l 1
 528 390 522 240 522 170 c 0
 522 136 538 126 560 126 c 0
 566 126 570 126 578 128 c 1
 598 2 l 1
 580 -6 551 -12 514 -12 c 0xb0
 444 -12 401 20 380 76 c 1
 376 76 l 1
 354 24 316 -6 272 -6 c 0
 254 -6 232 -4 218 8 c 1
 220 -63 222 -128 230 -200 c 1
 56 -200 l 1x70
EndSplineSet
EndChar

StartChar: paragraph
Encoding: 182 182 525
Width: 600
Flags: MW
HStem: 630 20G<278 319 319 319 370 542 542 542>
VStem: 38 281<346.5 510> 370 172<-80 650 -80 650>
LayerCount: 2
Fore
SplineSet
370 -80 m 1
 370 650 l 1
 542 650 l 1
 542 -80 l 1
 370 -80 l 1
319 650 m 1
 319 186 l 1
 277 186 l 2
 150 186 38 269 38 424 c 0
 38 596 150 650 278 650 c 2
 319 650 l 1
EndSplineSet
EndChar

StartChar: periodcentered
Encoding: 183 183 508
Width: 600
Flags: MW
HStem: 226 260<261 339>
VStem: 170 260<320 391.5>
LayerCount: 2
Fore
SplineSet
170 356 m 0
 170 427 222 486 300 486 c 0
 378 486 430 427 430 356 c 0
 430 284 378 226 300 226 c 0
 222 226 170 284 170 356 c 0
EndSplineSet
EndChar

StartChar: cedilla
Encoding: 184 184 731
Width: 600
Flags: MW
HStem: -224 66<190 202> -40 44<334 334>
VStem: 270 122<-129 -109>
LayerCount: 2
Fore
SplineSet
214 -76 m 1
 254 4 l 1
 352 4 l 1
 334 -40 l 1
 368 -52 392 -74 392 -116 c 0
 392 -188 304 -220 202 -224 c 1
 190 -158 l 1
 236 -154 270 -142 270 -116 c 0
 270 -102 260 -88 214 -76 c 1
EndSplineSet
EndChar

StartChar: one.sups
Encoding: 185 185 539
Width: 600
Flags: MW
HStem: 645 109<191 396>
VStem: 272 124<440 645 645 645>
LayerCount: 2
Fore
SplineSet
272 440 m 1
 272 645 l 1
 191 645 l 1
 191 718 l 1
 245 724 266 733 300 754 c 1
 396 754 l 1
 396 440 l 1
 272 440 l 1
EndSplineSet
EndChar

StartChar: ordmasculine
Encoding: 186 186 596
Width: 600
Flags: MW
HStem: 252 94<281.5 319 281.5 344.5> 504 95<281.5 319>
VStem: 129 122<401 449.5 401 480> 349 122<401 449.5>
LayerCount: 2
Fore
SplineSet
129 425 m 0
 129 535 211 599 300 599 c 0
 389 599 471 535 471 425 c 0
 471 316 389 252 300 252 c 0
 211 252 129 316 129 425 c 0
251 425 m 0
 251 377 263 346 300 346 c 0
 338 346 349 377 349 425 c 0
 349 474 338 504 300 504 c 0
 263 504 251 474 251 425 c 0
EndSplineSet
EndChar

StartChar: guillemotright
Encoding: 187 187 501
Width: 600
Flags: MW
HStem: 14 476<116 116 116 396>
VStem: 44 530<78 338 166 426>
LayerCount: 2
Fore
SplineSet
44 78 m 1
 172 252 l 1
 44 426 l 1
 116 490 l 1
 294 338 l 1
 294 166 l 1
 116 14 l 1
 44 78 l 1
324 78 m 1
 452 252 l 1
 324 426 l 1
 396 490 l 1
 574 338 l 1
 574 166 l 1
 396 14 l 1
 324 78 l 1
EndSplineSet
EndChar

StartChar: onequarter
Encoding: 188 188 651
Width: 600
Flags: MW
HStem: 0 131<388 548 388 440> 56 75<388 440 388 440 548 600> 246 68<443 446 443 443> 525 73<67 67 67 148> 525 109<67 272>
VStem: 148 124<320 525 525 525> 440 108<0 56 0 56 131 140 140 140>
LayerCount: 2
Fore
SplineSet
588 540 m 1xae
 400 372 l 1
 342 426 l 1
 502 624 l 1
 588 540 l 1xae
12 110 m 1
 200 278 l 1
 258 224 l 1
 98 26 l 1
 12 110 l 1
67 525 m 1
 67 598 l 1xb6
 121 604 142 613 176 634 c 1
 272 634 l 1
 272 320 l 1
 148 320 l 1
 148 525 l 1
 67 525 l 1
388 131 m 1
 440 131 l 1
 440 140 l 1
 446 246 l 1
 443 246 l 1
 413 185 l 1
 388 131 l 1
600 131 m 1
 600 56 l 1
 548 56 l 1x6e
 548 0 l 1
 440 0 l 1xae
 440 56 l 1
 281 56 l 1
 281 115 l 1x6e
 390 314 l 1
 548 314 l 1
 548 131 l 1
 600 131 l 1
EndSplineSet
EndChar

StartChar: onehalf
Encoding: 189 189 652
Width: 600
Flags: MW
HStem: 0 100<485 561 485 561> 228 98<387.5 407.5> 525 73<67 148 67 67> 525 109<67 272>
VStem: 148 124<320 525 525 525> 292 269<0 63 63 63> 433 118<194.5 203.5>
LayerCount: 2
Fore
SplineSet
148 320 m 1xd8
 148 525 l 1
 67 525 l 1xd8
 67 598 l 1xe8
 121 604 142 613 176 634 c 1
 272 634 l 1
 272 320 l 1
 148 320 l 1xd8
98 26 m 1
 12 110 l 1
 200 278 l 1
 258 224 l 1
 98 26 l 1
502 624 m 1
 588 540 l 1
 400 372 l 1
 342 426 l 1
 502 624 l 1
292 0 m 1xdc
 292 63 l 1xdc
 366 107 433 163 433 193 c 0
 433 214 420 228 395 228 c 0
 380 228 362 217 346 196 c 1
 276 260 l 1
 316 300 359 326 415 326 c 0
 497 326 551 284 551 216 c 0
 551 173 517 131 485 100 c 1xda
 561 100 l 1
 561 0 l 1
 292 0 l 1xdc
EndSplineSet
EndChar

StartChar: threequarters
Encoding: 190 190 653
Width: 600
Flags: MW
HStem: 0 131<389 549 389 441> 56 75<389 441 389 441 549 601> 246 68<444 447 444 444> 308 90<157 170 148.5 214> 449 62<131 146.5 131 153.5> 556 90<151 161>
VStem: 131 172<449 582.5 511 582.5> 195 120<413 428 381 429.5> 441 108<0 56 0 56 131 140 140 140>
LayerCount: 2
Fore
SplineSet
588 540 m 1x9e80
 400 372 l 1
 342 426 l 1
 502 624 l 1
 588 540 l 1x9e80
37 345 m 1
 82 421 l 1
 103 410 136 398 161 398 c 0
 179 398 195 406 195 420 c 0x9d80
 195 439 176 449 131 449 c 1
 131 511 l 1
 162 511 183 514 183 536 c 0
 183 548 171 556 151 556 c 0
 129 556 108 544 88 534 c 1
 41 606 l 1
 73 629 122 646 180 646 c 0
 247 646 303 609 303 556 c 0
 303 520 291 500 250 486 c 1
 299 472 315 446 315 410 c 0
 315 352 251 308 177 308 c 0
 137 308 89 310 37 345 c 1
12 110 m 1
 200 278 l 1
 258 224 l 1
 98 26 l 1
 12 110 l 1
389 131 m 1
 441 131 l 1
 441 140 l 1
 447 246 l 1
 444 246 l 1
 414 185 l 1xae80
 389 131 l 1
601 131 m 1
 601 56 l 1
 549 56 l 1x5e80
 549 0 l 1
 441 0 l 1x9e80
 441 56 l 1
 282 56 l 1
 282 115 l 1x5e80
 391 314 l 1
 549 314 l 1
 549 131 l 1
 601 131 l 1
EndSplineSet
EndChar

StartChar: questiondown
Encoding: 191 191 489
Width: 600
Flags: MW
HStem: -182 138<305 339 305 348> 292 220<282 346> 492 20G<282 346>
VStem: 96 164<-12 38 -12 49> 204 220<369 433>
LayerCount: 2
Fore
SplineSet
392 236 m 1xb0
 412 106 260 70 260 6 c 0
 260 -30 290 -44 320 -44 c 0
 358 -44 383 -26 412 -2 c 1
 506 -88 l 1
 457 -144 388 -182 308 -182 c 0
 192 -182 96 -132 96 -16 c 0
 96 114 252 126 242 236 c 1
 392 236 l 1xb0
424 401 m 0xc8
 424 337 378 292 314 292 c 0
 250 292 204 337 204 401 c 0
 204 465 250 512 314 512 c 0
 378 512 424 465 424 401 c 0xc8
EndSplineSet
EndChar

StartChar: Atilde
Encoding: 195 195 57
Width: 600
Flags: MW
HStem: 0 21G<0 176 0 0 418 600 418 418> 138 133<239 355 239 386 208 355> 522 128<294 298 294 294> 700 146<120 263 120 263 209 391>
VStem: 0 600<0 0>
LayerCount: 2
Fore
SplineSet
394 846 m 1
 480 846 l 1
 468 744 418 700 364 700 c 0
 310 700 272 742 244 742 c 0
 228 742 214 732 206 700 c 1
 120 700 l 1
 132 802 182 846 236 846 c 0
 290 846 328 804 356 804 c 0
 372 804 386 814 394 846 c 1
239 271 m 1
 355 271 l 1
 345 316 l 2
 331 378 314 457 298 522 c 1
 294 522 l 1
 280 456 263 378 249 316 c 2
 239 271 l 1
418 0 m 1
 386 138 l 1
 208 138 l 1
 176 0 l 1
 0 0 l 1
 196 650 l 1
 404 650 l 1
 600 0 l 1
 418 0 l 1
EndSplineSet
EndChar

StartChar: Adieresis
Encoding: 196 196 58
Width: 600
Flags: MW
HStem: 0 21G<0 176 0 0 418 600 418 418> 138 133<239 355 239 386 208 355> 522 128<294 298 294 294> 694 156<173 219 381 427>
VStem: 118 156<750 794> 326 156<750 794>
LayerCount: 2
Fore
SplineSet
404 694 m 0
 358 694 326 728 326 772 c 0
 326 816 358 850 404 850 c 0
 450 850 482 816 482 772 c 0
 482 728 450 694 404 694 c 0
196 694 m 0
 150 694 118 728 118 772 c 0
 118 816 150 850 196 850 c 0
 242 850 274 816 274 772 c 0
 274 728 242 694 196 694 c 0
239 271 m 1
 355 271 l 1
 345 316 l 2
 331 378 314 457 298 522 c 1
 294 522 l 1
 280 456 263 378 249 316 c 2
 239 271 l 1
418 0 m 1
 386 138 l 1
 208 138 l 1
 176 0 l 1
 0 0 l 1
 196 650 l 1
 404 650 l 1
 600 0 l 1
 418 0 l 1
EndSplineSet
EndChar

StartChar: Aring
Encoding: 197 197 61
Width: 600
Flags: MW
HStem: 0 21G<0 176 0 0 418 600 418 418> 138 133<239 355 239 386 208 355> 522 128<294 298 294 294> 696 62<289.5 310.5 289.5 336> 838 62<289.5 310.5>
VStem: 180 82<786 810 786 829> 338 82<786 810>
LayerCount: 2
Fore
SplineSet
300 838 m 0
 279 838 262 822 262 798 c 0
 262 774 279 758 300 758 c 0
 321 758 338 774 338 798 c 0
 338 822 321 838 300 838 c 0
300 696 m 0
 228 696 180 736 180 798 c 0
 180 860 228 900 300 900 c 0
 372 900 420 860 420 798 c 0
 420 736 372 696 300 696 c 0
239 271 m 1
 355 271 l 1
 345 316 l 2
 331 378 314 457 298 522 c 1
 294 522 l 1
 280 456 263 378 249 316 c 2
 239 271 l 1
418 0 m 1
 386 138 l 1
 208 138 l 1
 176 0 l 1
 0 0 l 1
 196 650 l 1
 404 650 l 1
 600 0 l 1
 418 0 l 1
EndSplineSet
EndChar

StartChar: AE
Encoding: 198 198 76
Width: 600
GlyphClass: 2
Flags: MW
HStem: 0 144<460 596 460 596> 132 133<242 309 242 309 207 309> 262 144<460 567 460 567> 506 144<460 588 460 460> 522 128<306 309 306 306>
VStem: 309 151<0 144 132 144 406 506>
AnchorPoint: "Anchor-0" 395 694 basechar 0
LayerCount: 2
Fore
SplineSet
242 265 m 1x4c
 309 265 l 1
 309 522 l 1
 306 522 l 1
 292 460 276 400 264 348 c 1
 242 265 l 1x4c
460 144 m 1xb4
 596 144 l 1
 596 0 l 1
 309 0 l 1xb4
 309 132 l 1
 207 132 l 1x54
 172 0 l 1
 -4 0 l 1
 186 650 l 1
 588 650 l 1
 588 506 l 1
 460 506 l 1
 460 406 l 1
 567 406 l 1
 567 262 l 1
 460 262 l 1
 460 144 l 1xb4
EndSplineSet
EndChar

StartChar: Ccedilla
Encoding: 199 199 78
Width: 600
Flags: MW
HStem: -224 66<238 250> -6 21G<297 297> 514 148<329 391>
VStem: 51 176<265 385 265 429> 318 122<-129 -109>
LayerCount: 2
Fore
SplineSet
481 188 m 1
 575 84 l 1
 526 27 463 -4 394 -11 c 1
 382 -40 l 1
 416 -52 440 -74 440 -116 c 0
 440 -188 352 -220 250 -224 c 1
 238 -158 l 1
 284 -154 318 -142 318 -116 c 0
 318 -102 308 -88 262 -76 c 1
 297 -6 l 1
 159 21 51 129 51 320 c 0
 51 538 193 662 369 662 c 0
 453 662 521 622 567 578 c 1
 473 472 l 1
 443 498 413 514 369 514 c 0
 289 514 227 444 227 326 c 0
 227 204 289 136 377 136 c 0
 419 136 453 158 481 188 c 1
EndSplineSet
EndChar

StartChar: Egrave
Encoding: 200 200 87
Width: 600
Flags: MW
HStem: 0 144<258 536 258 536> 260 144<258 486 258 486> 506 144<258 526 258 258> 700 124<266 266 266 324 144 402>
VStem: 86 172<144 260 404 506>
LayerCount: 2
Fore
SplineSet
86 0 m 1
 86 650 l 1
 526 650 l 1
 526 506 l 1
 258 506 l 1
 258 404 l 1
 486 404 l 1
 486 260 l 1
 258 260 l 1
 258 144 l 1
 536 144 l 1
 536 0 l 1
 86 0 l 1
266 700 m 1
 144 824 l 1
 324 824 l 1
 402 700 l 1
 266 700 l 1
EndSplineSet
EndChar

StartChar: Eacute
Encoding: 201 201 88
Width: 600
Flags: MW
HStem: 0 144<258 536 258 536> 260 144<258 486 258 486> 506 144<258 526 258 258> 700 124<312 370 234 492>
VStem: 86 172<144 260 404 506>
LayerCount: 2
Fore
SplineSet
86 0 m 1
 86 650 l 1
 526 650 l 1
 526 506 l 1
 258 506 l 1
 258 404 l 1
 486 404 l 1
 486 260 l 1
 258 260 l 1
 258 144 l 1
 536 144 l 1
 536 0 l 1
 86 0 l 1
492 824 m 1
 370 700 l 1
 234 700 l 1
 312 824 l 1
 492 824 l 1
EndSplineSet
EndChar

StartChar: Ecircumflex
Encoding: 202 202 89
Width: 600
Flags: MW
HStem: 0 144<258 536 258 536> 260 144<258 486 258 486> 506 144<258 526 258 258> 700 124<234 268 138 402 368 368 368 402 234 498>
VStem: 86 172<144 260 404 506>
LayerCount: 2
Fore
SplineSet
86 0 m 1
 86 650 l 1
 526 650 l 1
 526 506 l 1
 258 506 l 1
 258 404 l 1
 486 404 l 1
 486 260 l 1
 258 260 l 1
 258 144 l 1
 536 144 l 1
 536 0 l 1
 86 0 l 1
268 700 m 1
 138 700 l 1
 234 824 l 1
 402 824 l 1
 498 700 l 1
 368 700 l 1
 320 758 l 1
 316 758 l 1
 268 700 l 1
EndSplineSet
MultipleSubs2: "Multiple Substitution lookup 2 subtable" E uni0302
EndChar

StartChar: Edieresis
Encoding: 203 203 91
Width: 600
Flags: MW
HStem: 0 144<258 536 258 536> 260 144<258 486 258 486> 506 144<258 526 258 258> 694 156<191 237 399 445>
VStem: 86 172<144 260 404 506> 136 156<750 794> 344 156<750 794>
LayerCount: 2
Fore
SplineSet
86 0 m 1xe8
 86 650 l 1
 526 650 l 1
 526 506 l 1
 258 506 l 1
 258 404 l 1
 486 404 l 1
 486 260 l 1
 258 260 l 1
 258 144 l 1
 536 144 l 1
 536 0 l 1
 86 0 l 1xe8
214 694 m 0xf6
 168 694 136 728 136 772 c 0
 136 816 168 850 214 850 c 0
 260 850 292 816 292 772 c 0
 292 728 260 694 214 694 c 0xf6
422 694 m 0
 376 694 344 728 344 772 c 0
 344 816 376 850 422 850 c 0
 468 850 500 816 500 772 c 0
 500 728 468 694 422 694 c 0
EndSplineSet
EndChar

StartChar: Igrave
Encoding: 204 204 115
Width: 600
Flags: MW
HStem: 0 144<66 214 66 214 386 534> 506 144<66 214 66 534 386 386 386 534> 700 124<248 248 248 306 126 384>
VStem: 214 172<144 506 144 506>
LayerCount: 2
Fore
SplineSet
66 0 m 1
 66 144 l 1
 214 144 l 1
 214 506 l 1
 66 506 l 1
 66 650 l 1
 534 650 l 1
 534 506 l 1
 386 506 l 1
 386 144 l 1
 534 144 l 1
 534 0 l 1
 66 0 l 1
248 700 m 1
 126 824 l 1
 306 824 l 1
 384 700 l 1
 248 700 l 1
EndSplineSet
EndChar

StartChar: Iacute
Encoding: 205 205 116
Width: 600
Flags: MW
HStem: 0 144<66 214 66 214 386 534> 506 144<66 214 66 534 386 386 386 534> 700 124<294 352 216 474>
VStem: 214 172<144 506 144 506>
LayerCount: 2
Fore
SplineSet
66 0 m 1
 66 144 l 1
 214 144 l 1
 214 506 l 1
 66 506 l 1
 66 650 l 1
 534 650 l 1
 534 506 l 1
 386 506 l 1
 386 144 l 1
 534 144 l 1
 534 0 l 1
 66 0 l 1
474 824 m 1
 352 700 l 1
 216 700 l 1
 294 824 l 1
 474 824 l 1
EndSplineSet
EndChar

StartChar: Icircumflex
Encoding: 206 206 117
Width: 600
Flags: MW
HStem: 0 144<66 214 66 214 386 534> 506 144<66 214 66 534 386 386 386 534> 700 124<216 250 120 384 350 350 350 384 216 480>
VStem: 214 172<144 506 144 506>
LayerCount: 2
Fore
SplineSet
66 0 m 1
 66 144 l 1
 214 144 l 1
 214 506 l 1
 66 506 l 1
 66 650 l 1
 534 650 l 1
 534 506 l 1
 386 506 l 1
 386 144 l 1
 534 144 l 1
 534 0 l 1
 66 0 l 1
250 700 m 1
 120 700 l 1
 216 824 l 1
 384 824 l 1
 480 700 l 1
 350 700 l 1
 302 758 l 1
 298 758 l 1
 250 700 l 1
EndSplineSet
EndChar

StartChar: Idieresis
Encoding: 207 207 119
Width: 600
Flags: MW
HStem: 0 144<66 214 66 214 386 534> 506 144<66 214 66 534 386 386 386 534> 694 156<173 219 381 427>
VStem: 118 156<750 794> 214 172<144 506 144 506> 326 156<750 794>
LayerCount: 2
Fore
SplineSet
66 0 m 1xc8
 66 144 l 1
 214 144 l 1
 214 506 l 1
 66 506 l 1
 66 650 l 1
 534 650 l 1
 534 506 l 1
 386 506 l 1
 386 144 l 1
 534 144 l 1
 534 0 l 1
 66 0 l 1xc8
196 694 m 0xf4
 150 694 118 728 118 772 c 0
 118 816 150 850 196 850 c 0
 242 850 274 816 274 772 c 0
 274 728 242 694 196 694 c 0xf4
404 694 m 0
 358 694 326 728 326 772 c 0
 326 816 358 850 404 850 c 0
 450 850 482 816 482 772 c 0
 482 728 450 694 404 694 c 0
EndSplineSet
EndChar

StartChar: Ntilde
Encoding: 209 209 140
Width: 600
Flags: MW
HStem: 0 21G<60 60 60 224 366 366 366 540> 630 20G<60 234 234 234 376 540 540 540> 700 146<126 269 126 269 215 397>
VStem: 60 164<0 188 0 650> 376 164<462 650 0 650>
LayerCount: 2
Fore
SplineSet
60 0 m 1
 60 650 l 1
 234 650 l 1
 343 360 l 1
 396 214 l 1
 400 214 l 1
 392 284 376 382 376 462 c 2
 376 650 l 1
 540 650 l 1
 540 0 l 1
 366 0 l 1
 257 291 l 1
 204 436 l 1
 200 436 l 1
 208 362 224 268 224 188 c 2
 224 0 l 1
 60 0 l 1
370 700 m 0
 316 700 278 742 250 742 c 0
 234 742 220 732 212 700 c 1
 126 700 l 1
 138 802 188 846 242 846 c 0
 296 846 334 804 362 804 c 0
 378 804 392 814 400 846 c 1
 486 846 l 1
 474 744 424 700 370 700 c 0
EndSplineSet
EndChar

StartChar: Ograve
Encoding: 210 210 145
Width: 600
Flags: MW
HStem: -12 148<272 328 272 379> 514 148<272 328> 700 124<248 248 248 306 126 384>
VStem: 34 176<269 387 269 435> 390 176<269 387>
LayerCount: 2
Fore
SplineSet
300 -12 m 0
 142 -12 34 114 34 328 c 0
 34 542 142 662 300 662 c 0
 458 662 566 541 566 328 c 0
 566 114 458 -12 300 -12 c 0
300 136 m 0
 356 136 390 210 390 328 c 0
 390 446 356 514 300 514 c 0
 244 514 210 446 210 328 c 0
 210 210 244 136 300 136 c 0
248 700 m 1
 126 824 l 1
 306 824 l 1
 384 700 l 1
 248 700 l 1
EndSplineSet
EndChar

StartChar: Ocircumflex
Encoding: 212 212 147
Width: 600
Flags: MW
HStem: -12 148<272 328 272 379> 514 148<272 328> 700 124<216 250 120 384 350 350 350 384 216 480>
VStem: 34 176<269 387 269 435> 390 176<269 387>
LayerCount: 2
Fore
SplineSet
300 -12 m 0
 142 -12 34 114 34 328 c 0
 34 542 142 662 300 662 c 0
 458 662 566 541 566 328 c 0
 566 114 458 -12 300 -12 c 0
300 136 m 0
 356 136 390 210 390 328 c 0
 390 446 356 514 300 514 c 0
 244 514 210 446 210 328 c 0
 210 210 244 136 300 136 c 0
250 700 m 1
 120 700 l 1
 216 824 l 1
 384 824 l 1
 480 700 l 1
 350 700 l 1
 302 758 l 1
 298 758 l 1
 250 700 l 1
EndSplineSet
MultipleSubs2: "Multiple Substitution lookup 2 subtable" O uni0302
EndChar

StartChar: Odieresis
Encoding: 214 214 149
Width: 600
Flags: MW
HStem: -12 148<272 328 272 379> 514 148<272 328> 694 156<173 219 381 427>
VStem: 34 176<269 387 269 435> 118 156<750 794> 326 156<750 794> 390 176<269 387>
LayerCount: 2
Fore
SplineSet
300 -12 m 0xf2
 142 -12 34 114 34 328 c 0
 34 542 142 662 300 662 c 0
 458 662 566 541 566 328 c 0
 566 114 458 -12 300 -12 c 0xf2
300 136 m 0
 356 136 390 210 390 328 c 0
 390 446 356 514 300 514 c 0
 244 514 210 446 210 328 c 0
 210 210 244 136 300 136 c 0
196 694 m 0xec
 150 694 118 728 118 772 c 0
 118 816 150 850 196 850 c 0
 242 850 274 816 274 772 c 0
 274 728 242 694 196 694 c 0xec
404 694 m 0
 358 694 326 728 326 772 c 0
 326 816 358 850 404 850 c 0
 450 850 482 816 482 772 c 0
 482 728 450 694 404 694 c 0
EndSplineSet
EndChar

StartChar: multiply
Encoding: 215 215 662
Width: 600
Flags: MW
HStem: 106 446<162 162 162 438>
VStem: 77 446<191 191 191 467>
LayerCount: 2
Fore
SplineSet
162 106 m 1
 77 191 l 1
 215 329 l 1
 77 467 l 1
 162 552 l 1
 300 414 l 1
 438 552 l 1
 523 467 l 1
 385 329 l 1
 523 191 l 1
 438 106 l 1
 300 244 l 1
 162 106 l 1
EndSplineSet
EndChar

StartChar: Oslash
Encoding: 216 216 161
Width: 600
GlyphClass: 2
Flags: MW
HStem: -12 148<291.5 328 291.5 379> 514 148<272 310.5>
VStem: 34 176<320 387 320 435> 390 176<328 352 348 352>
AnchorPoint: "Anchor-0" 306 672 basechar 0
LayerCount: 2
Fore
SplineSet
390 352 m 1
 254 157 l 1
 267 143 283 136 300 136 c 0
 356 136 390 210 390 328 c 0
 390 336 390 344 390 352 c 1
212 283 m 1
 353 487 l 1
 339 505 321 514 300 514 c 0
 244 514 210 446 210 328 c 0
 210 312 211 297 212 283 c 1
588 638 m 1
 518 537 l 1
 549 483 566 413 566 328 c 0
 566 114 458 -12 300 -12 c 0
 249 -12 203 1 164 26 c 1
 114 -46 l 1
 24 12 l 1
 88 105 l 1
 54 161 34 237 34 328 c 0
 34 542 142 662 300 662 c 0
 355 662 404 647 445 619 c 1
 498 696 l 1
 588 638 l 1
EndSplineSet
EndChar

StartChar: Ugrave
Encoding: 217 217 189
Width: 600
Flags: MW
HStem: -12 148<274.5 329.5 274.5 387> 630 20G<58 230 230 230 376 542 542 542> 700 124<248 248 248 306 126 384>
VStem: 58 172<252 650> 376 166<232 252 252 650>
LayerCount: 2
Fore
SplineSet
58 252 m 2
 58 650 l 1
 230 650 l 1
 230 232 l 2
 230 176 247 136 302 136 c 0
 357 136 376 176 376 232 c 2
 376 650 l 1
 542 650 l 1
 542 252 l 2
 542 90 472 -12 302 -12 c 0
 132 -12 58 90 58 252 c 2
248 700 m 1
 126 824 l 1
 306 824 l 1
 384 700 l 1
 248 700 l 1
EndSplineSet
EndChar

StartChar: Ucircumflex
Encoding: 219 219 191
Width: 600
Flags: MW
HStem: -12 148<274.5 329.5 274.5 387> 630 20G<58 230 230 230 376 542 542 542> 700 124<216 250 120 384 350 350 350 384 216 480>
VStem: 58 172<252 650> 376 166<232 252 252 650>
LayerCount: 2
Fore
SplineSet
58 252 m 2
 58 650 l 1
 230 650 l 1
 230 232 l 2
 230 176 247 136 302 136 c 0
 357 136 376 176 376 232 c 2
 376 650 l 1
 542 650 l 1
 542 252 l 2
 542 90 472 -12 302 -12 c 0
 132 -12 58 90 58 252 c 2
250 700 m 1
 120 700 l 1
 216 824 l 1
 384 824 l 1
 480 700 l 1
 350 700 l 1
 302 758 l 1
 298 758 l 1
 250 700 l 1
EndSplineSet
EndChar

StartChar: Udieresis
Encoding: 220 220 193
Width: 600
Flags: MW
HStem: -12 148<274.5 329.5 274.5 387> 630 20G<58 230 230 230 376 542 542 542> 694 156<173 219 381 427>
VStem: 58 172<252 650> 118 156<750 794> 326 156<750 794> 376 166<232 252 252 650>
LayerCount: 2
Fore
SplineSet
58 252 m 2xf2
 58 650 l 1
 230 650 l 1
 230 232 l 2
 230 176 247 136 302 136 c 0
 357 136 376 176 376 232 c 2
 376 650 l 1
 542 650 l 1
 542 252 l 2
 542 90 472 -12 302 -12 c 0
 132 -12 58 90 58 252 c 2xf2
196 694 m 0
 150 694 118 728 118 772 c 0xf2
 118 816 150 850 196 850 c 0
 242 850 274 816 274 772 c 0xea
 274 728 242 694 196 694 c 0
404 694 m 0
 358 694 326 728 326 772 c 0xf4
 326 816 358 850 404 850 c 0
 450 850 482 816 482 772 c 0
 482 728 450 694 404 694 c 0
EndSplineSet
EndChar

StartChar: Yacute
Encoding: 221 221 217
Width: 600
Flags: MW
HStem: 0 21G<214 214 214 386> 630 20G<8 192 192 192 412 592 592 592> 700 124<294 352 216 474>
VStem: 214 172<0 215 0 215>
LayerCount: 2
Fore
SplineSet
214 0 m 1
 214 215 l 1
 8 650 l 1
 192 650 l 1
 246 508 l 1
 263 458 281 412 299 360 c 1
 303 360 l 1
 321 412 340 458 358 508 c 2
 412 650 l 1
 592 650 l 1
 386 215 l 1
 386 0 l 1
 214 0 l 1
474 824 m 1
 352 700 l 1
 216 700 l 1
 294 824 l 1
 474 824 l 1
EndSplineSet
EndChar

StartChar: Thorn
Encoding: 222 222 229
Width: 600
Flags: MW
HStem: 0 21G<62 62 62 234> 112 136<234 306 306 314 234 306> 420 136<234 306 234 314> 630 20G<62 234 234 234>
VStem: 62 172<0 112 248 420 556 650> 406 168<311 369>
LayerCount: 2
Fore
SplineSet
62 0 m 1
 62 650 l 1
 234 650 l 1
 234 556 l 1
 314 556 l 2
 454 556 574 504 574 340 c 0
 574 181 450 112 314 112 c 2
 234 112 l 1
 234 0 l 1
 62 0 l 1
234 248 m 1
 306 248 l 2
 374 248 406 282 406 340 c 0
 406 398 370 420 306 420 c 2
 234 420 l 1
 234 248 l 1
EndSplineSet
EndChar

StartChar: germandbls
Encoding: 223 223 363
Width: 600
Flags: MW
HStem: -12 126<378 396 378 455> 0 22 574 134<263.5 299>
VStem: 50 172<0 478 0 486 0 548> 278 158<339 382> 327 159<485 536.5> 416 158<134 174>
LayerCount: 2
Fore
SplineSet
50 0 m 1x74
 50 486 l 2
 50 610 124 708 287 708 c 0
 425 708 486 620 486 532 c 0x74
 486 438 436 410 436 366 c 0x78
 436 312 574 298 574 158 c 0
 574 64 515 -12 395 -12 c 0xb2
 341 -12 304 0 258 22 c 1x74
 314 138 l 1
 342 121 367 114 389 114 c 0
 403 114 416 124 416 144 c 0xb2
 416 204 278 216 278 344 c 0x78
 278 420 327 448 327 522 c 0
 327 551 311 574 287 574 c 0
 240 574 222 534 222 478 c 2
 222 0 l 1
 50 0 l 1x74
EndSplineSet
EndChar

StartChar: aacute
Encoding: 225 225 232
Width: 600
Flags: MW
HStem: -12 132<164 292> 0 21G<402 542 402 402> 222 102<370 370> 376 136<266 302> 574 174<306 342 218 480>
VStem: 54 164<144.5 173 144.5 198> 370 172<158 222 222 222>
LayerCount: 2
Fore
SplineSet
54 142 m 0x7e
 54 254 142 312 370 324 c 1
 364 360 330 376 274 376 c 0
 232 376 190 362 130 334 c 1
 70 446 l 1
 146 488 224 512 308 512 c 0
 450 512 542 442 542 278 c 2
 542 0 l 1
 402 0 l 1x7e
 390 52 l 1
 386 52 l 1
 337 16 278 -12 216 -12 c 0xbe
 112 -12 54 60 54 142 c 0x7e
218 156 m 0xbe
 218 133 236 120 272 120 c 0
 312 120 343 138 370 158 c 1
 370 222 l 1
 248 218 218 190 218 156 c 0xbe
480 748 m 1
 342 574 l 1
 218 574 l 1
 306 748 l 1
 480 748 l 1
EndSplineSet
Substitution2: "'ss02' Style Set 2 in Latin lookup 18 subtable" aacute.a
Substitution2: "'aalt' Access All Alternates in Latin lookup 0 subtable" aacute.a
EndChar

StartChar: acircumflex
Encoding: 226 226 233
Width: 600
Flags: MW
HStem: -12 132<164 292> 0 21G<402 542 402 402> 222 102<370 370> 376 136<266 302> 574 174<132 378 234 256 356 356 356 378 234 480>
VStem: 54 164<144.5 173 144.5 198> 370 172<158 222 222 222>
LayerCount: 2
Fore
SplineSet
54 142 m 0x7e
 54 254 142 312 370 324 c 1
 364 360 330 376 274 376 c 0
 232 376 190 362 130 334 c 1
 70 446 l 1
 146 488 224 512 308 512 c 0
 450 512 542 442 542 278 c 2
 542 0 l 1
 402 0 l 1x7e
 390 52 l 1
 386 52 l 1
 337 16 278 -12 216 -12 c 0xbe
 112 -12 54 60 54 142 c 0x7e
218 156 m 0xbe
 218 133 236 120 272 120 c 0
 312 120 343 138 370 158 c 1
 370 222 l 1
 248 218 218 190 218 156 c 0xbe
132 574 m 1
 234 748 l 1
 378 748 l 1
 480 574 l 1
 356 574 l 1
 308 668 l 1
 304 668 l 1
 256 574 l 1
 132 574 l 1
EndSplineSet
Substitution2: "'ss02' Style Set 2 in Latin lookup 18 subtable" acircumflex.a
Substitution2: "'aalt' Access All Alternates in Latin lookup 0 subtable" acircumflex.a
EndChar

StartChar: atilde
Encoding: 227 227 234
Width: 600
Flags: MW
HStem: -12 132<164 292> 0 21G<402 542 402 402> 222 102<370 370> 376 136<266 302> 574 156<124 276.5 124 276.5 220 392>
VStem: 54 164<144.5 173 144.5 198> 370 172<158 222 222 222>
LayerCount: 2
Fore
SplineSet
54 142 m 0x7e
 54 254 142 312 370 324 c 1
 364 360 330 376 274 376 c 0
 232 376 190 362 130 334 c 1
 70 446 l 1
 146 488 224 512 308 512 c 0
 450 512 542 442 542 278 c 2
 542 0 l 1
 402 0 l 1x7e
 390 52 l 1
 386 52 l 1
 337 16 278 -12 216 -12 c 0xbe
 112 -12 54 60 54 142 c 0x7e
218 156 m 0xbe
 218 133 236 120 272 120 c 0
 312 120 343 138 370 158 c 1
 370 222 l 1
 248 218 218 190 218 156 c 0xbe
124 574 m 1
 138 683 188 730 252 730 c 0
 301 730 332 678 358 678 c 0
 379 678 392 690 402 730 c 1
 488 730 l 1
 474 621 424 574 360 574 c 0
 310 574 280 626 254 626 c 0
 233 626 220 614 210 574 c 1
 124 574 l 1
EndSplineSet
Substitution2: "'ss02' Style Set 2 in Latin lookup 18 subtable" atilde.a
Substitution2: "'aalt' Access All Alternates in Latin lookup 0 subtable" atilde.a
EndChar

StartChar: adieresis
Encoding: 228 228 235
Width: 600
Flags: MW
HStem: -12 132<164 292> 0 21G<402 542 402 402> 222 102<370 370> 376 136<266 302> 564 176<166 218 394 446>
VStem: 54 164<144.5 173 144.5 198> 104 176<627 677> 332 176<627 677> 370 172<158 222 222 222>
LayerCount: 2
Fore
SplineSet
54 142 m 0x7c80
 54 254 142 312 370 324 c 1
 364 360 330 376 274 376 c 0
 232 376 190 362 130 334 c 1
 70 446 l 1
 146 488 224 512 308 512 c 0
 450 512 542 442 542 278 c 2
 542 0 l 1
 402 0 l 1x7c80
 390 52 l 1
 386 52 l 1
 337 16 278 -12 216 -12 c 0xbc80
 112 -12 54 60 54 142 c 0x7c80
218 156 m 0xbc80
 218 133 236 120 272 120 c 0
 312 120 343 138 370 158 c 1
 370 222 l 1
 248 218 218 190 218 156 c 0xbc80
192 564 m 0x7b
 140 564 104 602 104 652 c 0
 104 702 140 740 192 740 c 0
 244 740 280 702 280 652 c 0
 280 602 244 564 192 564 c 0x7b
420 564 m 0
 368 564 332 602 332 652 c 0
 332 702 368 740 420 740 c 0
 472 740 508 702 508 652 c 0
 508 602 472 564 420 564 c 0
EndSplineSet
Substitution2: "'ss02' Style Set 2 in Latin lookup 18 subtable" adieresis.a
Substitution2: "'aalt' Access All Alternates in Latin lookup 0 subtable" adieresis.a
EndChar

StartChar: aring
Encoding: 229 229 238
Width: 600
Flags: MW
HStem: -12 132<164 292> 0 21G<402 542 402 402> 222 102<370 370> 376 136<266 302> 550 62<295.5 316.5 295.5 342> 700 62<295.5 316.5>
VStem: 54 164<144.5 173 144.5 198> 186 82<643 669 643 688> 344 82<643 669> 370 172<158 222 222 222>
LayerCount: 2
Fore
SplineSet
54 142 m 0xbe40
 54 254 142 312 370 324 c 1
 364 360 330 376 274 376 c 0
 232 376 190 362 130 334 c 1
 70 446 l 1
 146 488 224 512 308 512 c 0
 450 512 542 442 542 278 c 2
 542 0 l 1
 402 0 l 1x7d40
 390 52 l 1
 386 52 l 1
 337 16 278 -12 216 -12 c 0
 112 -12 54 60 54 142 c 0xbe40
218 156 m 0
 218 133 236 120 272 120 c 0
 312 120 343 138 370 158 c 1
 370 222 l 1
 248 218 218 190 218 156 c 0
306 550 m 0x7d80
 234 550 186 592 186 656 c 0
 186 720 234 762 306 762 c 0
 378 762 426 720 426 656 c 0
 426 592 378 550 306 550 c 0x7d80
306 612 m 0
 327 612 344 630 344 656 c 0
 344 682 327 700 306 700 c 0
 285 700 268 682 268 656 c 0
 268 630 285 612 306 612 c 0
EndSplineSet
Substitution2: "'ss02' Style Set 2 in Latin lookup 18 subtable" aring.a
Substitution2: "'aalt' Access All Alternates in Latin lookup 0 subtable" aring.a
EndChar

StartChar: ae
Encoding: 230 230 253
Width: 600
Flags: MW
HStem: -12 134<430 459.5 430 461> 198 104<368 456 366 584 368 368> 376 136<174 200> 382 130<406 432>
VStem: 16 153<144.5 170.5 144.5 194> 456 135<302 324>
LayerCount: 2
Fore
SplineSet
16 142 m 0xdc
 16 246 86 294 232 325 c 1
 227 360 214 376 186 376 c 0
 162 376 124 365 88 344 c 1xec
 28 456 l 1
 88 492 141 512 196 512 c 0
 252 512 286 488 310 448 c 1
 345 492 378 512 433 512 c 0
 536 512 591 400 591 266 c 0
 591 236 587 210 584 198 c 1
 368 198 l 1
 382 142 412 122 448 122 c 0
 471 122 492 128 518 146 c 1
 576 36 l 1
 536 4 480 -12 442 -12 c 0
 370 -12 324 16 290 60 c 1
 238 8 200 -12 156 -12 c 0
 63 -12 16 60 16 142 c 0xdc
366 302 m 1
 456 302 l 1
 456 346 447 382 417 382 c 0
 395 382 373 360 366 302 c 1
169 156 m 0
 169 133 182 120 204 120 c 0
 218 120 233 128 245 140 c 1
 238 158 234 183 232 203 c 2
 230 222 l 1
 187 210 169 185 169 156 c 0
EndSplineSet
EndChar

StartChar: ccedilla
Encoding: 231 231 255
Width: 600
Flags: MW
HStem: -224 66<230 242> -8 21G<288 288> 374 138<327.5 381>
VStem: 62 176<212 288 212 333> 310 122<-129 -109>
LayerCount: 2
Fore
SplineSet
387 -9 m 1
 374 -40 l 1
 408 -52 432 -74 432 -116 c 0
 432 -188 344 -220 242 -224 c 1
 230 -158 l 1
 276 -154 310 -142 310 -116 c 0
 310 -102 300 -88 254 -76 c 1
 288 -8 l 1
 157 12 62 103 62 250 c 0
 62 416 200 512 355 512 c 0
 433 512 502 486 544 446 c 1
 466 340 l 1
 429 365 397 374 365 374 c 0
 290 374 238 326 238 250 c 0
 238 174 289 126 359 126 c 0
 408 126 449 147 483 168 c 1
 551 60 l 1
 502 20 442 -1 387 -9 c 1
EndSplineSet
EndChar

StartChar: egrave
Encoding: 232 232 264
Width: 600
Flags: MW
HStem: -12 130<323.5 361> 198 112<226 394 224 543 226 226> 382 130<294.5 345> 574 174<276 276 276 312 138 400>
VStem: 394 156<310 330>
LayerCount: 2
Fore
SplineSet
50 250 m 0
 50 414 178 512 312 512 c 0
 470 512 550 404 550 270 c 0
 550 240 545 210 543 198 c 1
 226 198 l 1
 238 136 293 118 354 118 c 0
 394 118 430 128 474 148 c 1
 530 46 l 1
 470 8 392 -12 330 -12 c 0
 172 -12 50 84 50 250 c 0
224 310 m 1
 394 310 l 1
 394 350 374 382 316 382 c 0
 273 382 236 362 224 310 c 1
276 574 m 1
 138 748 l 1
 312 748 l 1
 400 574 l 1
 276 574 l 1
EndSplineSet
Substitution2: "'sups' Superscript in Latin lookup 12 subtable" egrave.sups
Substitution2: "'aalt' Access All Alternates in Latin lookup 0 subtable" egrave.sups
EndChar

StartChar: edieresis
Encoding: 235 235 268
Width: 600
Flags: MW
HStem: -12 130<323.5 361> 198 112<226 394 224 543 226 226> 382 130<294.5 345> 564 176<171 223 399 451>
VStem: 109 176<627 677> 337 176<627 677> 394 156<310 330>
LayerCount: 2
Fore
SplineSet
50 250 m 0xec
 50 414 178 512 312 512 c 0
 470 512 550 404 550 270 c 0
 550 240 545 210 543 198 c 1xea
 226 198 l 1
 238 136 293 118 354 118 c 0
 394 118 430 128 474 148 c 1
 530 46 l 1
 470 8 392 -12 330 -12 c 0
 172 -12 50 84 50 250 c 0xec
224 310 m 1
 394 310 l 1
 394 350 374 382 316 382 c 0xfa
 273 382 236 362 224 310 c 1
197 564 m 0
 145 564 109 602 109 652 c 0
 109 702 145 740 197 740 c 0
 249 740 285 702 285 652 c 0
 285 602 249 564 197 564 c 0
425 564 m 0xfc
 373 564 337 602 337 652 c 0
 337 702 373 740 425 740 c 0
 477 740 513 702 513 652 c 0
 513 602 477 564 425 564 c 0xfc
EndSplineSet
EndChar

StartChar: igrave
Encoding: 236 236 292
Width: 600
Flags: MW
HStem: 0 21G<264 436 264 264> 366 134<74 436 74 264> 574 174<308 308 308 344 170 432>
VStem: 264 172<0 366 366 366>
LayerCount: 2
Fore
SplineSet
74 366 m 1
 74 500 l 1
 436 500 l 1
 436 0 l 1
 264 0 l 1
 264 366 l 1
 74 366 l 1
308 574 m 1
 170 748 l 1
 344 748 l 1
 432 574 l 1
 308 574 l 1
EndSplineSet
EndChar

StartChar: iacute
Encoding: 237 237 293
Width: 600
Flags: MW
HStem: 0 21G<264 436 264 264> 366 134<74 436 74 264> 574 174<344 380 256 518>
VStem: 264 172<0 366 366 366>
LayerCount: 2
Fore
SplineSet
74 366 m 1
 74 500 l 1
 436 500 l 1
 436 0 l 1
 264 0 l 1
 264 366 l 1
 74 366 l 1
518 748 m 1
 380 574 l 1
 256 574 l 1
 344 748 l 1
 518 748 l 1
EndSplineSet
EndChar

StartChar: icircumflex
Encoding: 238 238 294
Width: 600
Flags: MW
HStem: 0 21G<264 436 264 264> 366 134<74 436 74 264> 574 174<170 416 272 294 394 394 394 416 272 518>
VStem: 264 172<0 366 366 366>
LayerCount: 2
Fore
SplineSet
74 366 m 1
 74 500 l 1
 436 500 l 1
 436 0 l 1
 264 0 l 1
 264 366 l 1
 74 366 l 1
170 574 m 1
 272 748 l 1
 416 748 l 1
 518 574 l 1
 394 574 l 1
 346 668 l 1
 342 668 l 1
 294 574 l 1
 170 574 l 1
EndSplineSet
EndChar

StartChar: idieresis
Encoding: 239 239 296
Width: 600
Flags: MW
HStem: 0 21G<264 436 264 264> 366 134<74 436 74 264> 564 176<204 256 432 484>
VStem: 142 176<627 677> 264 172<0 366 366 366> 370 176<627 677>
LayerCount: 2
Fore
SplineSet
74 366 m 1xe8
 74 500 l 1
 436 500 l 1
 436 0 l 1
 264 0 l 1
 264 366 l 1
 74 366 l 1xe8
230 564 m 0xf0
 178 564 142 602 142 652 c 0
 142 702 178 740 230 740 c 0
 282 740 318 702 318 652 c 0
 318 602 282 564 230 564 c 0xf0
458 564 m 0xe8
 406 564 370 602 370 652 c 0xe8
 370 702 406 740 458 740 c 0
 510 740 546 702 546 652 c 0xe4
 546 602 510 564 458 564 c 0xe8
EndSplineSet
EndChar

StartChar: eth
Encoding: 240 240 409
Width: 600
Flags: MW
HStem: -12 138<272 327 272 377> 332 126<268 280.5 205 316>
VStem: 42 156<195 267.5 195 303> 396 160<213 265>
LayerCount: 2
Fore
SplineSet
300 126 m 0
 354 126 396 166 396 260 c 0
 396 270 396 280 395 289 c 1
 366 320 335 332 297 332 c 0
 239 332 198 305 198 230 c 0
 198 160 244 126 300 126 c 0
522 658 m 1
 415 604 l 1
 499 524 556 418 556 270 c 0
 556 108 460 -12 294 -12 c 0
 156 -12 42 82 42 230 c 0
 42 376 150 458 260 458 c 0
 301 458 343 446 372 415 c 1
 354 464 325 504 285 540 c 1
 136 465 l 1
 92 539 l 1
 206 596 l 1
 181 611 154 626 123 640 c 1
 197 744 l 1
 247 721 296 695 341 664 c 1
 478 733 l 1
 522 658 l 1
EndSplineSet
EndChar

StartChar: ntilde
Encoding: 241 241 319
Width: 600
Flags: MW
HStem: 0 21G<64 64 64 236 374 374 374 546> 366 146<300 442.5> 480 20G<64 204 204 204> 574 156<132 284.5 132 284.5 228 400>
VStem: 64 172<0 328 0 500> 374 172<0 286 286 308 0 314>
LayerCount: 2
Fore
SplineSet
64 0 m 1xbc
 64 500 l 1
 204 500 l 1xbc
 216 440 l 1
 220 440 l 1
 260 478 314 512 387 512 c 0
 498 512 546 432 546 308 c 2
 546 0 l 1
 374 0 l 1
 374 286 l 2
 374 342 360 366 316 366 c 0
 284 366 262 352 236 328 c 1xdc
 236 0 l 1
 64 0 l 1xbc
132 574 m 1
 146 683 196 730 260 730 c 0
 309 730 340 678 366 678 c 0
 387 678 400 690 410 730 c 1
 496 730 l 1
 482 621 432 574 368 574 c 0
 318 574 288 626 262 626 c 0
 241 626 228 614 218 574 c 1
 132 574 l 1
EndSplineSet
EndChar

StartChar: ograve
Encoding: 242 242 325
Width: 600
Flags: MW
HStem: -12 138<271 329 271 366> 374 138<271 329> 574 174<264 264 264 300 126 388>
VStem: 42 176<212 288 212 333> 382 176<212 288>
LayerCount: 2
Fore
SplineSet
42 250 m 0
 42 416 168 512 300 512 c 0
 432 512 558 416 558 250 c 0
 558 84 432 -12 300 -12 c 0
 168 -12 42 84 42 250 c 0
218 250 m 0
 218 174 242 126 300 126 c 0
 358 126 382 174 382 250 c 0
 382 326 358 374 300 374 c 0
 242 374 218 326 218 250 c 0
264 574 m 1
 126 748 l 1
 300 748 l 1
 388 574 l 1
 264 574 l 1
EndSplineSet
EndChar

StartChar: ocircumflex
Encoding: 244 244 327
Width: 600
Flags: MW
HStem: -12 138<271 329 271 366> 374 138<271 329> 574 174<126 372 228 250 350 350 350 372 228 474>
VStem: 42 176<212 288 212 333> 382 176<212 288>
LayerCount: 2
Fore
SplineSet
42 250 m 0
 42 416 168 512 300 512 c 0
 432 512 558 416 558 250 c 0
 558 84 432 -12 300 -12 c 0
 168 -12 42 84 42 250 c 0
218 250 m 0
 218 174 242 126 300 126 c 0
 358 126 382 174 382 250 c 0
 382 326 358 374 300 374 c 0
 242 374 218 326 218 250 c 0
126 574 m 1
 228 748 l 1
 372 748 l 1
 474 574 l 1
 350 574 l 1
 302 668 l 1
 298 668 l 1
 250 574 l 1
 126 574 l 1
EndSplineSet
MultipleSubs2: "Multiple Substitution lookup 2 subtable" o uni0302
EndChar

StartChar: otilde
Encoding: 245 245 328
Width: 600
Flags: MW
HStem: -12 138<271 329 271 366> 374 138<271 329> 574 156<118 270.5 118 270.5 214 386>
VStem: 42 176<212 288 212 333> 382 176<212 288>
LayerCount: 2
Fore
SplineSet
42 250 m 0
 42 416 168 512 300 512 c 0
 432 512 558 416 558 250 c 0
 558 84 432 -12 300 -12 c 0
 168 -12 42 84 42 250 c 0
218 250 m 0
 218 174 242 126 300 126 c 0
 358 126 382 174 382 250 c 0
 382 326 358 374 300 374 c 0
 242 374 218 326 218 250 c 0
118 574 m 1
 132 683 182 730 246 730 c 0
 295 730 326 678 352 678 c 0
 373 678 386 690 396 730 c 1
 482 730 l 1
 468 621 418 574 354 574 c 0
 304 574 274 626 248 626 c 0
 227 626 214 614 204 574 c 1
 118 574 l 1
EndSplineSet
EndChar

StartChar: odieresis
Encoding: 246 246 329
Width: 600
Flags: MW
HStem: -12 138<271 329 271 366> 374 138<271 329> 564 176<160 212 388 440>
VStem: 42 176<212 288 212 333> 98 176<627 677> 326 176<627 677> 382 176<212 288>
LayerCount: 2
Fore
SplineSet
42 250 m 0xf2
 42 416 168 512 300 512 c 0
 432 512 558 416 558 250 c 0
 558 84 432 -12 300 -12 c 0
 168 -12 42 84 42 250 c 0xf2
218 250 m 0
 218 174 242 126 300 126 c 0
 358 126 382 174 382 250 c 0
 382 326 358 374 300 374 c 0
 242 374 218 326 218 250 c 0
186 564 m 0xec
 134 564 98 602 98 652 c 0
 98 702 134 740 186 740 c 0
 238 740 274 702 274 652 c 0
 274 602 238 564 186 564 c 0xec
414 564 m 0
 362 564 326 602 326 652 c 0
 326 702 362 740 414 740 c 0
 466 740 502 702 502 652 c 0
 502 602 466 564 414 564 c 0
EndSplineSet
EndChar

StartChar: divide
Encoding: 247 247 663
Width: 600
Flags: MW
HStem: 64 172<274 326> 270 120<64 536 64 536> 424 172<274 326>
VStem: 208 184<125 175 485 535>
LayerCount: 2
Fore
SplineSet
300 424 m 0
 248 424 208 460 208 510 c 0
 208 560 248 596 300 596 c 0
 352 596 392 560 392 510 c 0
 392 460 352 424 300 424 c 0
208 150 m 0
 208 200 248 236 300 236 c 0
 352 236 392 200 392 150 c 0
 392 100 352 64 300 64 c 0
 248 64 208 100 208 150 c 0
64 270 m 1
 64 390 l 1
 536 390 l 1
 536 270 l 1
 64 270 l 1
EndSplineSet
EndChar

StartChar: oslash
Encoding: 248 248 341
Width: 600
GlyphClass: 2
Flags: MW
HStem: -12 132<291 329 291 366> 380 132<271 309>
VStem: 42 176<244 288 244 333> 382 176<212 256.5>
AnchorPoint: "Anchor-0" 300 522 basechar 0
LayerCount: 2
Fore
SplineSet
380 286 m 1
 255 135 l 1
 267 125 282 120 300 120 c 0
 358 120 382 174 382 250 c 0
 382 263 381 275 380 286 c 1
220 216 m 1
 344 366 l 1
 332 375 318 380 300 380 c 0
 242 380 218 326 218 250 c 0
 218 238 219 226 220 216 c 1
540 480 m 1
 495 426 l 1
 534 382 558 323 558 250 c 0
 558 84 432 -12 300 -12 c 0
 252 -12 205 1 164 25 c 1
 122 -26 l 1
 60 22 l 1
 104 75 l 1
 66 119 42 178 42 250 c 0
 42 416 168 512 300 512 c 0
 348 512 394 500 435 476 c 1
 478 528 l 1
 540 480 l 1
EndSplineSet
EndChar

StartChar: uacute
Encoding: 250 250 371
Width: 600
Flags: MW
HStem: -12 146<158 299.5> 0 21G<392 532 392 392> 480 20G<56 228 228 228 360 532 532 532> 574 174<296 332 208 470>
VStem: 56 172<192 214 214 500> 360 172<178 500 0 500>
LayerCount: 2
Fore
SplineSet
532 500 m 1x7c
 532 0 l 1
 392 0 l 1x7c
 380 66 l 1
 376 66 l 1
 334 18 284 -12 214 -12 c 0
 102 -12 56 68 56 192 c 2
 56 500 l 1
 228 500 l 1
 228 214 l 2
 228 158 240 134 285 134 c 0
 314 134 334 142 360 178 c 1xbc
 360 500 l 1
 532 500 l 1x7c
470 748 m 1
 332 574 l 1
 208 574 l 1
 296 748 l 1
 470 748 l 1
EndSplineSet
EndChar

StartChar: ucircumflex
Encoding: 251 251 372
Width: 600
Flags: MW
HStem: -12 146<158 299.5> 0 21G<392 532 392 392> 480 20G<56 228 228 228 360 532 532 532> 574 174<122 368 224 246 346 346 346 368 224 470>
VStem: 56 172<192 214 214 500> 360 172<178 500 0 500>
LayerCount: 2
Fore
SplineSet
532 500 m 1x7c
 532 0 l 1
 392 0 l 1x7c
 380 66 l 1
 376 66 l 1
 334 18 284 -12 214 -12 c 0
 102 -12 56 68 56 192 c 2
 56 500 l 1
 228 500 l 1
 228 214 l 2
 228 158 240 134 285 134 c 0
 314 134 334 142 360 178 c 1xbc
 360 500 l 1
 532 500 l 1x7c
122 574 m 1
 224 748 l 1
 368 748 l 1
 470 574 l 1
 346 574 l 1
 298 668 l 1
 294 668 l 1
 246 574 l 1
 122 574 l 1
EndSplineSet
EndChar

StartChar: udieresis
Encoding: 252 252 374
Width: 600
Flags: MW
HStem: -12 146<158 299.5> 0 21G<392 532 392 392> 480 20G<56 228 228 228 360 532 532 532> 564 176<156 208 384 436>
VStem: 56 172<192 214 214 500> 94 176<627 677> 322 176<627 677> 360 172<178 500 0 500>
LayerCount: 2
Fore
SplineSet
532 500 m 1x79
 532 0 l 1
 392 0 l 1x75
 380 66 l 1
 376 66 l 1
 334 18 284 -12 214 -12 c 0
 102 -12 56 68 56 192 c 2
 56 500 l 1
 228 500 l 1
 228 214 l 2
 228 158 240 134 285 134 c 0
 314 134 334 142 360 178 c 1xb9
 360 500 l 1
 532 500 l 1x79
182 564 m 0
 130 564 94 602 94 652 c 0
 94 702 130 740 182 740 c 0
 234 740 270 702 270 652 c 0
 270 602 234 564 182 564 c 0
410 564 m 0x7a
 358 564 322 602 322 652 c 0
 322 702 358 740 410 740 c 0
 462 740 498 702 498 652 c 0
 498 602 462 564 410 564 c 0x7a
EndSplineSet
EndChar

StartChar: thorn
Encoding: 254 254 410
Width: 600
GlyphClass: 2
Flags: MW
HStem: -176 21G<64 236 64 64> -12 21G<322 399> -12 140<322 324 293 399> 372 140<295 420> 676 20G<64 236 236 236>
VStem: 64 172<-176 -38 152 336 533 696> 382 176<208 297>
AnchorPoint: "Anchor-2" 307 -22 basechar 0
AnchorPoint: "Anchor-0" 156 730 basechar 0
LayerCount: 2
Fore
SplineSet
236 -38 m 1xde
 236 -176 l 1
 64 -176 l 1
 64 696 l 1
 236 696 l 1
 236 533 l 1
 232 462 l 1
 268 494 314 512 360 512 c 0
 480 512 558 412 558 258 c 0
 558 86 452 -12 346 -12 c 0
 298 -12 262 10 232 38 c 1
 236 -38 l 1xde
236 152 m 1xbe
 256 134 282 128 304 128 c 0
 344 128 382 160 382 256 c 0
 382 338 358 372 308 372 c 0
 282 372 260 362 236 336 c 1
 236 152 l 1xbe
EndSplineSet
EndChar

StartChar: ydieresis
Encoding: 255 255 400
Width: 600
Flags: MW
HStem: -188 134<131.5 159.5 127.5 212.5> -178 21G<67 67> 480 20G<24 194 194 194 416 578 578 578> 564 176<168 220 396 448>
VStem: 106 176<627 677> 334 176<627 677>
LayerCount: 2
Fore
SplineSet
97 -48 m 1xbc
 110 -52 122 -54 133 -54 c 0
 186 -54 213 -34 226 -4 c 1
 234 18 l 1
 24 500 l 1
 194 500 l 1
 264 308 l 2
 281 260 295 210 309 156 c 1
 313 156 l 1
 325 207 341 258 356 308 c 2
 416 500 l 1
 578 500 l 1
 390 8 l 1
 337 -127 278 -188 147 -188 c 0xbc
 116 -188 90 -184 67 -178 c 1x7c
 97 -48 l 1xbc
194 564 m 0x7c
 142 564 106 602 106 652 c 0
 106 702 142 740 194 740 c 0
 246 740 282 702 282 652 c 0
 282 602 246 564 194 564 c 0x7c
422 564 m 0
 370 564 334 602 334 652 c 0
 334 702 370 740 422 740 c 0
 474 740 510 702 510 652 c 0
 510 602 474 564 422 564 c 0
EndSplineSet
EndChar

StartChar: amacron
Encoding: 257 257 236
Width: 600
Flags: MW
HStem: -12 132<164 292> 0 21G<402 542 402 402> 222 102<370 370> 376 136<266 302> 588 108<162 450 162 450>
VStem: 54 164<144.5 173 144.5 198> 162 288<588 696 588 696> 370 172<158 222 222 222>
LayerCount: 2
Fore
SplineSet
54 142 m 0x7d
 54 254 142 312 370 324 c 1
 364 360 330 376 274 376 c 0
 232 376 190 362 130 334 c 1
 70 446 l 1
 146 488 224 512 308 512 c 0
 450 512 542 442 542 278 c 2
 542 0 l 1
 402 0 l 1x7d
 390 52 l 1
 386 52 l 1
 337 16 278 -12 216 -12 c 0xbd
 112 -12 54 60 54 142 c 0x7d
218 156 m 0xbd
 218 133 236 120 272 120 c 0
 312 120 343 138 370 158 c 1
 370 222 l 1
 248 218 218 190 218 156 c 0xbd
162 588 m 1x7a
 162 696 l 1
 450 696 l 1
 450 588 l 1
 162 588 l 1x7a
EndSplineSet
Substitution2: "'ss02' Style Set 2 in Latin lookup 18 subtable" amacron.a
Substitution2: "'aalt' Access All Alternates in Latin lookup 0 subtable" amacron.a
EndChar

StartChar: abreve
Encoding: 259 259 237
Width: 600
Flags: MW
HStem: -12 132<164 292> 0 21G<402 542 402 402> 222 102<370 370> 376 136<266 302> 574 92<287.5 324.5 287.5 357.5>
VStem: 54 164<144.5 173 144.5 198> 152 94<738 738> 366 94<738 738> 370 172<158 222 222 222>
LayerCount: 2
Fore
SplineSet
54 142 m 0x7c80
 54 254 142 312 370 324 c 1
 364 360 330 376 274 376 c 0
 232 376 190 362 130 334 c 1
 70 446 l 1
 146 488 224 512 308 512 c 0
 450 512 542 442 542 278 c 2
 542 0 l 1
 402 0 l 1x7c80
 390 52 l 1
 386 52 l 1
 337 16 278 -12 216 -12 c 0xbc80
 112 -12 54 60 54 142 c 0x7c80
218 156 m 0xbc80
 218 133 236 120 272 120 c 0
 312 120 343 138 370 158 c 1
 370 222 l 1
 248 218 218 190 218 156 c 0xbc80
306 574 m 0x7b
 203 574 154 650 152 738 c 1
 246 738 l 1
 251 696 269 666 306 666 c 0
 343 666 361 696 366 738 c 1
 460 738 l 1
 458 650 409 574 306 574 c 0x7b
EndSplineSet
Substitution2: "'ss02' Style Set 2 in Latin lookup 18 subtable" abreve.a
Substitution2: "'aalt' Access All Alternates in Latin lookup 0 subtable" abreve.a
EndChar

StartChar: Aogonek
Encoding: 260 260 75
Width: 600
GlyphClass: 2
Flags: MW
HStem: -228 110<470 549.5> 0 21G<0 176 0 0 418 466 418 418 571 600> 138 133<239 355 239 386 208 355> 522 128<294 298 294 294>
VStem: 382 124<-161 -64>
AnchorPoint: "Anchor-0" 300 672 basechar 0
LayerCount: 2
Fore
SplineSet
239 271 m 1
 355 271 l 1
 345 316 l 1
 330 378 314 457 298 522 c 1
 294 522 l 1
 280 456 264 378 249 316 c 1
 239 271 l 1
580 -104 m 1
 618 -190 l 1
 590 -212 542 -228 504 -228 c 0
 436 -228 382 -192 382 -130 c 0
 382 -65 434 -17 466 0 c 1
 418 0 l 1
 386 138 l 1
 208 138 l 1
 176 0 l 1
 0 0 l 1
 196 650 l 1
 404 650 l 1
 600 0 l 1
 542 0 506 -44 506 -84 c 0
 506 -106 522 -118 542 -118 c 0
 557 -118 571 -111 580 -104 c 1
EndSplineSet
Ligature2: "'ccmp' Glyph Composition/Decomposition in Latin lookup 6 subtable" A uni0328
EndChar

StartChar: aogonek
Encoding: 261 261 252
Width: 600
GlyphClass: 2
Flags: MW
HStem: -212 100<421 500> -176 21G<562 562> -12 132<164 292> -4 21G<404 404> 0 21G<542 542> 222 102<370 370> 376 136<266 302>
VStem: 54 164<144.5 173 144.5 198> 340 114<-90 -88> 370 172<158 222 222 222>
AnchorPoint: "Anchor-0" 306 522 basechar 0
LayerCount: 2
Fore
SplineSet
54 142 m 0x4f40
 54 254 142 312 370 324 c 1
 364 360 330 376 274 376 c 0
 232 376 190 362 130 334 c 1
 70 446 l 1
 146 488 224 512 308 512 c 0
 450 512 542 442 542 278 c 2
 542 0 l 1x4f40
 474 -16 454 -50 454 -78 c 0
 454 -102 474 -112 494 -112 c 0
 506 -112 520 -106 528 -100 c 1x8f80
 562 -176 l 1x4f40
 534 -198 486 -212 452 -212 c 0
 390 -212 340 -180 340 -118 c 0
 340 -58 384 -18 404 -4 c 1x9780
 390 52 l 1
 386 52 l 1
 337 16 278 -12 216 -12 c 0x6780
 112 -12 54 60 54 142 c 0x4f40
218 156 m 0x6740
 218 133 236 120 272 120 c 0
 312 120 343 138 370 158 c 1
 370 222 l 1
 248 218 218 190 218 156 c 0x6740
EndSplineSet
Substitution2: "'ss02' Style Set 2 in Latin lookup 18 subtable" aogonek.a
Ligature2: "'ccmp' Glyph Composition/Decomposition in Latin lookup 6 subtable" a uni0328
Substitution2: "'aalt' Access All Alternates in Latin lookup 0 subtable" aogonek.a
EndChar

StartChar: Cacute
Encoding: 262 262 79
Width: 600
Flags: MW
HStem: -12 148<333 398 333 407> 514 148<329 391> 700 124<350 408 272 530>
VStem: 51 176<265 385 265 429>
LayerCount: 2
Fore
SplineSet
51 320 m 0
 51 538 193 662 369 662 c 0
 453 662 521 622 567 578 c 1
 473 472 l 1
 443 498 413 514 369 514 c 0
 289 514 227 444 227 326 c 0
 227 204 289 136 377 136 c 0
 419 136 453 158 481 188 c 1
 575 84 l 1
 520 20 447 -12 367 -12 c 0
 197 -12 51 98 51 320 c 0
530 824 m 1
 408 700 l 1
 272 700 l 1
 350 824 l 1
 530 824 l 1
EndSplineSet
EndChar

StartChar: cacute
Encoding: 263 263 256
Width: 600
Flags: MW
HStem: -12 138<324 375> 374 138<327.5 381> 574 174<340 376 252 514>
VStem: 62 176<212 288 212 333>
LayerCount: 2
Fore
SplineSet
62 250 m 0
 62 416 200 512 355 512 c 0
 433 512 502 486 544 446 c 1
 466 340 l 1
 429 365 397 374 365 374 c 0
 290 374 238 326 238 250 c 0
 238 174 289 126 359 126 c 0
 408 126 449 147 483 168 c 1
 551 60 l 1
 489 9 408 -12 342 -12 c 0
 184 -12 62 84 62 250 c 0
514 748 m 1
 376 574 l 1
 252 574 l 1
 340 748 l 1
 514 748 l 1
EndSplineSet
EndChar

StartChar: Ccircumflex
Encoding: 264 264 80
Width: 600
Flags: MW
HStem: -12 148<333 398 333 407> 514 148<329 391> 700 124<272 306 176 440 406 406 406 440 272 536>
VStem: 51 176<265 385 265 429>
LayerCount: 2
Fore
SplineSet
51 320 m 0
 51 538 193 662 369 662 c 0
 453 662 521 622 567 578 c 1
 473 472 l 1
 443 498 413 514 369 514 c 0
 289 514 227 444 227 326 c 0
 227 204 289 136 377 136 c 0
 419 136 453 158 481 188 c 1
 575 84 l 1
 520 20 447 -12 367 -12 c 0
 197 -12 51 98 51 320 c 0
306 700 m 1
 176 700 l 1
 272 824 l 1
 440 824 l 1
 536 700 l 1
 406 700 l 1
 358 758 l 1
 354 758 l 1
 306 700 l 1
EndSplineSet
EndChar

StartChar: ccircumflex
Encoding: 265 265 257
Width: 600
Flags: MW
HStem: -12 138<324 375> 374 138<327.5 381> 574 174<166 412 268 290 390 390 390 412 268 514>
VStem: 62 176<212 288 212 333>
LayerCount: 2
Fore
SplineSet
62 250 m 0
 62 416 200 512 355 512 c 0
 433 512 502 486 544 446 c 1
 466 340 l 1
 429 365 397 374 365 374 c 0
 290 374 238 326 238 250 c 0
 238 174 289 126 359 126 c 0
 408 126 449 147 483 168 c 1
 551 60 l 1
 489 9 408 -12 342 -12 c 0
 184 -12 62 84 62 250 c 0
166 574 m 1
 268 748 l 1
 412 748 l 1
 514 574 l 1
 390 574 l 1
 342 668 l 1
 338 668 l 1
 290 574 l 1
 166 574 l 1
EndSplineSet
EndChar

StartChar: Cdotaccent
Encoding: 266 266 82
Width: 600
Flags: MW
HStem: -12 148<333 398 333 407> 514 148<329 391> 696 172<328 384>
VStem: 51 176<265 385 265 429> 260 192<757 807>
LayerCount: 2
Fore
SplineSet
51 320 m 0
 51 538 193 662 369 662 c 0
 453 662 521 622 567 578 c 1
 473 472 l 1
 443 498 413 514 369 514 c 0
 289 514 227 444 227 326 c 0
 227 204 289 136 377 136 c 0
 419 136 453 158 481 188 c 1
 575 84 l 1
 520 20 447 -12 367 -12 c 0
 197 -12 51 98 51 320 c 0
356 696 m 0
 300 696 260 732 260 782 c 0
 260 832 300 868 356 868 c 0
 412 868 452 832 452 782 c 0
 452 732 412 696 356 696 c 0
EndSplineSet
EndChar

StartChar: cdotaccent
Encoding: 267 267 259
Width: 600
Flags: MW
HStem: -12 138<324 375> 374 138<327.5 381> 562 202<308 372>
VStem: 62 176<212 288 212 333> 230 220<632 692>
LayerCount: 2
Fore
SplineSet
62 250 m 0xf0
 62 416 200 512 355 512 c 0
 433 512 502 486 544 446 c 1
 466 340 l 1
 429 365 397 374 365 374 c 0
 290 374 238 326 238 250 c 0
 238 174 289 126 359 126 c 0
 408 126 449 147 483 168 c 1
 551 60 l 1
 489 9 408 -12 342 -12 c 0
 184 -12 62 84 62 250 c 0xf0
340 562 m 0xe8
 276 562 230 602 230 662 c 0
 230 722 276 764 340 764 c 0
 404 764 450 722 450 662 c 0
 450 602 404 562 340 562 c 0xe8
EndSplineSet
EndChar

StartChar: Dcaron
Encoding: 270 270 83
Width: 600
Flags: MW
HStem: 0 138<230 232 232 251> 512 138<230 232 230 230> 700 124<212 246 346 380 212 212>
VStem: 58 172<138 138 138 512> 382 176<252 404>
LayerCount: 2
Fore
SplineSet
58 0 m 1
 58 650 l 1
 241 650 l 2
 427 650 558 558 558 328 c 0
 558 98 427 0 251 0 c 2
 58 0 l 1
230 138 m 1
 232 138 l 2
 315 138 382 176 382 328 c 0
 382 480 315 512 232 512 c 2
 230 512 l 1
 230 138 l 1
346 824 m 1
 476 824 l 1
 380 700 l 1
 212 700 l 1
 116 824 l 1
 246 824 l 1
 294 766 l 1
 298 766 l 1
 346 824 l 1
EndSplineSet
EndChar

StartChar: dcaron
Encoding: 271 271 260
Width: 600
GlyphClass: 3
Flags: MW
HStem: -12 140<244.5 246.5> 0 21G<369 509 369 369> 372 140<250 251.5 171.5 283> 492 20G<171.5 251.5> 548 148<337 616 337 544> 548 226<544 616 544 544>
VStem: 15 176<207 296 207 332> 337 172<164 348 348 348 534 696 0 696> 541 104
LayerCount: 2
Fore
SplineSet
15 250 m 0x5b80
 15 414 119 512 224 512 c 0
 279 512 312 492 343 462 c 1
 337 534 l 1
 337 696 l 1
 509 696 l 1
 509 0 l 1
 369 0 l 1x5b80
 357 46 l 1
 353 46 l 1
 318 12 269 -12 224 -12 c 0x9b80
 97 -12 15 88 15 250 c 0x5b80
191 252 m 0xab80
 191 162 220 128 269 128 c 0
 297 128 318 136 337 164 c 1
 337 348 l 1
 317 366 295 372 271 372 c 0
 229 372 191 340 191 252 c 0xab80
616 548 m 1
 544 548 l 1x5b80
 538 774 l 1
 646 774 l 1
 644 700 l 1x5780
 616 548 l 1
EndSplineSet
Ligature2: "'ccmp' Glyph Composition/Decomposition in Latin lookup 6 subtable" d uni030C
EndChar

StartChar: Dcroat
Encoding: 272 272 86
Width: 600
Flags: MW
HStem: 0 138<236 238 238 258> 294 77 294 80<-4 64 -4 64 236 330> 512 138<236 238 236 236>
VStem: 64 172<138 138 138 294 138 294 374 512> 388 176<252 404>
LayerCount: 2
Fore
SplineSet
64 0 m 1xbc
 64 294 l 1
 -4 294 l 1
 -4 368 l 1
 64 374 l 1xdc
 64 650 l 1
 248 650 l 2
 432 650 564 558 564 328 c 0
 564 98 432 0 258 0 c 2
 64 0 l 1xbc
236 138 m 1
 238 138 l 2xdc
 320 138 388 176 388 328 c 0
 388 480 320 512 238 512 c 2
 236 512 l 1
 236 374 l 1
 330 374 l 1
 330 294 l 1
 236 294 l 1xbc
 236 138 l 1
EndSplineSet
EndChar

StartChar: dcroat
Encoding: 273 273 263
Width: 600
Flags: MW
HStem: -12 140<271.5 273.5> 0 21G<396 536 396 396> 352 140<198.5 311.5> 550 80<216 364 216 364> 550 146<216 536> 553.5 142.5
VStem: 42 176<200.5 282.5 200.5 319> 364 172<164 328 328 328 514 550 550 550 630 696 0 696>
LayerCount: 2
Fore
SplineSet
364 164 m 1xb3
 364 328 l 1
 344 345 322 352 301 352 c 0
 256 352 218 323 218 242 c 0
 218 159 247 128 296 128 c 0
 324 128 345 136 364 164 c 1xb3
600 630 m 1
 600 556 l 1
 536 551 l 1
 536 0 l 1
 396 0 l 1x67
 384 46 l 1
 380 46 l 1
 345 12 296 -12 251 -12 c 0
 124 -12 42 84 42 240 c 0
 42 398 146 492 251 492 c 0
 306 492 339 472 370 442 c 1
 364 514 l 1
 364 550 l 1
 216 550 l 1xab
 216 630 l 1
 364 630 l 1x73
 364 696 l 1
 536 696 l 1x6b
 536 630 l 1
 600 630 l 1
EndSplineSet
EndChar

StartChar: Emacron
Encoding: 274 274 92
Width: 600
Flags: MW
HStem: 0 144<258 536 258 536> 260 144<258 486 258 486> 506 144<258 526 258 258> 716 108<170 466 170 466>
VStem: 86 172<144 260 404 506> 170 296<716 824 716 824>
LayerCount: 2
Fore
SplineSet
86 0 m 1xf8
 86 650 l 1
 526 650 l 1
 526 506 l 1
 258 506 l 1
 258 404 l 1
 486 404 l 1
 486 260 l 1
 258 260 l 1
 258 144 l 1
 536 144 l 1
 536 0 l 1
 86 0 l 1xf8
170 716 m 1xf4
 170 824 l 1
 466 824 l 1
 466 716 l 1
 170 716 l 1xf4
EndSplineSet
EndChar

StartChar: emacron
Encoding: 275 275 269
Width: 600
Flags: MW
HStem: -12 130<323.5 361> 198 112<226 394 224 543 226 226> 382 130<294.5 345> 588 108<168 456 168 456>
VStem: 168 288<588 696 588 696> 394 156<310 330>
LayerCount: 2
Fore
SplineSet
50 250 m 0xf4
 50 414 178 512 312 512 c 0
 470 512 550 404 550 270 c 0
 550 240 545 210 543 198 c 1
 226 198 l 1
 238 136 293 118 354 118 c 0
 394 118 430 128 474 148 c 1
 530 46 l 1
 470 8 392 -12 330 -12 c 0
 172 -12 50 84 50 250 c 0xf4
224 310 m 1
 394 310 l 1
 394 350 374 382 316 382 c 0
 273 382 236 362 224 310 c 1
168 588 m 1xf8
 168 696 l 1
 456 696 l 1
 456 588 l 1
 168 588 l 1xf8
EndSplineSet
EndChar

StartChar: Ebreve
Encoding: 276 276 93
Width: 600
Flags: MW
HStem: 0 144<258 536 258 536> 260 144<258 486 258 486> 506 144<258 526 258 258> 700 124<176 363>
VStem: 86 172<144 260 404 506>
LayerCount: 2
Fore
SplineSet
86 0 m 1
 86 650 l 1
 526 650 l 1
 526 506 l 1
 258 506 l 1
 258 404 l 1
 486 404 l 1
 486 260 l 1
 258 260 l 1
 258 144 l 1
 536 144 l 1
 536 0 l 1
 86 0 l 1
318 700 m 0
 228 700 184 746 176 824 c 1
 268 824 l 1
 274 800 288 784 318 784 c 0
 348 784 362 800 368 824 c 1
 460 824 l 1
 452 746 408 700 318 700 c 0
EndSplineSet
EndChar

StartChar: ebreve
Encoding: 277 277 270
Width: 600
Flags: MW
HStem: -12 130<323.5 361> 198 112<226 394 224 543 226 226> 382 130<294.5 345> 574 92<293.5 330.5 293.5 363.5>
VStem: 158 94<738 738> 372 94<738 738> 394 156<310 330>
LayerCount: 2
Fore
SplineSet
50 250 m 0xfc
 50 414 178 512 312 512 c 0
 470 512 550 404 550 270 c 0
 550 240 545 210 543 198 c 1xfa
 226 198 l 1
 238 136 293 118 354 118 c 0
 394 118 430 128 474 148 c 1
 530 46 l 1
 470 8 392 -12 330 -12 c 0
 172 -12 50 84 50 250 c 0xfc
224 310 m 1
 394 310 l 1
 394 350 374 382 316 382 c 0xfa
 273 382 236 362 224 310 c 1
312 574 m 0
 209 574 160 650 158 738 c 1
 252 738 l 1
 257 696 275 666 312 666 c 0
 349 666 367 696 372 738 c 1
 466 738 l 1xfc
 464 650 415 574 312 574 c 0
EndSplineSet
EndChar

StartChar: Edotaccent
Encoding: 278 278 94
Width: 600
Flags: MW
HStem: 0 144<258 536 258 536> 260 144<258 486 258 486> 506 144<258 526 258 258> 696 172<290 346>
VStem: 86 172<144 260 404 506> 222 192<757 807>
LayerCount: 2
Fore
SplineSet
86 0 m 1xe8
 86 650 l 1
 526 650 l 1
 526 506 l 1
 258 506 l 1
 258 404 l 1
 486 404 l 1
 486 260 l 1
 258 260 l 1
 258 144 l 1
 536 144 l 1
 536 0 l 1
 86 0 l 1xe8
318 696 m 0xf4
 262 696 222 732 222 782 c 0
 222 832 262 868 318 868 c 0
 374 868 414 832 414 782 c 0
 414 732 374 696 318 696 c 0xf4
EndSplineSet
EndChar

StartChar: edotaccent
Encoding: 279 279 271
Width: 600
Flags: MW
HStem: -12 130<323.5 361> 198 112<226 394 224 543 226 226> 382 130<294.5 345> 562 202<280 344>
VStem: 202 220<632 692> 394 156<310 330>
LayerCount: 2
Fore
SplineSet
50 250 m 0xe4
 50 414 178 512 312 512 c 0
 470 512 550 404 550 270 c 0
 550 240 545 210 543 198 c 1
 226 198 l 1
 238 136 293 118 354 118 c 0
 394 118 430 128 474 148 c 1
 530 46 l 1
 470 8 392 -12 330 -12 c 0
 172 -12 50 84 50 250 c 0xe4
224 310 m 1
 394 310 l 1
 394 350 374 382 316 382 c 0
 273 382 236 362 224 310 c 1
312 562 m 0xf8
 248 562 202 602 202 662 c 0
 202 722 248 764 312 764 c 0
 376 764 422 722 422 662 c 0
 422 602 376 562 312 562 c 0xf8
EndSplineSet
EndChar

StartChar: Eogonek
Encoding: 280 280 103
Width: 600
GlyphClass: 2
Flags: MW
HStem: -228 110<410 492> 0 144<258 402 507 530 530 536> 260 144<258 486 258 486> 506 144<258 526 258 258>
VStem: 86 172<144 260 404 506> 322 124<-161 -63.5>
AnchorPoint: "Anchor-0" 318 672 basechar 0
LayerCount: 2
Fore
SplineSet
86 0 m 1
 86 650 l 1
 526 650 l 1
 526 506 l 1
 258 506 l 1
 258 404 l 1
 486 404 l 1
 486 260 l 1
 258 260 l 1
 258 144 l 1
 536 144 l 1
 536 0 l 1
 530 0 l 2
 484 0 446 -43 446 -84 c 0
 446 -108 466 -118 486 -118 c 0
 498 -118 511 -110 520 -104 c 1
 558 -190 l 1
 530 -212 482 -228 444 -228 c 0
 376 -228 322 -192 322 -130 c 0
 322 -67 369 -20 402 0 c 1
 86 0 l 1
EndSplineSet
Ligature2: "'ccmp' Glyph Composition/Decomposition in Latin lookup 6 subtable" E uni0328
EndChar

StartChar: eogonek
Encoding: 281 281 280
Width: 600
GlyphClass: 2
Flags: MW
HStem: -212 100<391 471> -176 21G<532 532> -12 130<323.5 335.5> 198 112<226 394 224 543 226 226> 382 130<294.5 345>
VStem: 312 112<-149 -59> 394 156<310 330>
AnchorPoint: "Anchor-0" 311 522 basechar 0
LayerCount: 2
Fore
SplineSet
474 148 m 1x7c
 530 46 l 1
 442 -14 424 -40 424 -78 c 0
 424 -101 442 -112 465 -112 c 0
 477 -112 489 -106 498 -100 c 1xbc
 532 -176 l 1x7c
 504 -198 456 -212 422 -212 c 0
 360 -212 312 -180 312 -118 c 0
 312 -70 341 -32 366 -10 c 1
 347 -12 341 -12 330 -12 c 0xbc
 172 -12 50 84 50 250 c 0
 50 414 178 512 312 512 c 0
 470 512 550 404 550 270 c 0
 550 240 545 210 543 198 c 1x7a
 226 198 l 1
 238 136 293 118 354 118 c 0
 394 118 430 128 474 148 c 1x7c
224 310 m 1
 394 310 l 1
 394 350 374 382 316 382 c 0x7a
 273 382 236 362 224 310 c 1
EndSplineSet
Ligature2: "'ccmp' Glyph Composition/Decomposition in Latin lookup 6 subtable" e uni0328
EndChar

StartChar: Ecaron
Encoding: 282 282 90
Width: 600
Flags: MW
HStem: 0 144<258 536 258 536> 260 144<258 486 258 486> 506 144<258 526 258 258> 700 124<234 268 368 402 234 234>
VStem: 86 172<144 260 404 506>
LayerCount: 2
Fore
SplineSet
86 0 m 1
 86 650 l 1
 526 650 l 1
 526 506 l 1
 258 506 l 1
 258 404 l 1
 486 404 l 1
 486 260 l 1
 258 260 l 1
 258 144 l 1
 536 144 l 1
 536 0 l 1
 86 0 l 1
368 824 m 1
 498 824 l 1
 402 700 l 1
 234 700 l 1
 138 824 l 1
 268 824 l 1
 316 766 l 1
 320 766 l 1
 368 824 l 1
EndSplineSet
EndChar

StartChar: ecaron
Encoding: 283 283 267
Width: 600
Flags: MW
HStem: -12 130<323.5 361> 198 112<226 394 224 543 226 226> 382 130<294.5 345> 574 174<240 240 240 262 362 384>
VStem: 394 156<310 330>
LayerCount: 2
Fore
SplineSet
50 250 m 0
 50 414 178 512 312 512 c 0
 470 512 550 404 550 270 c 0
 550 240 545 210 543 198 c 1
 226 198 l 1
 238 136 293 118 354 118 c 0
 394 118 430 128 474 148 c 1
 530 46 l 1
 470 8 392 -12 330 -12 c 0
 172 -12 50 84 50 250 c 0
224 310 m 1
 394 310 l 1
 394 350 374 382 316 382 c 0
 273 382 236 362 224 310 c 1
240 574 m 1
 138 748 l 1
 262 748 l 1
 310 654 l 1
 314 654 l 1
 362 748 l 1
 486 748 l 1
 384 574 l 1
 240 574 l 1
EndSplineSet
EndChar

StartChar: Gcircumflex
Encoding: 284 284 104
Width: 600
Flags: MW
HStem: -12 148<308.5 363 308.5 386.5> 238 140<318 399 318 552> 514 148<310.5 369.5> 700 124<246 280 150 414 380 380 380 414 246 510>
VStem: 40 177<265 385 265 430> 399 153<148 238 238 238>
LayerCount: 2
Fore
SplineSet
40 320 m 0
 40 540 177 662 346 662 c 0
 434 662 497 622 540 578 c 1
 446 472 l 1
 419 498 393 514 346 514 c 0
 275 514 217 444 217 326 c 0
 217 204 262 136 355 136 c 0
 371 136 389 140 399 148 c 1
 399 238 l 1
 318 238 l 1
 318 378 l 1
 552 378 l 1
 552 68 l 1
 507 28 428 -12 345 -12 c 0
 178 -12 40 98 40 320 c 0
280 700 m 1
 150 700 l 1
 246 824 l 1
 414 824 l 1
 510 700 l 1
 380 700 l 1
 332 758 l 1
 328 758 l 1
 280 700 l 1
EndSplineSet
EndChar

StartChar: Gbreve
Encoding: 286 286 105
Width: 600
Flags: MW
HStem: -12 148<308.5 363 308.5 386.5> 238 140<318 399 318 552> 514 148<310.5 369.5> 700 124<188 375>
VStem: 40 177<265 385 265 430> 399 153<148 238 238 238>
LayerCount: 2
Fore
SplineSet
40 320 m 0
 40 540 177 662 346 662 c 0
 434 662 497 622 540 578 c 1
 446 472 l 1
 419 498 393 514 346 514 c 0
 275 514 217 444 217 326 c 0
 217 204 262 136 355 136 c 0
 371 136 389 140 399 148 c 1
 399 238 l 1
 318 238 l 1
 318 378 l 1
 552 378 l 1
 552 68 l 1
 507 28 428 -12 345 -12 c 0
 178 -12 40 98 40 320 c 0
330 700 m 0
 240 700 196 746 188 824 c 1
 280 824 l 1
 286 800 300 784 330 784 c 0
 360 784 374 800 380 824 c 1
 472 824 l 1
 464 746 420 700 330 700 c 0
EndSplineSet
EndChar

StartChar: gbreve
Encoding: 287 287 282
Width: 600
Flags: MW
HStem: -206 106<262.5 329.5 262.5 362.5> -24 130<282 284 284 334> 158 102<274 299.5 266.5 342.5> 376 124<480 570 480 480> 398 114<266.5 298 225 299.5> 574 92<284.5 321.5 284.5 354.5>
VStem: 44 139<-70 -61.5> 62 161<306 353 306 392> 70 134<83 143> 149 94<738 738> 344 150<306 334 265 353> 363 94<738 738> 412 163<-68 -41>
LayerCount: 2
Fore
SplineSet
183 -54 m 0xf608
 183 -86 229 -100 296 -100 c 0
 363 -100 412 -82 412 -54 c 0
 412 -28 384 -24 334 -24 c 2
 284 -24 l 2
 245 -24 225 -22 208 -18 c 1
 191 -30 183 -40 183 -54 c 0xf608
44 -82 m 0
 44 -41 70 -10 120 14 c 1
 120 18 l 1
 92 36 70 62 70 104 c 0xf490
 70 138 95 174 130 198 c 1
 130 202 l 1
 92 226 62 272 62 330 c 0
 62 454 167 512 283 512 c 0xed20
 313 512 343 508 368 500 c 1
 570 500 l 1
 570 376 l 1
 480 376 l 1
 487 364 494 344 494 324 c 0
 494 206 402 158 283 158 c 0
 265 158 244 160 220 165 c 1
 208 156 204 150 204 136 c 0
 204 114 226 106 282 106 c 2xf4a0
 367 106 l 2
 499 106 575 68 575 -24 c 0
 575 -132 456 -206 269 -206 c 0
 145 -206 44 -172 44 -82 c 0
283 260 m 0xed20
 316 260 344 282 344 330 c 0
 344 376 316 398 283 398 c 0
 250 398 223 376 223 330 c 0
 223 282 250 260 283 260 c 0xed20
303 574 m 0xf450
 200 574 151 650 149 738 c 1
 243 738 l 1
 248 696 266 666 303 666 c 0
 340 666 358 696 363 738 c 1
 457 738 l 1
 455 650 406 574 303 574 c 0xf450
EndSplineSet
Substitution2: "'ss03' Style Set 3 in Latin lookup 19 subtable" gbreve.a
Substitution2: "'aalt' Access All Alternates in Latin lookup 0 subtable" gbreve.a
EndChar

StartChar: Gdotaccent
Encoding: 288 288 106
Width: 600
Flags: MW
HStem: -12 148<308.5 363 308.5 386.5> 238 140<318 399 318 552> 514 148<310.5 369.5> 696 172<302 358>
VStem: 40 177<265 385 265 430> 234 192<757 807> 399 153<148 238 238 238>
LayerCount: 2
Fore
SplineSet
40 320 m 0xea
 40 540 177 662 346 662 c 0
 434 662 497 622 540 578 c 1
 446 472 l 1
 419 498 393 514 346 514 c 0
 275 514 217 444 217 326 c 0
 217 204 262 136 355 136 c 0
 371 136 389 140 399 148 c 1
 399 238 l 1
 318 238 l 1
 318 378 l 1
 552 378 l 1
 552 68 l 1
 507 28 428 -12 345 -12 c 0
 178 -12 40 98 40 320 c 0xea
330 696 m 0xfc
 274 696 234 732 234 782 c 0
 234 832 274 868 330 868 c 0
 386 868 426 832 426 782 c 0
 426 732 386 696 330 696 c 0xfc
EndSplineSet
EndChar

StartChar: gdotaccent
Encoding: 289 289 283
Width: 600
Flags: MW
HStem: -206 106<262.5 329.5 262.5 362.5> -24 130<282 284 284 334> 158 102<274 299.5 266.5 342.5> 376 124<480 570 480 480> 398 114<266.5 298 225 299.5> 562 202<271 335>
VStem: 44 139<-70 -61.5> 62 161<306 353 306 392> 70 134<83 143> 193 220<632 692> 344 150<306 334 265 353> 412 163<-68 -41>
LayerCount: 2
Fore
SplineSet
183 -54 m 0xf610
 183 -86 229 -100 296 -100 c 0
 363 -100 412 -82 412 -54 c 0
 412 -28 384 -24 334 -24 c 2
 284 -24 l 2
 245 -24 225 -22 208 -18 c 1
 191 -30 183 -40 183 -54 c 0xf610
44 -82 m 0
 44 -41 70 -10 120 14 c 1
 120 18 l 1
 92 36 70 62 70 104 c 0xf4a0
 70 138 95 174 130 198 c 1
 130 202 l 1
 92 226 62 272 62 330 c 0
 62 454 167 512 283 512 c 0xed20
 313 512 343 508 368 500 c 1
 570 500 l 1
 570 376 l 1
 480 376 l 1
 487 364 494 344 494 324 c 0
 494 206 402 158 283 158 c 0
 265 158 244 160 220 165 c 1
 208 156 204 150 204 136 c 0
 204 114 226 106 282 106 c 2xf4a0
 367 106 l 2
 499 106 575 68 575 -24 c 0
 575 -132 456 -206 269 -206 c 0
 145 -206 44 -172 44 -82 c 0
283 260 m 0xed20
 316 260 344 282 344 330 c 0
 344 376 316 398 283 398 c 0
 250 398 223 376 223 330 c 0
 223 282 250 260 283 260 c 0xed20
303 562 m 0xf440
 239 562 193 602 193 662 c 0
 193 722 239 764 303 764 c 0
 367 764 413 722 413 662 c 0
 413 602 367 562 303 562 c 0xf440
EndSplineSet
Substitution2: "'ss03' Style Set 3 in Latin lookup 19 subtable" gdotaccent.a
Substitution2: "'aalt' Access All Alternates in Latin lookup 0 subtable" gdotaccent.a
EndChar

StartChar: uni0122
Encoding: 290 290 107
Width: 600
Flags: MW
HStem: -234 66<224 236> -12 148<308.5 363 308.5 386.5> 238 140<318 399 318 552> 514 148<310.5 369.5>
VStem: 40 177<265 385 265 430> 304 122<-145 -126> 399 153<148 238 238 238>
LayerCount: 2
Fore
SplineSet
40 320 m 0x7a
 40 540 177 662 346 662 c 0
 434 662 497 622 540 578 c 1
 446 472 l 1
 419 498 393 514 346 514 c 0
 275 514 217 444 217 326 c 0
 217 204 262 136 355 136 c 0
 371 136 389 140 399 148 c 1
 399 238 l 1
 318 238 l 1
 318 378 l 1
 552 378 l 1
 552 68 l 1
 507 28 428 -12 345 -12 c 0
 178 -12 40 98 40 320 c 0x7a
296 -40 m 1xfc
 394 -48 426 -74 426 -126 c 0
 426 -198 338 -230 236 -234 c 1
 224 -168 l 1
 270 -164 304 -156 304 -134 c 0
 304 -118 294 -108 264 -100 c 1
 296 -40 l 1xfc
EndSplineSet
EndChar

StartChar: uni0123
Encoding: 291 291 284
Width: 600
GlyphClass: 3
Flags: MW
HStem: -206 106<262.5 329.5 262.5 362.5> -24 130<282 284 284 334> 158 102<274 299.5 266.5 342.5> 376 124<480 570 480 480> 398 114<266.5 298 225 299.5> 674 66<401 413>
VStem: 44 139<-70 -61.5> 62 161<306 353 306 392> 70 134<83 143> 211 122<632 651 632 668> 344 150<306 334 265 353> 412 163<-68 -41>
LayerCount: 2
Fore
SplineSet
183 -54 m 0xf610
 183 -86 229 -100 296 -100 c 0
 363 -100 412 -82 412 -54 c 0
 412 -28 384 -24 334 -24 c 2
 284 -24 l 2
 245 -24 225 -22 208 -18 c 1
 191 -30 183 -40 183 -54 c 0xf610
44 -82 m 0
 44 -41 70 -10 120 14 c 1
 120 18 l 1
 92 36 70 62 70 104 c 0xf4a0
 70 138 95 174 130 198 c 1
 130 202 l 1
 92 226 62 272 62 330 c 0
 62 454 167 512 283 512 c 0xed20
 313 512 343 508 368 500 c 1
 570 500 l 1
 570 376 l 1
 480 376 l 1
 487 364 494 344 494 324 c 0
 494 206 402 158 283 158 c 0
 265 158 244 160 220 165 c 1
 208 156 204 150 204 136 c 0
 204 114 226 106 282 106 c 2xf4a0
 367 106 l 2
 499 106 575 68 575 -24 c 0
 575 -132 456 -206 269 -206 c 0
 145 -206 44 -172 44 -82 c 0
283 260 m 0xed20
 316 260 344 282 344 330 c 0
 344 376 316 398 283 398 c 0
 250 398 223 376 223 330 c 0
 223 282 250 260 283 260 c 0xed20
341 546 m 1xf460
 243 554 211 580 211 632 c 0
 211 704 299 736 401 740 c 1
 413 674 l 1
 367 670 333 662 333 640 c 0
 333 624 343 614 373 606 c 1
 341 546 l 1xf460
EndSplineSet
Substitution2: "'ss03' Style Set 3 in Latin lookup 19 subtable" uni0123.a
Ligature2: "'ccmp' Glyph Composition/Decomposition in Latin lookup 6 subtable" g uni0327
Substitution2: "'aalt' Access All Alternates in Latin lookup 0 subtable" uni0123.a
EndChar

StartChar: Hcircumflex
Encoding: 292 292 111
Width: 600
Flags: MW
HStem: 0 21G<58 58 58 230 370 370 370 542> 258 150<230 370 230 370> 630 20G<58 230 230 230 370 542 542 542> 700 124<215 249 119 383 349 349 349 383 215 479>
VStem: 58 172<0 258 408 650> 370 172<0 258 258 258 408 650 0 650>
LayerCount: 2
Fore
SplineSet
58 0 m 1
 58 650 l 1
 230 650 l 1
 230 408 l 1
 370 408 l 1
 370 650 l 1
 542 650 l 1
 542 0 l 1
 370 0 l 1
 370 258 l 1
 230 258 l 1
 230 0 l 1
 58 0 l 1
249 700 m 1
 119 700 l 1
 215 824 l 1
 383 824 l 1
 479 700 l 1
 349 700 l 1
 301 758 l 1
 297 758 l 1
 249 700 l 1
EndSplineSet
EndChar

StartChar: hcircumflex
Encoding: 293 293 288
Width: 600
Flags: MW
HStem: 0 21G<64 64 64 236 374 374 374 546> 366 146<300 443> 676 20G<64 236 236 236> 750 124<67 101 -29 235 201 201 201 235 67 331>
VStem: 64 172<0 328 534 696> 374 172<0 286 286 308 0 314>
LayerCount: 2
Fore
SplineSet
64 0 m 1
 64 696 l 1
 236 696 l 1
 236 534 l 1
 227 446 l 1
 260 478 314 512 388 512 c 0
 498 512 546 432 546 308 c 2
 546 0 l 1
 374 0 l 1
 374 286 l 2
 374 342 360 366 316 366 c 0
 284 366 262 352 236 328 c 1
 236 0 l 1
 64 0 l 1
101 750 m 1
 -29 750 l 1
 67 874 l 1
 235 874 l 1
 331 750 l 1
 201 750 l 1
 153 808 l 1
 149 808 l 1
 101 750 l 1
EndSplineSet
EndChar

StartChar: Hbar
Encoding: 294 294 114
Width: 600
Flags: MW
HStem: 0 21G<58 230 58 58 370 542 370 370> 258 150<230 370 230 370> 484 76 484 80<230 370 230 370 542 600> 484 166<0 230 0 230 58 370 58 230>
VStem: 58 172<0 258 408 484 564 650> 370 172<0 258 258 258 408 484 0 484 564 650 0 650>
LayerCount: 2
Fore
SplineSet
370 408 m 1xce
 370 484 l 1
 230 484 l 1
 230 408 l 1
 370 408 l 1xce
600 564 m 1xd6
 600 484 l 1
 542 484 l 1
 542 0 l 1
 370 0 l 1
 370 258 l 1
 230 258 l 1
 230 0 l 1
 58 0 l 1
 58 484 l 1
 0 484 l 1xce
 0 558 l 1
 58 563 l 1xe6
 58 650 l 1
 230 650 l 1xce
 230 564 l 1
 370 564 l 1xd6
 370 650 l 1
 542 650 l 1xce
 542 564 l 1
 600 564 l 1xd6
EndSplineSet
EndChar

StartChar: hbar
Encoding: 295 295 291
Width: 600
Flags: MW
HStem: 0 21G<64 236 64 64 374 546 374 374> 346 146<300 443> 550 76.5 550 80<236 406 236 406> 550 146<0 236 0 236 64 236 64 406>
VStem: 64 172<0 308 514 550 630 696> 374 172<0 266 266 288 0 294>
LayerCount: 2
Fore
SplineSet
236 514 m 1xce
 227 426 l 1
 260 458 314 492 388 492 c 0
 498 492 546 412 546 288 c 2
 546 0 l 1
 374 0 l 1
 374 266 l 2
 374 322 360 346 316 346 c 0
 284 346 262 332 236 308 c 1
 236 0 l 1
 64 0 l 1
 64 550 l 1
 0 550 l 1xce
 0 624 l 1
 64 629 l 1xe6
 64 696 l 1
 236 696 l 1xce
 236 630 l 1
 406 630 l 1xd6
 406 550 l 1
 236 550 l 1
 236 514 l 1xce
EndSplineSet
EndChar

StartChar: Itilde
Encoding: 296 296 118
Width: 600
Flags: MW
HStem: 0 144<66 214 66 214 386 534> 506 144<66 214 66 534 386 386 386 534> 700 146<120 263 120 263 209 391>
VStem: 214 172<144 506 144 506>
LayerCount: 2
Fore
SplineSet
66 0 m 1
 66 144 l 1
 214 144 l 1
 214 506 l 1
 66 506 l 1
 66 650 l 1
 534 650 l 1
 534 506 l 1
 386 506 l 1
 386 144 l 1
 534 144 l 1
 534 0 l 1
 66 0 l 1
364 700 m 0
 310 700 272 742 244 742 c 0
 228 742 214 732 206 700 c 1
 120 700 l 1
 132 802 182 846 236 846 c 0
 290 846 328 804 356 804 c 0
 372 804 386 814 394 846 c 1
 480 846 l 1
 468 744 418 700 364 700 c 0
EndSplineSet
EndChar

StartChar: itilde
Encoding: 297 297 295
Width: 600
Flags: MW
HStem: 0 21G<264 436 264 264> 366 134<74 436 74 264> 574 156<162 314.5 162 314.5 258 430>
VStem: 264 172<0 366 366 366>
LayerCount: 2
Fore
SplineSet
74 366 m 1
 74 500 l 1
 436 500 l 1
 436 0 l 1
 264 0 l 1
 264 366 l 1
 74 366 l 1
162 574 m 1
 176 683 226 730 290 730 c 0
 339 730 370 678 396 678 c 0
 417 678 430 690 440 730 c 1
 526 730 l 1
 512 621 462 574 398 574 c 0
 348 574 318 626 292 626 c 0
 271 626 258 614 248 574 c 1
 162 574 l 1
EndSplineSet
EndChar

StartChar: Imacron
Encoding: 298 298 120
Width: 600
Flags: MW
HStem: 0 144<66 214 66 214 386 534> 506 144<66 214 66 534 386 386 386 534> 716 108<152 448 152 448>
VStem: 152 296<716 824 716 824> 214 172<144 506 144 506>
LayerCount: 2
Fore
SplineSet
66 0 m 1xe8
 66 144 l 1
 214 144 l 1
 214 506 l 1
 66 506 l 1
 66 650 l 1
 534 650 l 1
 534 506 l 1
 386 506 l 1
 386 144 l 1
 534 144 l 1
 534 0 l 1
 66 0 l 1xe8
152 716 m 1xf0
 152 824 l 1
 448 824 l 1
 448 716 l 1
 152 716 l 1xf0
EndSplineSet
EndChar

StartChar: imacron
Encoding: 299 299 297
Width: 600
Flags: MW
HStem: 0 21G<264 436 264 264> 366 134<74 436 74 264> 588 108<200 488 200 488>
VStem: 200 288<588 696 588 696> 264 172<0 366 366 366>
LayerCount: 2
Fore
SplineSet
74 366 m 1xe8
 74 500 l 1
 436 500 l 1
 436 0 l 1
 264 0 l 1
 264 366 l 1
 74 366 l 1xe8
200 588 m 1xf0
 200 696 l 1
 488 696 l 1
 488 588 l 1
 200 588 l 1xf0
EndSplineSet
EndChar

StartChar: uni012C
Encoding: 300 300 121
Width: 600
Flags: MW
HStem: 0 144<66 214 66 214 386 534> 506 144<66 214 66 534 386 386 386 534> 700 124<158 345>
VStem: 214 172<144 506 144 506>
LayerCount: 2
Fore
SplineSet
66 0 m 1
 66 144 l 1
 214 144 l 1
 214 506 l 1
 66 506 l 1
 66 650 l 1
 534 650 l 1
 534 506 l 1
 386 506 l 1
 386 144 l 1
 534 144 l 1
 534 0 l 1
 66 0 l 1
300 700 m 0
 210 700 166 746 158 824 c 1
 250 824 l 1
 256 800 270 784 300 784 c 0
 330 784 344 800 350 824 c 1
 442 824 l 1
 434 746 390 700 300 700 c 0
EndSplineSet
EndChar

StartChar: uni012D
Encoding: 301 301 298
Width: 600
Flags: MW
HStem: 0 21G<264 436 264 264> 366 134<74 436 74 264> 574 92<325.5 362.5 325.5 395.5>
VStem: 190 94<738 738> 264 172<0 366 366 366> 404 94<738 738>
LayerCount: 2
Fore
SplineSet
74 366 m 1xe8
 74 500 l 1
 436 500 l 1
 436 0 l 1
 264 0 l 1
 264 366 l 1
 74 366 l 1xe8
344 574 m 0xf4
 241 574 192 650 190 738 c 1
 284 738 l 1
 289 696 307 666 344 666 c 0
 381 666 399 696 404 738 c 1
 498 738 l 1
 496 650 447 574 344 574 c 0xf4
EndSplineSet
EndChar

StartChar: Iogonek
Encoding: 302 302 126
Width: 600
GlyphClass: 2
Flags: MW
HStem: -228 110<272 353.5> 0 144<66 214 66 214 66 261 386 534> 506 144<66 214 66 534 386 386 386 534>
VStem: 184 124<-161 -68> 214 172<144 506>
AnchorPoint: "Anchor-0" 300 672 basechar 0
LayerCount: 2
Fore
SplineSet
66 0 m 1x68
 66 144 l 1
 214 144 l 1
 214 506 l 1
 66 506 l 1
 66 650 l 1
 534 650 l 1
 534 506 l 1
 386 506 l 1
 386 144 l 1x68
 534 144 l 1
 534 0 l 1
 386 0 l 1
 328 -18 308 -52 308 -84 c 0
 308 -108 328 -118 347 -118 c 0
 360 -118 374 -110 382 -104 c 1
 420 -190 l 1
 392 -212 344 -228 306 -228 c 0
 238 -228 184 -192 184 -130 c 0
 184 -64 233 -18 261 0 c 1xf0
 66 0 l 1x68
EndSplineSet
Ligature2: "'ccmp' Glyph Composition/Decomposition in Latin lookup 6 subtable" I uni0328
EndChar

StartChar: iogonek
Encoding: 303 303 302
Width: 600
GlyphClass: 3
Flags: MW
HStem: -212 100<329 408.5> -176 21G<470 470> 0 21G<264 264 264 314 436 436> 366 134<74 264 74 436> 562 202<312 376>
VStem: 234 220<632 692> 248 114<-89.5 -88.5> 264 172<0 366 366 366>
LayerCount: 2
Fore
SplineSet
264 0 m 1x79
 264 366 l 1
 74 366 l 1
 74 500 l 1
 436 500 l 1
 436 0 l 1
 378 -16 362 -50 362 -78 c 0
 362 -101 381 -112 403 -112 c 0
 414 -112 425 -106 436 -100 c 1xb9
 470 -176 l 1x79
 442 -198 394 -212 360 -212 c 0
 298 -212 248 -180 248 -118 c 0
 248 -59 290 -17 314 0 c 1xba
 264 0 l 1x79
344 562 m 0x7c
 280 562 234 602 234 662 c 0
 234 722 280 764 344 764 c 0
 408 764 454 722 454 662 c 0
 454 602 408 562 344 562 c 0x7c
EndSplineSet
Substitution2: "Single Substitution lookup 22 subtable" iogonek.d
Ligature2: "'ccmp' Glyph Composition/Decomposition in Latin lookup 6 subtable" i uni0328
EndChar

StartChar: Idotaccent
Encoding: 304 304 122
Width: 600
Flags: MW
HStem: 0 144<66 214 66 214 386 534> 506 144<66 214 66 534 386 386 386 534> 696 172<272 328>
VStem: 204 192<757 807> 214 172<144 506 144 506>
LayerCount: 2
Fore
SplineSet
66 0 m 1xc8
 66 144 l 1
 214 144 l 1
 214 506 l 1
 66 506 l 1
 66 650 l 1
 534 650 l 1
 534 506 l 1
 386 506 l 1
 386 144 l 1
 534 144 l 1
 534 0 l 1
 66 0 l 1xc8
300 696 m 0xf0
 244 696 204 732 204 782 c 0
 204 832 244 868 300 868 c 0
 356 868 396 832 396 782 c 0
 396 732 356 696 300 696 c 0xf0
EndSplineSet
EndChar

StartChar: dotlessi
Encoding: 305 305 304
Width: 600
GlyphClass: 2
Flags: MW
HStem: 0 21G<264 436 264 264> 366 134<74 436 74 264>
VStem: 264 172<0 366 366 366>
AnchorPoint: "Anchor-4" 396 0 basechar 0
AnchorPoint: "Anchor-2" 344 -22 basechar 0
AnchorPoint: "Anchor-0" 344 522 basechar 0
LayerCount: 2
Fore
SplineSet
74 366 m 1
 74 500 l 1
 436 500 l 1
 436 0 l 1
 264 0 l 1
 264 366 l 1
 74 366 l 1
EndSplineSet
EndChar

StartChar: Jcircumflex
Encoding: 308 308 127
Width: 600
Flags: MW
HStem: -12 148<246 294 246 365.5> 506 144<106 353 106 525> 700 124<238 272 142 406 372 372 372 406 238 502>
VStem: 353 172<240 506 506 506>
LayerCount: 2
Fore
SplineSet
51 95 m 1
 148 202 l 1
 185 160 226 136 266 136 c 0
 322 136 353 158 353 240 c 2
 353 506 l 1
 106 506 l 1
 106 650 l 1
 525 650 l 1
 525 226 l 2
 525 96 459 -12 272 -12 c 0
 200 -12 112 14 51 95 c 1
272 700 m 1
 142 700 l 1
 238 824 l 1
 406 824 l 1
 502 700 l 1
 372 700 l 1
 324 758 l 1
 320 758 l 1
 272 700 l 1
EndSplineSet
EndChar

StartChar: jcircumflex
Encoding: 309 309 305
Width: 600
Flags: MW
HStem: -188 134<170 213.5 170 289.5> 366 134<74 436 74 264> 574 174<170 416 272 294 394 394 394 416 272 518>
VStem: 264 172<40 46 46 366 366 366>
LayerCount: 2
Fore
SplineSet
74 366 m 1
 74 500 l 1
 436 500 l 1
 436 46 l 2
 436 -76 384 -188 195 -188 c 0
 130 -188 81 -174 37 -154 c 1
 86 -32 l 1
 128 -50 157 -54 183 -54 c 0
 244 -54 264 -28 264 40 c 2
 264 366 l 1
 74 366 l 1
170 574 m 1
 272 748 l 1
 416 748 l 1
 518 574 l 1
 394 574 l 1
 346 668 l 1
 342 668 l 1
 294 574 l 1
 170 574 l 1
EndSplineSet
EndChar

StartChar: uni0136
Encoding: 310 310 128
Width: 600
Flags: MW
HStem: -234 66<208 220> 0 21G<57 57 57 230 410 410 410 599> 630 20G<57 230 230 230 394 583 583 583>
VStem: 57 173<0 162 408 650> 288 122<-145 -126>
LayerCount: 2
Fore
SplineSet
57 0 m 1
 57 650 l 1
 230 650 l 1
 230 408 l 1
 234 408 l 1
 394 650 l 1
 583 650 l 1
 392 386 l 1
 599 0 l 1
 410 0 l 1
 292 250 l 1
 230 162 l 1
 230 0 l 1
 57 0 l 1
280 -40 m 1
 378 -48 410 -74 410 -126 c 0
 410 -198 322 -230 220 -234 c 1
 208 -168 l 1
 254 -164 288 -156 288 -134 c 0
 288 -118 278 -108 248 -100 c 1
 280 -40 l 1
EndSplineSet
EndChar

StartChar: uni0137
Encoding: 311 311 306
Width: 600
Flags: MW
HStem: -234 66<210 222> 0 21G<64 64 64 236 404 404 404 590> 480 20G<392 578 578 578> 676 20G<64 236 236 236>
VStem: 64 172<0 122 322 696> 290 122<-145 -126>
LayerCount: 2
Fore
SplineSet
64 0 m 1
 64 696 l 1
 236 696 l 1
 236 322 l 1
 240 322 l 1
 392 500 l 1
 578 500 l 1
 393 292 l 1
 590 0 l 1
 404 0 l 1
 294 186 l 1
 236 122 l 1
 236 0 l 1
 64 0 l 1
282 -40 m 1
 380 -48 412 -74 412 -126 c 0
 412 -198 324 -230 222 -234 c 1
 210 -168 l 1
 256 -164 290 -156 290 -134 c 0
 290 -118 280 -108 250 -100 c 1
 282 -40 l 1
EndSplineSet
EndChar

StartChar: kgreenlandic
Encoding: 312 312 307
Width: 600
Flags: MW
HStem: 0 21G<64 64 64 236 404 404 404 590> 480 20G<64 236 236 236 392 578 578 578>
VStem: 64 172<0 120 326 500>
LayerCount: 2
Fore
SplineSet
64 0 m 1
 64 500 l 1
 236 500 l 1
 236 326 l 1
 240 326 l 1
 392 500 l 1
 578 500 l 1
 393 292 l 1
 590 0 l 1
 404 0 l 1
 295 178 l 1
 236 120 l 1
 236 0 l 1
 64 0 l 1
EndSplineSet
EndChar

StartChar: Lacute
Encoding: 313 313 129
Width: 600
Flags: MW
HStem: 0 144<268 545 268 545> 630 20G<96 268 268 268> 700 124<191 249 113 371>
VStem: 96 172<144 650 144 650 144 650>
LayerCount: 2
Fore
SplineSet
96 0 m 1
 96 650 l 1
 268 650 l 1
 268 144 l 1
 545 144 l 1
 545 0 l 1
 96 0 l 1
371 824 m 1
 249 700 l 1
 113 700 l 1
 191 824 l 1
 371 824 l 1
EndSplineSet
EndChar

StartChar: lacute
Encoding: 314 314 308
Width: 600
Flags: MW
HStem: -12 138<419.5 423.5> 562 134<54 362 54 190> 756 124<254 312 176 434>
VStem: 190 172<206 562 562 562>
LayerCount: 2
Fore
SplineSet
54 562 m 1
 54 696 l 1
 362 696 l 1
 362 200 l 2
 362 142 402 126 437 126 c 0
 458 126 480 130 509 140 c 1
 546 14 l 1
 492 -2 456 -12 391 -12 c 0
 258 -12 190 76 190 206 c 2
 190 562 l 1
 54 562 l 1
434 880 m 1
 312 756 l 1
 176 756 l 1
 254 880 l 1
 434 880 l 1
EndSplineSet
EndChar

StartChar: uni013B
Encoding: 315 315 131
Width: 600
Flags: MW
HStem: -234 66<216 228> 0 144<268 545 268 545> 630 20G<96 268 268 268>
VStem: 96 172<144 650 144 650 144 650> 296 122<-145 -126>
LayerCount: 2
Fore
SplineSet
96 0 m 1
 96 650 l 1
 268 650 l 1
 268 144 l 1
 545 144 l 1
 545 0 l 1
 96 0 l 1
288 -40 m 1xf8
 386 -48 418 -74 418 -126 c 0
 418 -198 330 -230 228 -234 c 1
 216 -168 l 1
 262 -164 296 -156 296 -134 c 0
 296 -118 286 -108 256 -100 c 1
 288 -40 l 1xf8
EndSplineSet
EndChar

StartChar: uni013C
Encoding: 316 316 311
Width: 600
Flags: MW
HStem: -234 66<248 260> -12 138<419.5 423.5> 562 134<54 362 54 190>
VStem: 190 172<206 562 562 562> 328 122<-145 -126>
LayerCount: 2
Fore
SplineSet
54 562 m 1xf0
 54 696 l 1
 362 696 l 1
 362 200 l 2
 362 142 402 126 437 126 c 0
 458 126 480 130 509 140 c 1
 546 14 l 1
 492 -2 456 -12 391 -12 c 0
 258 -12 190 76 190 206 c 2
 190 562 l 1
 54 562 l 1xf0
320 -40 m 1xe8
 418 -48 450 -74 450 -126 c 0
 450 -198 362 -230 260 -234 c 1
 248 -168 l 1
 294 -164 328 -156 328 -134 c 0
 328 -118 318 -108 288 -100 c 1
 320 -40 l 1xe8
EndSplineSet
EndChar

StartChar: Lcaron
Encoding: 317 317 130
Width: 600
Flags: MW
HStem: 0 144<268 545 268 545> 508 142<96 457 96 385> 508 226<385 457 385 385>
VStem: 96 172<144 650 144 650 144 650> 382 104
LayerCount: 2
Fore
SplineSet
96 0 m 1xd8
 96 650 l 1
 268 650 l 1
 268 144 l 1
 545 144 l 1
 545 0 l 1
 96 0 l 1xd8
457 508 m 1
 385 508 l 1xd8
 379 734 l 1
 487 734 l 1
 485 660 l 1xb8
 457 508 l 1
EndSplineSet
EndChar

StartChar: lcaron
Encoding: 318 318 309
Width: 600
GlyphClass: 3
Flags: MW
HStem: -12 138<419.5 423.5> 548 226<419 491 419 419> 562 134<54 362 54 190>
VStem: 190 172<206 562 562 562> 416 104
LayerCount: 2
Fore
SplineSet
54 562 m 1xb8
 54 696 l 1
 362 696 l 1
 362 200 l 2
 362 142 402 126 437 126 c 0
 458 126 480 130 509 140 c 1
 546 14 l 1
 492 -2 456 -12 391 -12 c 0
 258 -12 190 76 190 206 c 2
 190 562 l 1
 54 562 l 1xb8
491 548 m 1xd8
 419 548 l 1
 413 774 l 1
 521 774 l 1
 519 700 l 1
 491 548 l 1xd8
EndSplineSet
Ligature2: "'ccmp' Glyph Composition/Decomposition in Latin lookup 6 subtable" l uni030C
EndChar

StartChar: Ldot
Encoding: 319 319 132
Width: 600
Flags: MW
HStem: 0 144<268 545 268 545> 256 202<430 494> 630 20G<96 268 268 268>
VStem: 96 172<144 650 144 650 144 650> 352 220<326 386>
LayerCount: 2
Fore
SplineSet
96 0 m 1
 96 650 l 1
 268 650 l 1
 268 144 l 1
 545 144 l 1
 545 0 l 1
 96 0 l 1
462 256 m 0
 398 256 352 296 352 356 c 0
 352 416 398 458 462 458 c 0
 526 458 572 416 572 356 c 0
 572 296 526 256 462 256 c 0
EndSplineSet
EndChar

StartChar: ldot
Encoding: 320 320 310
Width: 600
Flags: MW
HStem: -12 138<365.5 369.5> 254 202<452 516> 562 134<0 308 0 136>
VStem: 136 172<206 562 562 562> 374 220<324 384>
LayerCount: 2
Fore
SplineSet
0 562 m 1
 0 696 l 1
 308 696 l 1
 308 200 l 2
 308 142 348 126 383 126 c 0
 404 126 426 130 455 140 c 1
 492 14 l 1
 438 -2 402 -12 337 -12 c 0
 204 -12 136 76 136 206 c 2
 136 562 l 1
 0 562 l 1
484 254 m 0
 420 254 374 294 374 354 c 0
 374 414 420 456 484 456 c 0
 548 456 594 414 594 354 c 0
 594 294 548 254 484 254 c 0
EndSplineSet
EndChar

StartChar: Lslash
Encoding: 321 321 136
Width: 600
Flags: MW
HStem: 0 144<268 545 268 545> 630 20G<96 268 268 268>
VStem: 96 172<144 144 144 187 187 187 403 650>
LayerCount: 2
Fore
SplineSet
268 144 m 1
 545 144 l 1
 545 0 l 1
 96 0 l 1
 96 187 l 1
 25 146 l 1
 25 278 l 1
 96 319 l 1
 96 650 l 1
 268 650 l 1
 268 403 l 1
 467 514 l 1
 467 382 l 1
 268 271 l 1
 268 144 l 1
EndSplineSet
EndChar

StartChar: lslash
Encoding: 322 322 315
Width: 600
Flags: MW
HStem: -12 138<419.5 423.5> 562 134<54 190 54 362>
VStem: 190 172<206 255 255 255 475 562 562 562>
LayerCount: 2
Fore
SplineSet
509 140 m 1
 546 14 l 1
 492 -2 456 -12 391 -12 c 0
 258 -12 190 76 190 206 c 2
 190 255 l 1
 81 194 l 1
 81 330 l 1
 190 391 l 1
 190 562 l 1
 54 562 l 1
 54 696 l 1
 362 696 l 1
 362 475 l 1
 505 552 l 1
 505 416 l 1
 362 339 l 1
 362 200 l 2
 362 142 402 126 437 126 c 0
 458 126 480 130 509 140 c 1
EndSplineSet
EndChar

StartChar: nacute
Encoding: 324 324 317
Width: 600
Flags: MW
HStem: 0 21G<64 64 64 236 374 374 374 546> 366 146<300 442.5> 480 20G<64 204 204 204> 574 174<314 350 226 488>
VStem: 64 172<0 328 0 500> 374 172<0 286 286 308 0 314>
LayerCount: 2
Fore
SplineSet
64 0 m 1xbc
 64 500 l 1
 204 500 l 1xbc
 216 440 l 1
 220 440 l 1
 260 478 314 512 387 512 c 0
 498 512 546 432 546 308 c 2
 546 0 l 1
 374 0 l 1
 374 286 l 2
 374 342 360 366 316 366 c 0
 284 366 262 352 236 328 c 1xdc
 236 0 l 1
 64 0 l 1xbc
488 748 m 1
 350 574 l 1
 226 574 l 1
 314 748 l 1
 488 748 l 1
EndSplineSet
EndChar

StartChar: uni0146
Encoding: 326 326 320
Width: 600
Flags: MW
HStem: -234 66<194 206> 0 21G<64 64 64 236 374 374 374 546> 366 146<300 442.5> 480 20G<64 204 204 204>
VStem: 64 172<0 328 0 500> 274 122<-145 -126> 374 172<0 286 286 308 0 314>
LayerCount: 2
Fore
SplineSet
64 0 m 1xda
 64 500 l 1
 204 500 l 1xdc
 216 440 l 1
 220 440 l 1
 260 478 314 512 387 512 c 0
 498 512 546 432 546 308 c 2
 546 0 l 1
 374 0 l 1
 374 286 l 2
 374 342 360 366 316 366 c 0
 284 366 262 352 236 328 c 1xea
 236 0 l 1
 64 0 l 1xda
266 -40 m 1
 364 -48 396 -74 396 -126 c 0
 396 -198 308 -230 206 -234 c 1
 194 -168 l 1
 240 -164 274 -156 274 -134 c 0
 274 -118 264 -108 234 -100 c 1
 266 -40 l 1
EndSplineSet
EndChar

StartChar: Ncaron
Encoding: 327 327 139
Width: 600
Flags: MW
HStem: 0 21G<60 60 60 224 366 366 366 540> 630 20G<60 234 234 234 376 540 540 540> 700 124<222 256 356 390 222 222>
VStem: 60 164<0 188 0 650> 376 164<462 650 0 650>
LayerCount: 2
Fore
SplineSet
60 0 m 1
 60 650 l 1
 234 650 l 1
 343 360 l 1
 396 214 l 1
 400 214 l 1
 392 284 376 382 376 462 c 2
 376 650 l 1
 540 650 l 1
 540 0 l 1
 366 0 l 1
 257 291 l 1
 204 436 l 1
 200 436 l 1
 208 362 224 268 224 188 c 2
 224 0 l 1
 60 0 l 1
356 824 m 1
 486 824 l 1
 390 700 l 1
 222 700 l 1
 126 824 l 1
 256 824 l 1
 304 766 l 1
 308 766 l 1
 356 824 l 1
EndSplineSet
EndChar

StartChar: ncaron
Encoding: 328 328 318
Width: 600
Flags: MW
HStem: 0 21G<64 64 64 236 374 374 374 546> 366 146<300 442.5> 480 20G<64 204 204 204> 574 174<242 242 242 264 364 386>
VStem: 64 172<0 328 0 500> 374 172<0 286 286 308 0 314>
LayerCount: 2
Fore
SplineSet
64 0 m 1xbc
 64 500 l 1
 204 500 l 1xbc
 216 440 l 1
 220 440 l 1
 260 478 314 512 387 512 c 0
 498 512 546 432 546 308 c 2
 546 0 l 1
 374 0 l 1
 374 286 l 2
 374 342 360 366 316 366 c 0
 284 366 262 352 236 328 c 1xdc
 236 0 l 1
 64 0 l 1xbc
242 574 m 1
 140 748 l 1
 264 748 l 1
 312 654 l 1
 316 654 l 1
 364 748 l 1
 488 748 l 1
 386 574 l 1
 242 574 l 1
EndSplineSet
EndChar

StartChar: napostrophe
Encoding: 329 329 324
Width: 600
Flags: MW
HStem: 0 21G<224 396 224 224 490 662 490 490> 366 134<224 466> 480 20G<224 364 364 364> 487 209<17 45> 492 20G<491 571.5> 676 20G<17 88.5>
VStem: 60 115 224 172<0 328 0 500> 490 172<0 286 286 308 0 314>
LayerCount: 2
Fore
SplineSet
-12 267 m 1x8f80
 -55 356 l 1
 18 386 56 428 60 489 c 1
 54 488 48 487 42 487 c 0x9380
 -16 487 -57 526 -57 586 c 0
 -57 653 -13 696 47 696 c 0
 130 696 175 631 175 521 c 0
 175 409 115 323 -12 267 c 1x8f80
376 440 m 1x8f80
 380 440 l 1
 416 478 459 512 523 512 c 0x8f80
 620 512 662 432 662 308 c 2
 662 0 l 1
 490 0 l 1
 490 286 l 2
 490 342 480 366 452 366 c 0
 428 366 416 352 396 328 c 1xc780
 396 0 l 1
 224 0 l 1
 224 500 l 1
 364 500 l 1xa780
 376 440 l 1x8f80
EndSplineSet
EndChar

StartChar: Omacron
Encoding: 332 332 150
Width: 600
Flags: MW
HStem: -12 148<272 328 272 379> 514 148<272 328> 716 108<152 448 152 448>
VStem: 34 176<269 387 269 435> 152 296<716 824 716 824> 390 176<269 387>
LayerCount: 2
Fore
SplineSet
300 -12 m 0xf4
 142 -12 34 114 34 328 c 0
 34 542 142 662 300 662 c 0
 458 662 566 541 566 328 c 0
 566 114 458 -12 300 -12 c 0xf4
300 136 m 0
 356 136 390 210 390 328 c 0
 390 446 356 514 300 514 c 0
 244 514 210 446 210 328 c 0
 210 210 244 136 300 136 c 0
152 716 m 1xe8
 152 824 l 1
 448 824 l 1
 448 716 l 1
 152 716 l 1xe8
EndSplineSet
EndChar

StartChar: omacron
Encoding: 333 333 330
Width: 600
Flags: MW
HStem: -12 138<271 329 271 366> 374 138<271 329> 588 108<156 444 156 444>
VStem: 42 176<212 288 212 333> 156 288<588 696 588 696> 382 176<212 288>
LayerCount: 2
Fore
SplineSet
42 250 m 0xf4
 42 416 168 512 300 512 c 0
 432 512 558 416 558 250 c 0
 558 84 432 -12 300 -12 c 0
 168 -12 42 84 42 250 c 0xf4
218 250 m 0
 218 174 242 126 300 126 c 0
 358 126 382 174 382 250 c 0
 382 326 358 374 300 374 c 0
 242 374 218 326 218 250 c 0
156 588 m 1xe8
 156 696 l 1
 444 696 l 1
 444 588 l 1
 156 588 l 1xe8
EndSplineSet
EndChar

StartChar: uni014E
Encoding: 334 334 151
Width: 600
Flags: MW
HStem: -12 148<272 328 272 379> 514 148<272 328> 700 124<158 345>
VStem: 34 176<269 387 269 435> 390 176<269 387>
LayerCount: 2
Fore
SplineSet
300 -12 m 0
 142 -12 34 114 34 328 c 0
 34 542 142 662 300 662 c 0
 458 662 566 541 566 328 c 0
 566 114 458 -12 300 -12 c 0
300 136 m 0
 356 136 390 210 390 328 c 0
 390 446 356 514 300 514 c 0
 244 514 210 446 210 328 c 0
 210 210 244 136 300 136 c 0
300 700 m 0
 210 700 166 746 158 824 c 1
 250 824 l 1
 256 800 270 784 300 784 c 0
 330 784 344 800 350 824 c 1
 442 824 l 1
 434 746 390 700 300 700 c 0
EndSplineSet
EndChar

StartChar: uni014F
Encoding: 335 335 331
Width: 600
Flags: MW
HStem: -12 138<271 329 271 366> 374 138<271 329> 574 92<281.5 318.5 281.5 351.5>
VStem: 42 176<212 288 212 333> 146 94<738 738> 360 94<738 738> 382 176<212 288>
LayerCount: 2
Fore
SplineSet
42 250 m 0xf2
 42 416 168 512 300 512 c 0
 432 512 558 416 558 250 c 0
 558 84 432 -12 300 -12 c 0
 168 -12 42 84 42 250 c 0xf2
218 250 m 0
 218 174 242 126 300 126 c 0
 358 126 382 174 382 250 c 0
 382 326 358 374 300 374 c 0
 242 374 218 326 218 250 c 0
300 574 m 0xec
 197 574 148 650 146 738 c 1
 240 738 l 1
 245 696 263 666 300 666 c 0
 337 666 355 696 360 738 c 1
 454 738 l 1
 452 650 403 574 300 574 c 0xec
EndSplineSet
EndChar

StartChar: Ohungarumlaut
Encoding: 336 336 152
Width: 600
Flags: MW
HStem: -12 148<272 328 272 379> 514 148<272 328> 700 124<214 266 152 358 340 358 402 454 340 340>
VStem: 34 176<269 387 269 435> 390 176<269 387>
LayerCount: 2
Fore
SplineSet
300 -12 m 0
 142 -12 34 114 34 328 c 0
 34 542 142 662 300 662 c 0
 458 662 566 541 566 328 c 0
 566 114 458 -12 300 -12 c 0
300 136 m 0
 356 136 390 210 390 328 c 0
 390 446 356 514 300 514 c 0
 244 514 210 446 210 328 c 0
 210 210 244 136 300 136 c 0
266 700 m 1
 152 700 l 1
 214 824 l 1
 358 824 l 1
 266 700 l 1
340 700 m 1
 402 824 l 1
 546 824 l 1
 454 700 l 1
 340 700 l 1
EndSplineSet
EndChar

StartChar: ohungarumlaut
Encoding: 337 337 332
Width: 600
Flags: MW
HStem: -12 138<271 329 271 366> 374 138<271 329> 574 154<164 366 232 268 344 366 412 448 344 344>
VStem: 42 176<212 288 212 333> 382 176<212 288>
LayerCount: 2
Fore
SplineSet
42 250 m 0
 42 416 168 512 300 512 c 0
 432 512 558 416 558 250 c 0
 558 84 432 -12 300 -12 c 0
 168 -12 42 84 42 250 c 0
218 250 m 0
 218 174 242 126 300 126 c 0
 358 126 382 174 382 250 c 0
 382 326 358 374 300 374 c 0
 242 374 218 326 218 250 c 0
164 574 m 1
 232 728 l 1
 366 728 l 1
 268 574 l 1
 164 574 l 1
344 574 m 1
 412 728 l 1
 546 728 l 1
 448 574 l 1
 344 574 l 1
EndSplineSet
EndChar

StartChar: OE
Encoding: 338 338 162
Width: 600
GlyphClass: 2
Flags: MW
HStem: 0 138<274 284 284 288 274 596> 0 144<440 596 440 596> 260 144<440 550 440 550> 506 144<440 586 440 440> 512 138<250.5 586 274 586>
VStem: 14 176<251 405 251 443> 288 152<144 260 404 506>
AnchorPoint: "Anchor-0" 388 672 basechar 0
LayerCount: 2
Fore
SplineSet
14 328 m 0x76
 14 558 138 650 294 650 c 2
 586 650 l 1
 586 506 l 1
 440 506 l 1
 440 404 l 1
 550 404 l 1
 550 260 l 1
 440 260 l 1
 440 144 l 1
 596 144 l 1
 596 0 l 1
 284 0 l 2
 133 0 14 98 14 328 c 0x76
190 328 m 0xae
 190 174 227 138 274 138 c 2
 288 138 l 1
 288 512 l 1
 274 512 l 2
 227 512 190 482 190 328 c 0xae
EndSplineSet
EndChar

StartChar: oe
Encoding: 339 339 342
Width: 600
GlyphClass: 2
Flags: MW
HStem: -12 134<430 460 430 460.5> -12 138<195.5 225 195.5 227> 198 104<368 456 366 584 368 368> 374 138<195.5 225> 382 130<409.5 433>
VStem: 12 154<212 288 212 333> 251 115<212 302> 456 134<302 324>
AnchorPoint: "Anchor-0" 314 522 basechar 0
LayerCount: 2
Fore
SplineSet
166 250 m 0x77
 166 174 179 126 212 126 c 0
 238 126 251 174 251 250 c 0
 251 326 238 374 212 374 c 0
 179 374 166 326 166 250 c 0x77
12 250 m 0
 12 416 99 512 202 512 c 0
 257 512 294 482 317 438 c 1
 344 486 388 512 431 512 c 0
 533 512 590 400 590 266 c 0
 590 236 588 220 584 198 c 1
 368 198 l 1
 382 142 412 122 448 122 c 0
 472 122 492 128 518 146 c 1xb7
 576 36 l 1
 536 4 480 -12 441 -12 c 0
 394 -12 348 11 319 52 c 1
 290 10 256 -12 198 -12 c 0
 96 -12 12 84 12 250 c 0
366 302 m 1
 456 302 l 1
 456 346 448 382 418 382 c 0x6f
 394 382 372 360 366 302 c 1
EndSplineSet
EndChar

StartChar: uni0156
Encoding: 342 342 172
Width: 600
Flags: MW
HStem: -234 66<210 222> 0 21G<58 230 58 58 404 404 404 596> 218 136<230 288 230 288 288 292> 514 136<230 230 230 288>
VStem: 58 172<0 218 354 514> 290 122<-145 -126> 392 168<412 468>
LayerCount: 2
Fore
SplineSet
230 514 m 1xfa
 230 354 l 1
 288 354 l 2
 356 354 392 384 392 440 c 0
 392 496 356 514 288 514 c 2
 230 514 l 1xfa
230 218 m 1
 230 0 l 1
 58 0 l 1
 58 650 l 1
 300 650 l 2
 440 650 560 602 560 440 c 0
 560 347 518 286 455 252 c 1
 596 0 l 1
 404 0 l 1
 292 218 l 1
 230 218 l 1
250 -100 m 1xfc
 282 -40 l 1
 380 -48 412 -74 412 -126 c 0
 412 -198 324 -230 222 -234 c 1
 210 -168 l 1
 256 -164 290 -156 290 -134 c 0
 290 -118 280 -108 250 -100 c 1xfc
EndSplineSet
EndChar

StartChar: uni0157
Encoding: 343 343 351
Width: 600
Flags: MW
HStem: -234 66<94 106> 0 21G<104 104 104 276> 362 150<419.5 449> 480 20G<104 245 245 245> 492 20
VStem: 104 172<0 248 0 500> 174 122<-145 -126>
LayerCount: 2
Fore
SplineSet
104 0 m 1xcc
 104 500 l 1
 245 500 l 1xd4
 258 394 l 1
 262 394 l 1
 310 476 382 512 457 512 c 0
 503 512 524 504 552 492 c 1xcc
 518 348 l 1
 488 357 467 362 431 362 c 0xe4
 374 362 313 332 276 248 c 1
 276 0 l 1
 104 0 l 1xcc
166 -40 m 1xca
 264 -48 296 -74 296 -126 c 0
 296 -198 208 -230 106 -234 c 1
 94 -168 l 1
 140 -164 174 -156 174 -134 c 0
 174 -118 164 -108 134 -100 c 1
 166 -40 l 1xca
EndSplineSet
EndChar

StartChar: Rcaron
Encoding: 344 344 171
Width: 600
Flags: MW
HStem: 0 21G<58 230 58 58 404 596 404 404> 218 136<230 288 288 292 230 288> 514 136<230 230 230 288> 700 124<218 252 352 386 218 218>
VStem: 58 172<0 218 354 514> 392 168<412 468>
LayerCount: 2
Fore
SplineSet
386 700 m 1
 218 700 l 1
 122 824 l 1
 252 824 l 1
 300 766 l 1
 304 766 l 1
 352 824 l 1
 482 824 l 1
 386 700 l 1
230 514 m 1
 230 354 l 1
 288 354 l 2
 356 354 392 384 392 440 c 0
 392 496 356 514 288 514 c 2
 230 514 l 1
596 0 m 1
 404 0 l 1
 292 218 l 1
 230 218 l 1
 230 0 l 1
 58 0 l 1
 58 650 l 1
 300 650 l 2
 440 650 560 602 560 440 c 0
 560 347 518 286 455 252 c 1
 596 0 l 1
EndSplineSet
EndChar

StartChar: rcaron
Encoding: 345 345 352
Width: 600
Flags: MW
HStem: 0 21G<104 104 104 276> 362 150<419.5 449> 480 20G<104 245 245 245> 492 20 574 174<266 266 266 288 388 410>
VStem: 104 172<0 248 0 500>
LayerCount: 2
Fore
SplineSet
104 0 m 1x9c
 104 500 l 1
 245 500 l 1xac
 258 394 l 1
 262 394 l 1
 310 476 382 512 457 512 c 0
 503 512 524 504 552 492 c 1x9c
 518 348 l 1
 488 357 467 362 431 362 c 0xcc
 374 362 313 332 276 248 c 1
 276 0 l 1
 104 0 l 1x9c
266 574 m 1
 164 748 l 1
 288 748 l 1
 336 654 l 1
 340 654 l 1
 388 748 l 1
 512 748 l 1
 410 574 l 1
 266 574 l 1
EndSplineSet
EndChar

StartChar: Scircumflex
Encoding: 348 348 177
Width: 600
Flags: MW
HStem: -12 148<274.5 329.5 274.5 380> 514 148<292 342> 700 124<222 256 126 390 356 356 356 390 222 486>
VStem: 68 174<454.5 484.5 454.5 515.5> 380 176<167.5 197.5>
LayerCount: 2
Fore
SplineSet
44 81 m 1
 142 199 l 1
 191 162 249 136 300 136 c 0
 359 136 380 153 380 182 c 0
 380 213 347 223 286 245 c 1
 205 279 l 1
 130 307 68 366 68 460 c 0
 68 571 168 662 316 662 c 0
 393 662 475 634 538 575 c 1
 452 467 l 1
 405 498 368 514 316 514 c 0
 268 514 242 499 242 470 c 0
 242 439 279 429 344 405 c 1
 419 374 l 1
 506 342 556 286 556 196 c 0
 556 86 464 -12 296 -12 c 0
 211 -12 117 18 44 81 c 1
256 700 m 1
 126 700 l 1
 222 824 l 1
 390 824 l 1
 486 700 l 1
 356 700 l 1
 308 758 l 1
 304 758 l 1
 256 700 l 1
EndSplineSet
EndChar

StartChar: scircumflex
Encoding: 349 349 357
Width: 600
Flags: MW
HStem: -12 126<265 323.5 265 373.5> 386 126<295 345> 574 174<142 388 244 266 366 366 366 388 244 490>
VStem: 77 171<345 368 345 399> 375 171<134 157>
LayerCount: 2
Fore
SplineSet
46 64 m 1
 122 170 l 1
 180 136 236 114 294 114 c 0
 353 114 375 124 375 144 c 0
 375 170 317 183 252 202 c 0
 170 226 77 268 77 350 c 0
 77 448 171 512 317 512 c 0
 411 512 485 475 538 442 c 1
 462 340 l 1
 416 366 369 386 321 386 c 0
 269 386 248 378 248 358 c 0
 248 332 303 321 367 304 c 0
 452 281 546 244 546 154 c 0
 546 60 457 -12 290 -12 c 0
 204 -12 110 22 46 64 c 1
142 574 m 1
 244 748 l 1
 388 748 l 1
 490 574 l 1
 366 574 l 1
 318 668 l 1
 314 668 l 1
 266 574 l 1
 142 574 l 1
EndSplineSet
EndChar

StartChar: uni015E
Encoding: 350 350 179
Width: 600
Flags: MW
HStem: -224 66<190 202> -9 21G<248 248 347 347> 514 148<292 342>
VStem: 68 174<454.5 484.5 454.5 515.5> 270 122<-129 -109> 380 176<167.5 197.5>
LayerCount: 2
Fore
SplineSet
344 405 m 1xf4
 419 374 l 1
 506 342 556 286 556 196 c 0xf4
 556 98 482 9 347 -9 c 1
 334 -40 l 1
 368 -52 392 -74 392 -116 c 0
 392 -188 304 -220 202 -224 c 1
 190 -158 l 1
 236 -154 270 -142 270 -116 c 0
 270 -102 260 -88 214 -76 c 1
 248 -9 l 1xf8
 177 0 103 30 44 81 c 1
 142 199 l 1
 191 162 249 136 300 136 c 0
 359 136 380 153 380 182 c 0
 380 213 347 223 286 245 c 1
 205 279 l 1
 130 307 68 366 68 460 c 0
 68 571 168 662 316 662 c 0
 393 662 475 634 538 575 c 1
 452 467 l 1
 405 498 368 514 316 514 c 0
 268 514 242 499 242 470 c 0
 242 439 279 429 344 405 c 1xf4
EndSplineSet
EndChar

StartChar: uni015F
Encoding: 351 351 359
Width: 600
Flags: MW
HStem: -224 66<200 212> -10 21G<257 257> -10 124<257 323.5> 386 126<295 345>
VStem: 77 171<345 368 345 399> 280 122<-129 -109> 375 171<134 157>
LayerCount: 2
Fore
SplineSet
538 442 m 1xdc
 462 340 l 1
 416 366 369 386 321 386 c 0
 269 386 248 378 248 358 c 0
 248 332 303 321 367 304 c 0
 452 281 546 244 546 154 c 0xda
 546 74 481 9 357 -8 c 1
 344 -40 l 1
 378 -52 402 -74 402 -116 c 0
 402 -188 314 -220 212 -224 c 1
 200 -158 l 1
 246 -154 280 -142 280 -116 c 0
 280 -102 270 -88 224 -76 c 1
 257 -10 l 1xdc
 181 -3 102 27 46 64 c 1
 122 170 l 1
 180 136 236 114 294 114 c 0
 353 114 375 124 375 144 c 0
 375 170 317 183 252 202 c 0xba
 170 226 77 268 77 350 c 0
 77 448 171 512 317 512 c 0
 411 512 485 475 538 442 c 1xdc
EndSplineSet
EndChar

StartChar: uni0162
Encoding: 354 354 185
Width: 600
Flags: MW
HStem: -224 66<190 202> 0 21G<214 252 214 214 350 386 350 350> 506 144<27 214 27 573 386 386 386 573>
VStem: 214 172<-76 0 0 506> 270 122<-129 -109>
LayerCount: 2
Fore
SplineSet
386 0 m 1xf0
 350 0 l 1xf0
 334 -40 l 1
 368 -52 392 -74 392 -116 c 0
 392 -188 304 -220 202 -224 c 1
 190 -158 l 1
 236 -154 270 -142 270 -116 c 0xe8
 270 -102 260 -88 214 -76 c 1
 252 0 l 1
 214 0 l 1
 214 506 l 1
 27 506 l 1
 27 650 l 1
 573 650 l 1
 573 506 l 1
 386 506 l 1
 386 0 l 1xf0
EndSplineSet
EndChar

StartChar: uni0163
Encoding: 355 355 365
Width: 600
Flags: MW
HStem: -224 66<262 274> -11 21G<418 418> -11 133<418 418> -6 21G<321 321> 366 134<42 170 42 170 334 532>
VStem: 162 172<212 215 215 366 179.5 366> 342 122<-129 -109>
LayerCount: 2
Fore
SplineSet
418 -11 m 1xcc
 406 -40 l 1
 440 -52 464 -74 464 -116 c 0
 464 -188 376 -220 274 -224 c 1
 262 -158 l 1
 308 -154 342 -142 342 -116 c 0
 342 -102 332 -88 286 -76 c 1xce
 321 -6 l 1x9c
 206 15 162 98 162 212 c 2
 162 366 l 1
 42 366 l 1
 42 494 l 1
 170 500 l 1
 192 630 l 1
 334 630 l 1
 334 500 l 1
 532 500 l 1
 532 366 l 1
 334 366 l 1
 334 215 l 2
 334 144 367 122 431 122 c 0
 465 122 495 129 522 138 c 1xac
 552 14 l 1
 515 4 471 -8 418 -11 c 1xcc
EndSplineSet
EndChar

StartChar: Tcaron
Encoding: 356 356 184
Width: 600
Flags: MW
HStem: 0 21G<214 214 214 386> 506 144<27 214 27 573 386 386 386 573> 700 124<216 250 350 384 216 216>
VStem: 214 172<0 506 0 506>
LayerCount: 2
Fore
SplineSet
214 0 m 1
 214 506 l 1
 27 506 l 1
 27 650 l 1
 573 650 l 1
 573 506 l 1
 386 506 l 1
 386 0 l 1
 214 0 l 1
350 824 m 1
 480 824 l 1
 384 700 l 1
 216 700 l 1
 120 824 l 1
 250 824 l 1
 298 766 l 1
 302 766 l 1
 350 824 l 1
EndSplineSet
EndChar

StartChar: tcaron
Encoding: 357 357 364
Width: 600
GlyphClass: 3
Flags: MW
HStem: -12 134<399 420> 366 134<42 170 42 170 334 532> 548 82<192 460 192 388>
VStem: 162 172<212 215 215 366 179.5 366> 385 104
LayerCount: 2
Fore
SplineSet
162 212 m 2
 162 366 l 1
 42 366 l 1
 42 494 l 1
 170 500 l 1
 192 630 l 1
 334 630 l 1
 334 500 l 1
 532 500 l 1
 532 366 l 1
 334 366 l 1
 334 215 l 2
 334 144 367 122 431 122 c 0
 465 122 495 129 522 138 c 1
 552 14 l 1
 508 2 454 -12 386 -12 c 0
 222 -12 162 78 162 212 c 2
460 548 m 1
 388 548 l 1
 382 774 l 1
 490 774 l 1
 488 700 l 1
 460 548 l 1
EndSplineSet
Ligature2: "'ccmp' Glyph Composition/Decomposition in Latin lookup 6 subtable" t uni030C
EndChar

StartChar: Utilde
Encoding: 360 360 192
Width: 600
Flags: MW
HStem: -12 148<274.5 329.5 274.5 387> 630 20G<58 230 230 230 376 542 542 542> 700 146<120 263 120 263 209 391>
VStem: 58 172<252 650> 376 166<232 252 252 650>
LayerCount: 2
Fore
SplineSet
58 252 m 2
 58 650 l 1
 230 650 l 1
 230 232 l 2
 230 176 247 136 302 136 c 0
 357 136 376 176 376 232 c 2
 376 650 l 1
 542 650 l 1
 542 252 l 2
 542 90 472 -12 302 -12 c 0
 132 -12 58 90 58 252 c 2
364 700 m 0
 310 700 272 742 244 742 c 0
 228 742 214 732 206 700 c 1
 120 700 l 1
 132 802 182 846 236 846 c 0
 290 846 328 804 356 804 c 0
 372 804 386 814 394 846 c 1
 480 846 l 1
 468 744 418 700 364 700 c 0
EndSplineSet
EndChar

StartChar: utilde
Encoding: 361 361 373
Width: 600
Flags: MW
HStem: -12 146<158 299.5> 0 21G<392 532 392 392> 480 20G<56 228 228 228 360 532 532 532> 574 156<114 266.5 114 266.5 210 382>
VStem: 56 172<192 214 214 500> 360 172<178 500 0 500>
LayerCount: 2
Fore
SplineSet
532 500 m 1x7c
 532 0 l 1
 392 0 l 1x7c
 380 66 l 1
 376 66 l 1
 334 18 284 -12 214 -12 c 0
 102 -12 56 68 56 192 c 2
 56 500 l 1
 228 500 l 1
 228 214 l 2
 228 158 240 134 285 134 c 0
 314 134 334 142 360 178 c 1xbc
 360 500 l 1
 532 500 l 1x7c
114 574 m 1
 128 683 178 730 242 730 c 0
 291 730 322 678 348 678 c 0
 369 678 382 690 392 730 c 1
 478 730 l 1
 464 621 414 574 350 574 c 0
 300 574 270 626 244 626 c 0
 223 626 210 614 200 574 c 1
 114 574 l 1
EndSplineSet
EndChar

StartChar: Umacron
Encoding: 362 362 194
Width: 600
Flags: MW
HStem: -12 148<274.5 329.5 274.5 387> 630 20G<58 230 230 230 376 542 542 542> 716 108<152 448 152 448>
VStem: 58 172<252 650> 376 166<232 252 252 650>
LayerCount: 2
Fore
SplineSet
58 252 m 2
 58 650 l 1
 230 650 l 1
 230 232 l 2
 230 176 247 136 302 136 c 0
 357 136 376 176 376 232 c 2
 376 650 l 1
 542 650 l 1
 542 252 l 2
 542 90 472 -12 302 -12 c 0
 132 -12 58 90 58 252 c 2
152 716 m 1
 152 824 l 1
 448 824 l 1
 448 716 l 1
 152 716 l 1
EndSplineSet
EndChar

StartChar: ubreve
Encoding: 365 365 376
Width: 600
Flags: MW
HStem: -12 146<158 299.5> 0 21G<392 532 392 392> 480 20G<56 228 228 228 360 532 532 532> 574 92<277.5 314.5 277.5 347.5>
VStem: 56 172<192 214 214 500> 142 94<738 738> 356 94<738 738> 360 172<178 500 0 500>
LayerCount: 2
Fore
SplineSet
532 500 m 1x79
 532 0 l 1
 392 0 l 1x75
 380 66 l 1
 376 66 l 1
 334 18 284 -12 214 -12 c 0
 102 -12 56 68 56 192 c 2
 56 500 l 1
 228 500 l 1
 228 214 l 2
 228 158 240 134 285 134 c 0
 314 134 334 142 360 178 c 1xb9
 360 500 l 1
 532 500 l 1x79
296 574 m 0
 193 574 144 650 142 738 c 1
 236 738 l 1
 241 696 259 666 296 666 c 0
 333 666 351 696 356 738 c 1
 450 738 l 1x76
 448 650 399 574 296 574 c 0
EndSplineSet
EndChar

StartChar: Uring
Encoding: 366 366 196
Width: 600
Flags: MW
HStem: -12 148<274.5 329.5 274.5 387> 630 20G<58 230 230 230 376 542 542 542> 696 62<289.5 310.5 289.5 336> 838 62<289.5 310.5>
VStem: 58 172<252 650> 180 82<786 810 786 829> 338 82<786 810> 376 166<232 252 252 650>
LayerCount: 2
Fore
SplineSet
58 252 m 2xf9
 58 650 l 1
 230 650 l 1
 230 232 l 2
 230 176 247 136 302 136 c 0
 357 136 376 176 376 232 c 2
 376 650 l 1
 542 650 l 1
 542 252 l 2
 542 90 472 -12 302 -12 c 0
 132 -12 58 90 58 252 c 2xf9
300 696 m 0xf6
 228 696 180 736 180 798 c 0
 180 860 228 900 300 900 c 0
 372 900 420 860 420 798 c 0
 420 736 372 696 300 696 c 0xf6
300 758 m 0
 321 758 338 774 338 798 c 0
 338 822 321 838 300 838 c 0
 279 838 262 822 262 798 c 0
 262 774 279 758 300 758 c 0
EndSplineSet
EndChar

StartChar: uring
Encoding: 367 367 377
Width: 600
Flags: MW
HStem: -12 146<158 299.5> 0 21G<392 532 392 392> 480 20G<56 228 228 228 360 532 532 532> 550 62<285.5 306.5 285.5 332> 700 62<285.5 306.5>
VStem: 56 172<192 214 214 500> 176 82<643 669 643 688> 334 82<643 669> 360 172<178 500 0 500>
LayerCount: 2
Fore
SplineSet
532 500 m 1x7c80
 532 0 l 1
 392 0 l 1x7a80
 380 66 l 1
 376 66 l 1
 334 18 284 -12 214 -12 c 0
 102 -12 56 68 56 192 c 2
 56 500 l 1
 228 500 l 1
 228 214 l 2
 228 158 240 134 285 134 c 0
 314 134 334 142 360 178 c 1xbc80
 360 500 l 1
 532 500 l 1x7c80
296 550 m 0
 224 550 176 592 176 656 c 0
 176 720 224 762 296 762 c 0
 368 762 416 720 416 656 c 0x7b
 416 592 368 550 296 550 c 0
296 612 m 0x7b
 317 612 334 630 334 656 c 0
 334 682 317 700 296 700 c 0
 275 700 258 682 258 656 c 0
 258 630 275 612 296 612 c 0x7b
EndSplineSet
EndChar

StartChar: Uhungarumlaut
Encoding: 368 368 197
Width: 600
Flags: MW
HStem: -12 148<274.5 329.5 274.5 387> 630 20G<58 230 230 230 376 542 542 542> 700 124<214 266 152 358 340 358 402 454 340 340>
VStem: 58 172<252 650> 376 166<232 252 252 650>
LayerCount: 2
Fore
SplineSet
58 252 m 2
 58 650 l 1
 230 650 l 1
 230 232 l 2
 230 176 247 136 302 136 c 0
 357 136 376 176 376 232 c 2
 376 650 l 1
 542 650 l 1
 542 252 l 2
 542 90 472 -12 302 -12 c 0
 132 -12 58 90 58 252 c 2
266 700 m 1
 152 700 l 1
 214 824 l 1
 358 824 l 1
 266 700 l 1
340 700 m 1
 402 824 l 1
 546 824 l 1
 454 700 l 1
 340 700 l 1
EndSplineSet
EndChar

StartChar: uhungarumlaut
Encoding: 369 369 378
Width: 600
Flags: MW
HStem: -12 146<158 299.5> 0 21G<392 532 392 392> 480 20G<56 228 228 228 360 532 532 532> 574 154<160 362 228 264 340 362 408 444 340 340>
VStem: 56 172<192 214 214 500> 360 172<178 500 0 500>
LayerCount: 2
Fore
SplineSet
532 500 m 1x7c
 532 0 l 1
 392 0 l 1x7c
 380 66 l 1
 376 66 l 1
 334 18 284 -12 214 -12 c 0
 102 -12 56 68 56 192 c 2
 56 500 l 1
 228 500 l 1
 228 214 l 2
 228 158 240 134 285 134 c 0
 314 134 334 142 360 178 c 1xbc
 360 500 l 1
 532 500 l 1x7c
160 574 m 1
 228 728 l 1
 362 728 l 1
 264 574 l 1
 160 574 l 1
340 574 m 1
 408 728 l 1
 542 728 l 1
 444 574 l 1
 340 574 l 1
EndSplineSet
EndChar

StartChar: Uogonek
Encoding: 370 370 205
Width: 600
GlyphClass: 2
Flags: MW
HStem: -228 110<290 372> -10 21G 630 20G<58 230 230 230 376 542 542 542>
VStem: 58 172<252 650> 202 124<-161 -71> 376 166<232 252 252 650>
AnchorPoint: "Anchor-0" 300 672 basechar 0
LayerCount: 2
Fore
SplineSet
58 252 m 2xf4
 58 650 l 1
 230 650 l 1
 230 232 l 2xf4
 230 176 247 136 302 136 c 0
 357 136 376 176 376 232 c 2
 376 650 l 1
 542 650 l 1
 542 252 l 2
 542 133 503 51 418 10 c 0
 338 -29 326 -58 326 -84 c 0
 326 -108 346 -118 366 -118 c 0
 378 -118 391 -110 400 -104 c 1
 438 -190 l 1
 410 -212 362 -228 324 -228 c 0
 256 -228 202 -192 202 -130 c 0xec
 202 -66 252 -23 266 -10 c 1
 126 2 58 98 58 252 c 2xf4
EndSplineSet
Ligature2: "'ccmp' Glyph Composition/Decomposition in Latin lookup 6 subtable" U uni0328
EndChar

StartChar: uogonek
Encoding: 371 371 386
Width: 600
GlyphClass: 2
Flags: MW
HStem: -212 100<411 490> -176 21G<552 552> -12 21G<158 249> -12 146<158 299.5> -4 21G<394 394> 0 21G<532 532> 480 20G<56 228 228 228 360 532 532 532>
VStem: 56 172<192 214 214 500> 330 114<-89.5 -88> 360 172<178 500 0 500>
AnchorPoint: "Anchor-0" 296 522 basechar 0
LayerCount: 2
Fore
SplineSet
532 500 m 1x4740
 532 0 l 1x4740
 464 -16 444 -50 444 -78 c 0
 444 -101 464 -112 484 -112 c 0
 496 -112 510 -106 518 -100 c 1x8780
 552 -176 l 1x4740
 524 -198 476 -212 442 -212 c 0
 380 -212 330 -180 330 -118 c 0
 330 -58 374 -18 394 -4 c 1x8b80
 380 66 l 1
 376 66 l 1x6380
 334 18 284 -12 214 -12 c 0
 102 -12 56 68 56 192 c 2
 56 500 l 1
 228 500 l 1
 228 214 l 2
 228 158 240 134 285 134 c 0
 314 134 334 142 360 178 c 1x5340
 360 500 l 1
 532 500 l 1x4740
EndSplineSet
Ligature2: "'ccmp' Glyph Composition/Decomposition in Latin lookup 6 subtable" u uni0328
EndChar

StartChar: Ycircumflex
Encoding: 374 374 218
Width: 600
Flags: MW
HStem: 0 21G<214 214 214 386> 630 20G<8 192 192 192 412 592 592 592> 700 124<216 250 120 384 350 350 350 384 216 480>
VStem: 214 172<0 215 0 215>
LayerCount: 2
Fore
SplineSet
214 0 m 1
 214 215 l 1
 8 650 l 1
 192 650 l 1
 246 508 l 1
 263 458 281 412 299 360 c 1
 303 360 l 1
 321 412 340 458 358 508 c 2
 412 650 l 1
 592 650 l 1
 386 215 l 1
 386 0 l 1
 214 0 l 1
250 700 m 1
 120 700 l 1
 216 824 l 1
 384 824 l 1
 480 700 l 1
 350 700 l 1
 302 758 l 1
 298 758 l 1
 250 700 l 1
EndSplineSet
EndChar

StartChar: ycircumflex
Encoding: 375 375 399
Width: 600
Flags: MW
HStem: -188 134<131.5 159.5 127.5 212.5> -178 21G<67 67> 480 20G<24 194 194 194 416 578 578 578> 574 174<134 380 236 258 358 358 358 380 236 482>
VStem: 24 554<500 500>
LayerCount: 2
Fore
SplineSet
97 -48 m 1xb8
 110 -52 122 -54 133 -54 c 0
 186 -54 213 -34 226 -4 c 1
 234 18 l 1
 24 500 l 1
 194 500 l 1
 264 308 l 2
 281 260 295 210 309 156 c 1
 313 156 l 1
 325 207 341 258 356 308 c 2
 416 500 l 1
 578 500 l 1
 390 8 l 1
 337 -127 278 -188 147 -188 c 0xb8
 116 -188 90 -184 67 -178 c 1x78
 97 -48 l 1xb8
134 574 m 1x78
 236 748 l 1
 380 748 l 1
 482 574 l 1
 358 574 l 1
 310 668 l 1
 306 668 l 1
 258 574 l 1
 134 574 l 1x78
EndSplineSet
EndChar

StartChar: Ydieresis
Encoding: 376 376 219
Width: 600
Flags: MW
HStem: 0 21G<214 214 214 386> 630 20G<8 192 192 192 412 592 592 592> 694 156<173 219 381 427>
VStem: 118 156<750 794> 214 172<0 215 0 215> 326 156<750 794>
LayerCount: 2
Fore
SplineSet
214 0 m 1xe8
 214 215 l 1
 8 650 l 1
 192 650 l 1
 246 508 l 1
 263 458 281 412 299 360 c 1
 303 360 l 1
 321 412 340 458 358 508 c 2
 412 650 l 1
 592 650 l 1
 386 215 l 1
 386 0 l 1
 214 0 l 1xe8
196 694 m 0xf4
 150 694 118 728 118 772 c 0
 118 816 150 850 196 850 c 0
 242 850 274 816 274 772 c 0
 274 728 242 694 196 694 c 0xf4
404 694 m 0
 358 694 326 728 326 772 c 0
 326 816 358 850 404 850 c 0
 450 850 482 816 482 772 c 0
 482 728 450 694 404 694 c 0
EndSplineSet
EndChar

StartChar: Zacute
Encoding: 377 377 224
Width: 600
Flags: MW
HStem: 0 144<265 550 265 550> 506 144<80 335 80 547> 700 124<308 366 230 488>
VStem: 53 497<0 104 104 104>
LayerCount: 2
Fore
SplineSet
53 0 m 1
 53 104 l 1
 335 506 l 1
 80 506 l 1
 80 650 l 1
 547 650 l 1
 547 546 l 1
 265 144 l 1
 550 144 l 1
 550 0 l 1
 53 0 l 1
488 824 m 1
 366 700 l 1
 230 700 l 1
 308 824 l 1
 488 824 l 1
EndSplineSet
EndChar

StartChar: zacute
Encoding: 378 378 405
Width: 600
Flags: MW
HStem: 0 134<306 545 306 545> 366 134<99 301 99 538> 574 174<324 360 236 498>
VStem: 70 475<0 92 92 92>
LayerCount: 2
Fore
SplineSet
70 0 m 1
 70 92 l 1
 301 366 l 1
 99 366 l 1
 99 500 l 1
 538 500 l 1
 538 408 l 1
 306 134 l 1
 545 134 l 1
 545 0 l 1
 70 0 l 1
498 748 m 1
 360 574 l 1
 236 574 l 1
 324 748 l 1
 498 748 l 1
EndSplineSet
EndChar

StartChar: Zdotaccent
Encoding: 379 379 226
Width: 600
Flags: MW
HStem: 0 144<265 550 265 550> 506 144<80 335 80 547> 696 172<286 342>
VStem: 218 192<757 807>
LayerCount: 2
Fore
SplineSet
53 0 m 1
 53 104 l 1
 335 506 l 1
 80 506 l 1
 80 650 l 1
 547 650 l 1
 547 546 l 1
 265 144 l 1
 550 144 l 1
 550 0 l 1
 53 0 l 1
314 696 m 0
 258 696 218 732 218 782 c 0
 218 832 258 868 314 868 c 0
 370 868 410 832 410 782 c 0
 410 732 370 696 314 696 c 0
EndSplineSet
EndChar

StartChar: zdotaccent
Encoding: 380 380 407
Width: 600
Flags: MW
HStem: 0 134<306 545 306 545> 366 134<99 301 99 538> 562 202<292 356>
VStem: 70 475<0 92 92 92> 214 220<632 692>
LayerCount: 2
Fore
SplineSet
70 0 m 1xd0
 70 92 l 1
 301 366 l 1
 99 366 l 1
 99 500 l 1
 538 500 l 1
 538 408 l 1
 306 134 l 1
 545 134 l 1
 545 0 l 1
 70 0 l 1xd0
324 562 m 0xe8
 260 562 214 602 214 662 c 0
 214 722 260 764 324 764 c 0
 388 764 434 722 434 662 c 0
 434 602 388 562 324 562 c 0xe8
EndSplineSet
EndChar

StartChar: Zcaron
Encoding: 381 381 225
Width: 600
Flags: MW
HStem: 0 144<265 550 265 550> 506 144<80 335 80 547> 700 124<230 264 364 398 230 230>
VStem: 53 497<0 104 104 104>
LayerCount: 2
Fore
SplineSet
53 0 m 1
 53 104 l 1
 335 506 l 1
 80 506 l 1
 80 650 l 1
 547 650 l 1
 547 546 l 1
 265 144 l 1
 550 144 l 1
 550 0 l 1
 53 0 l 1
364 824 m 1
 494 824 l 1
 398 700 l 1
 230 700 l 1
 134 824 l 1
 264 824 l 1
 312 766 l 1
 316 766 l 1
 364 824 l 1
EndSplineSet
EndChar

StartChar: zcaron
Encoding: 382 382 406
Width: 600
Flags: MW
HStem: 0 134<306 545 306 545> 366 134<99 301 99 538> 574 174<252 252 252 274 374 396>
VStem: 70 475<0 92 92 92>
LayerCount: 2
Fore
SplineSet
70 0 m 1
 70 92 l 1
 301 366 l 1
 99 366 l 1
 99 500 l 1
 538 500 l 1
 538 408 l 1
 306 134 l 1
 545 134 l 1
 545 0 l 1
 70 0 l 1
252 574 m 1
 150 748 l 1
 274 748 l 1
 322 654 l 1
 326 654 l 1
 374 748 l 1
 498 748 l 1
 396 574 l 1
 252 574 l 1
EndSplineSet
EndChar

StartChar: uni0180
Encoding: 384 384 254
Width: 600
Flags: MW
HStem: -12 21G<322.5 399.5> -12 140<322.5 325 292.5 399.5> 0 21G<64 198 64 64> 352 140<294.5 419.5> 550 76.5 550 80<236 406 236 406> 550 146<0 236 0 236 64 236 64 406>
VStem: 64 172<152 316 514 550 630 696> 382 176<201.5 283.5>
LayerCount: 2
Fore
SplineSet
236 316 m 1x3380
 236 152 l 1
 257 134 281 128 304 128 c 0x5380
 346 128 382 157 382 246 c 0
 382 321 357 352 308 352 c 0
 281 352 260 342 236 316 c 1x3380
236 514 m 1
 232 442 l 1
 268 474 314 492 359 492 c 0
 480 492 558 396 558 249 c 0
 558 82 454 -12 345 -12 c 0
 300 -12 255 10 216 54 c 1
 212 54 l 1x9380
 198 0 l 1
 64 0 l 1
 64 550 l 1
 0 550 l 1x3380
 0 624 l 1
 64 629 l 1x3980
 64 696 l 1
 236 696 l 1x3380
 236 630 l 1
 406 630 l 1x3580
 406 550 l 1
 236 550 l 1
 236 514 l 1
EndSplineSet
EndChar

StartChar: uni018F
Encoding: 399 399 230
Width: 600
GlyphClass: 2
Flags: MW
HStem: -12 146<289 329 289 385> 256 124<232 390 232 232> 516 146<271 321>
VStem: 56 176<256 256 256 331> 392 172<380 380>
AnchorPoint: "Anchor-2" 332 -22 basechar 0
AnchorPoint: "Anchor-0" 320 672 basechar 0
LayerCount: 2
Fore
SplineSet
390 256 m 1
 232 256 l 1
 238 172 268 134 310 134 c 0
 348 134 379 175 390 256 c 1
196 472 m 1
 122 590 l 1
 168 632 228 662 314 662 c 0
 460 662 564 540 564 326 c 0
 564 112 460 -12 310 -12 c 0
 160 -12 56 108 56 322 c 0
 56 340 58 360 60 380 c 1
 392 380 l 1
 383 471 350 516 292 516 c 0
 249 516 220 494 196 472 c 1
EndSplineSet
EndChar

StartChar: uni0192
Encoding: 402 402 635
Width: 600
Flags: MW
HStem: -96 134 292 124<208 211 132 226 390 494> 526 136<449.5 470 383.5 483> 624 20G<556 556>
VStem: 45 511 132 362<292 410 410 410>
LayerCount: 2
Fore
SplineSet
556 644 m 1xd8
 525 516 l 1
 511 520 494 526 472 526 c 0
 427 526 405 506 396 468 c 1
 390 416 l 1
 494 416 l 1
 494 292 l 1
 375 292 l 1
 354 122 l 2
 339 4 298 -96 146 -96 c 1
 99 -95 61 -89 45 -81 c 1
 66 46 l 1
 83 41 101 39 118 38 c 1
 166 40 181 56 198 174 c 1
 211 292 l 1
 132 292 l 1
 132 410 l 1
 208 416 l 1
 226 416 l 1
 230 454 l 1xe4
 255 605 310 662 457 662 c 0xe8
 483 662 534 654 556 644 c 1xd8
EndSplineSet
EndChar

StartChar: Ohorn
Encoding: 416 416 163
Width: 600
GlyphClass: 2
Flags: MW
HStem: -12 148<272 328 272 379> 514 148<272 323 221 328>
VStem: 34 176<269 387 269 435> 390 176<269 380.5 221 387> 476 132<670.5 700>
AnchorPoint: "Anchor-2" 300 -22 basechar 0
AnchorPoint: "Anchor-0" 300 672 basechar 0
LayerCount: 2
Fore
SplineSet
300 136 m 0xf0
 356 136 390 210 390 328 c 0
 390 446 356 514 300 514 c 0
 244 514 210 446 210 328 c 0
 210 210 244 136 300 136 c 0xf0
460 738 m 1xe8
 576 788 l 1
 592 770 608 738 608 702 c 0xe8
 608 630 560 590 494 573 c 1
 540 516 566 433 566 328 c 0xf0
 566 114 458 -12 300 -12 c 0
 142 -12 34 114 34 328 c 0
 34 542 142 662 300 662 c 0
 346 662 388 652 424 632 c 1
 454 639 476 651 476 690 c 0
 476 710 467 727 460 738 c 1xe8
EndSplineSet
EndChar

StartChar: ohorn
Encoding: 417 417 343
Width: 600
GlyphClass: 2
Flags: MW
HStem: -12 138<271 329 271 366> 374 138<271 318.5 234 329>
VStem: 42 176<212 288 212 333> 382 176<212 288> 464 132<529.5 560>
AnchorPoint: "Anchor-2" 300 -22 basechar 0
AnchorPoint: "Anchor-0" 300 522 basechar 0
LayerCount: 2
Fore
SplineSet
300 126 m 0xf0
 358 126 382 174 382 250 c 0
 382 326 358 374 300 374 c 0
 242 374 218 326 218 250 c 0
 218 174 242 126 300 126 c 0xf0
448 598 m 1xe8
 564 648 l 1
 580 630 596 598 596 562 c 0xe8
 596 492 550 452 487 435 c 1
 530 390 558 328 558 250 c 0xf0
 558 84 432 -12 300 -12 c 0
 168 -12 42 84 42 250 c 0
 42 416 168 512 300 512 c 0
 337 512 373 505 406 490 c 1
 439 497 464 509 464 550 c 0
 464 570 455 587 448 598 c 1xe8
EndSplineSet
EndChar

StartChar: Uhorn
Encoding: 431 431 206
Width: 600
GlyphClass: 2
Flags: MW
HStem: -12 148<274.5 329.5 274.5 387> 630 20G<58 230 230 230 376 460 460 477>
VStem: 58 172<252 650> 376 166<232 252 252 589> 540 132<683 720>
AnchorPoint: "Anchor-2" 300 -22 basechar 0
AnchorPoint: "Anchor-0" 300 672 basechar 0
LayerCount: 2
Fore
SplineSet
524 758 m 1xe8
 640 808 l 1
 656 790 672 758 672 722 c 0xe8
 672 644 616 603 542 589 c 1
 542 252 l 2
 542 90 472 -12 302 -12 c 0
 132 -12 58 90 58 252 c 2
 58 650 l 1
 230 650 l 1
 230 232 l 2
 230 176 247 136 302 136 c 0
 357 136 376 176 376 232 c 2
 376 650 l 1xf0
 460 650 l 2
 494 650 540 656 540 710 c 0
 540 730 531 747 524 758 c 1xe8
EndSplineSet
EndChar

StartChar: uhorn
Encoding: 432 432 387
Width: 600
GlyphClass: 2
Flags: MW
HStem: -12 146<158 299.5> 0 21G<392 532 392 392> 480 20G<56 228 228 228 360 420 420 437>
VStem: 56 172<192 214 214 500> 360 172<178 448 0 500 0 500> 500 132<539 570>
AnchorPoint: "Anchor-2" 318 -22 basechar 0
AnchorPoint: "Anchor-0" 296 522 basechar 0
LayerCount: 2
Fore
SplineSet
484 608 m 1x74
 600 658 l 1
 616 640 632 608 632 572 c 0x74
 632 506 590 466 532 448 c 1
 532 0 l 1
 392 0 l 1x78
 380 66 l 1
 376 66 l 1
 334 18 284 -12 214 -12 c 0
 102 -12 56 68 56 192 c 2
 56 500 l 1
 228 500 l 1
 228 214 l 2
 228 158 240 134 285 134 c 0
 314 134 334 142 360 178 c 1
 360 500 l 1xb8
 420 500 l 2
 454 500 500 506 500 560 c 0
 500 580 491 597 484 608 c 1x74
EndSplineSet
EndChar

StartChar: uni01CD
Encoding: 461 461 62
Width: 600
Flags: MW
HStem: 0 21G<0 176 0 0 418 600 418 418> 138 133<239 355 239 386 208 355> 522 128<294 298 294 294> 700 124<216 250 350 384 216 216>
VStem: 0 600<0 0>
LayerCount: 2
Fore
SplineSet
384 700 m 1
 216 700 l 1
 120 824 l 1
 250 824 l 1
 298 766 l 1
 302 766 l 1
 350 824 l 1
 480 824 l 1
 384 700 l 1
239 271 m 1
 355 271 l 1
 345 316 l 2
 331 378 314 457 298 522 c 1
 294 522 l 1
 280 456 263 378 249 316 c 2
 239 271 l 1
418 0 m 1
 386 138 l 1
 208 138 l 1
 176 0 l 1
 0 0 l 1
 196 650 l 1
 404 650 l 1
 600 0 l 1
 418 0 l 1
EndSplineSet
EndChar

StartChar: uni01CF
Encoding: 463 463 123
Width: 600
Flags: MW
HStem: 0 144<66 214 66 214 386 534> 506 144<66 214 66 534 386 386 386 534> 700 124<216 250 350 384 216 216>
VStem: 214 172<144 506 144 506>
LayerCount: 2
Fore
SplineSet
66 0 m 1
 66 144 l 1
 214 144 l 1
 214 506 l 1
 66 506 l 1
 66 650 l 1
 534 650 l 1
 534 506 l 1
 386 506 l 1
 386 144 l 1
 534 144 l 1
 534 0 l 1
 66 0 l 1
350 824 m 1
 480 824 l 1
 384 700 l 1
 216 700 l 1
 120 824 l 1
 250 824 l 1
 298 766 l 1
 302 766 l 1
 350 824 l 1
EndSplineSet
EndChar

StartChar: uni01D0
Encoding: 464 464 299
Width: 600
Flags: MW
HStem: 0 21G<264 436 264 264> 366 134<74 436 74 264> 574 174<272 272 272 294 394 416>
VStem: 264 172<0 366 366 366>
LayerCount: 2
Fore
SplineSet
74 366 m 1
 74 500 l 1
 436 500 l 1
 436 0 l 1
 264 0 l 1
 264 366 l 1
 74 366 l 1
272 574 m 1
 170 748 l 1
 294 748 l 1
 342 654 l 1
 346 654 l 1
 394 748 l 1
 518 748 l 1
 416 574 l 1
 272 574 l 1
EndSplineSet
EndChar

StartChar: uni01D1
Encoding: 465 465 153
Width: 600
Flags: MW
HStem: -12 148<272 328 272 379> 514 148<272 328> 700 124<216 250 350 384 216 216>
VStem: 34 176<269 387 269 435> 390 176<269 387>
LayerCount: 2
Fore
SplineSet
300 -12 m 0
 142 -12 34 114 34 328 c 0
 34 542 142 662 300 662 c 0
 458 662 566 541 566 328 c 0
 566 114 458 -12 300 -12 c 0
300 136 m 0
 356 136 390 210 390 328 c 0
 390 446 356 514 300 514 c 0
 244 514 210 446 210 328 c 0
 210 210 244 136 300 136 c 0
350 824 m 1
 480 824 l 1
 384 700 l 1
 216 700 l 1
 120 824 l 1
 250 824 l 1
 298 766 l 1
 302 766 l 1
 350 824 l 1
EndSplineSet
EndChar

StartChar: uni01D2
Encoding: 466 466 333
Width: 600
Flags: MW
HStem: -12 138<271 329 271 366> 374 138<271 329> 574 174<228 228 228 250 350 372>
VStem: 42 176<212 288 212 333> 382 176<212 288>
LayerCount: 2
Fore
SplineSet
42 250 m 0
 42 416 168 512 300 512 c 0
 432 512 558 416 558 250 c 0
 558 84 432 -12 300 -12 c 0
 168 -12 42 84 42 250 c 0
218 250 m 0
 218 174 242 126 300 126 c 0
 358 126 382 174 382 250 c 0
 382 326 358 374 300 374 c 0
 242 374 218 326 218 250 c 0
228 574 m 1
 126 748 l 1
 250 748 l 1
 298 654 l 1
 302 654 l 1
 350 748 l 1
 474 748 l 1
 372 574 l 1
 228 574 l 1
EndSplineSet
EndChar

StartChar: uni01D4
Encoding: 468 468 379
Width: 600
Flags: MW
HStem: -12 146<158 299.5> 0 21G<392 532 392 392> 480 20G<56 228 228 228 360 532 532 532> 574 174<224 224 224 246 346 368>
VStem: 56 172<192 214 214 500> 360 172<178 500 0 500>
LayerCount: 2
Fore
SplineSet
532 500 m 1x7c
 532 0 l 1
 392 0 l 1x7c
 380 66 l 1
 376 66 l 1
 334 18 284 -12 214 -12 c 0
 102 -12 56 68 56 192 c 2
 56 500 l 1
 228 500 l 1
 228 214 l 2
 228 158 240 134 285 134 c 0
 314 134 334 142 360 178 c 1xbc
 360 500 l 1
 532 500 l 1x7c
224 574 m 1
 122 748 l 1
 246 748 l 1
 294 654 l 1
 298 654 l 1
 346 748 l 1
 470 748 l 1
 368 574 l 1
 224 574 l 1
EndSplineSet
EndChar

StartChar: uni01D6
Encoding: 470 470 380
Width: 600
Flags: MW
HStem: -12 146<158 299.5> 0 21G<392 532 392 392> 480 20G<56 228 228 228 360 532 532 532> 564 136<172 212 380 420> 758 78<152 440 152 440>
VStem: 56 172<192 214 214 500> 124 136<613 651> 152 288<758 836 758 836> 332 136<613 651> 360 172<178 500 0 500>
LayerCount: 2
Fore
SplineSet
532 500 m 1x7c40
 532 0 l 1
 392 0 l 1x7a40
 380 66 l 1
 376 66 l 1
 334 18 284 -12 214 -12 c 0
 102 -12 56 68 56 192 c 2
 56 500 l 1
 228 500 l 1
 228 214 l 2
 228 158 240 134 285 134 c 0
 314 134 334 142 360 178 c 1xbc40
 360 500 l 1
 532 500 l 1x7c40
192 564 m 0
 152 564 124 594 124 632 c 0
 124 670 152 700 192 700 c 0
 232 700 260 670 260 632 c 0
 260 594 232 564 192 564 c 0
400 564 m 0x7c80
 360 564 332 594 332 632 c 0
 332 670 360 700 400 700 c 0
 440 700 468 670 468 632 c 0
 468 594 440 564 400 564 c 0x7c80
152 758 m 1x79
 152 836 l 1
 440 836 l 1
 440 758 l 1
 152 758 l 1x79
EndSplineSet
EndChar

StartChar: uni01D7
Encoding: 471 471 200
Width: 600
Flags: MW
HStem: -12 148<274.5 329.5 274.5 387> 630 20G<58 230 230 230 376 542 542 542> 694 136<176 216 384 424> 860 124<216 472 294 352>
VStem: 58 172<252 650> 128 136<743 781> 336 136<743 781> 376 166<232 252 252 650>
LayerCount: 2
Fore
SplineSet
58 252 m 2xd9
 58 650 l 1
 230 650 l 1
 230 232 l 2
 230 176 247 136 302 136 c 0
 357 136 376 176 376 232 c 2
 376 650 l 1
 542 650 l 1
 542 252 l 2
 542 90 472 -12 302 -12 c 0
 132 -12 58 90 58 252 c 2xd9
216 860 m 1
 294 984 l 1
 472 984 l 1
 352 860 l 1
 216 860 l 1
196 694 m 0xf9
 156 694 128 724 128 762 c 0xf9
 128 800 156 830 196 830 c 0
 236 830 264 800 264 762 c 0xf5
 264 724 236 694 196 694 c 0xf9
404 694 m 0
 364 694 336 724 336 762 c 0xfa
 336 800 364 830 404 830 c 0
 444 830 472 800 472 762 c 0
 472 724 444 694 404 694 c 0
EndSplineSet
EndChar

StartChar: uni01D9
Encoding: 473 473 201
Width: 600
Flags: MW
HStem: -12 148<274.5 329.5 274.5 387> 630 20G<58 230 230 230 376 542 542 542> 694 136<176 216 384 424> 860 124<216 250 350 384 216 216>
VStem: 58 172<252 650> 128 136<743 781> 336 136<743 781> 376 166<232 252 252 650>
LayerCount: 2
Fore
SplineSet
58 252 m 2xd9
 58 650 l 1
 230 650 l 1
 230 232 l 2
 230 176 247 136 302 136 c 0
 357 136 376 176 376 232 c 2
 376 650 l 1
 542 650 l 1
 542 252 l 2
 542 90 472 -12 302 -12 c 0
 132 -12 58 90 58 252 c 2xd9
196 694 m 0xf9
 156 694 128 724 128 762 c 0xf9
 128 800 156 830 196 830 c 0
 236 830 264 800 264 762 c 0xf5
 264 724 236 694 196 694 c 0xf9
404 694 m 0
 364 694 336 724 336 762 c 0xfa
 336 800 364 830 404 830 c 0
 444 830 472 800 472 762 c 0
 472 724 444 694 404 694 c 0
350 984 m 1xd9
 480 984 l 1
 384 860 l 1
 216 860 l 1
 120 984 l 1
 250 984 l 1
 298 926 l 1
 302 926 l 1
 350 984 l 1xd9
EndSplineSet
EndChar

StartChar: uni01DA
Encoding: 474 474 382
Width: 600
Flags: MW
HStem: -12 146<158 299.5> 0 21G<392 532 392 392> 480 20G<56 228 228 228 360 532 532 532> 564 136<172 212 380 420> 744 114<224 224 224 254 338 368>
VStem: 56 172<192 214 214 500> 124 136<613 651> 332 136<613 651> 360 172<178 500 0 500>
LayerCount: 2
Fore
SplineSet
532 500 m 1x7c80
 532 0 l 1
 392 0 l 1x7a80
 380 66 l 1
 376 66 l 1
 334 18 284 -12 214 -12 c 0
 102 -12 56 68 56 192 c 2
 56 500 l 1
 228 500 l 1
 228 214 l 2
 228 158 240 134 285 134 c 0
 314 134 334 142 360 178 c 1xbc80
 360 500 l 1
 532 500 l 1x7c80
224 744 m 1
 140 858 l 1
 254 858 l 1
 294 802 l 1
 298 802 l 1
 338 858 l 1
 452 858 l 1
 368 744 l 1
 224 744 l 1
192 564 m 0
 152 564 124 594 124 632 c 0
 124 670 152 700 192 700 c 0
 232 700 260 670 260 632 c 0
 260 594 232 564 192 564 c 0
400 564 m 0x7d
 360 564 332 594 332 632 c 0
 332 670 360 700 400 700 c 0
 440 700 468 670 468 632 c 0
 468 594 440 564 400 564 c 0x7d
EndSplineSet
EndChar

StartChar: Gcaron
Encoding: 486 486 108
Width: 600
Flags: MW
HStem: -12 148<308.5 363 308.5 386.5> 238 140<318 399 318 552> 514 148<310.5 369.5> 700 124<246 280 380 414 246 246>
VStem: 40 177<265 385 265 430> 399 153<148 238 238 238>
LayerCount: 2
Fore
SplineSet
40 320 m 0
 40 540 177 662 346 662 c 0
 434 662 497 622 540 578 c 1
 446 472 l 1
 419 498 393 514 346 514 c 0
 275 514 217 444 217 326 c 0
 217 204 262 136 355 136 c 0
 371 136 389 140 399 148 c 1
 399 238 l 1
 318 238 l 1
 318 378 l 1
 552 378 l 1
 552 68 l 1
 507 28 428 -12 345 -12 c 0
 178 -12 40 98 40 320 c 0
380 824 m 1
 510 824 l 1
 414 700 l 1
 246 700 l 1
 150 824 l 1
 280 824 l 1
 328 766 l 1
 332 766 l 1
 380 824 l 1
EndSplineSet
EndChar

StartChar: uni01EA
Encoding: 490 490 169
Width: 600
GlyphClass: 2
Flags: MW
HStem: -228 110<290 372> -10 21G 514 148<272 328>
VStem: 34 176<269 387 269 435> 202 124<-161 -69.5> 390 176<269 387>
AnchorPoint: "Anchor-0" 300 672 basechar 0
LayerCount: 2
Fore
SplineSet
400 -104 m 1xec
 438 -190 l 1
 410 -212 362 -228 324 -228 c 0
 256 -228 202 -192 202 -130 c 0xec
 202 -76 238 -34 266 -10 c 1
 108 12 34 156 34 328 c 0xf4
 34 542 142 662 300 662 c 0
 458 662 566 541 566 328 c 0
 566 150 496 50 392 4 c 0
 342 -18 326 -55 326 -84 c 0
 326 -108 346 -118 366 -118 c 0
 378 -118 391 -110 400 -104 c 1xec
300 136 m 0xf4
 356 136 390 210 390 328 c 0
 390 446 356 514 300 514 c 0
 244 514 210 446 210 328 c 0
 210 210 244 136 300 136 c 0xf4
EndSplineSet
Ligature2: "'ccmp' Glyph Composition/Decomposition in Latin lookup 6 subtable" O uni0328
EndChar

StartChar: uni01EB
Encoding: 491 491 349
Width: 600
GlyphClass: 2
Flags: MW
HStem: -212 100<287 366> -176 21G<428 428> -9 21G 374 138<271 329>
VStem: 42 176<212 288 212 333> 206 114<-149 -65> 382 176<212 288>
AnchorPoint: "Anchor-0" 300 522 basechar 0
LayerCount: 2
Fore
SplineSet
206 -118 m 0xb6
 206 -68 237 -30 261 -9 c 1
 144 8 42 101 42 250 c 0x7a
 42 416 167 512 300 512 c 0
 433 512 558 416 558 250 c 0
 558 120 488 48 384 2 c 1
 335 -21 320 -52 320 -78 c 0
 320 -102 340 -112 360 -112 c 0
 372 -112 385 -106 394 -100 c 1xb6
 428 -176 l 1x7a
 400 -198 352 -212 318 -212 c 0
 256 -212 206 -180 206 -118 c 0xb6
218 250 m 0x7a
 218 174 242 126 300 126 c 0
 358 126 382 174 382 250 c 0
 382 326 358 374 300 374 c 0
 242 374 218 326 218 250 c 0x7a
EndSplineSet
Ligature2: "'ccmp' Glyph Composition/Decomposition in Latin lookup 6 subtable" o uni0328
EndChar

StartChar: uni0219
Encoding: 537 537 360
Width: 600
Flags: MW
HStem: -234 66<196 208> -12 126<265 323.5 265 373.5> 386 126<295 345>
VStem: 77 171<345 368 345 399> 276 122<-145 -126> 375 171<134 157>
LayerCount: 2
Fore
SplineSet
46 64 m 1xe8
 122 170 l 1
 180 136 236 114 294 114 c 0
 353 114 375 124 375 144 c 0
 375 170 317 183 252 202 c 0
 170 226 77 268 77 350 c 0
 77 448 171 512 317 512 c 0
 411 512 485 475 538 442 c 1
 462 340 l 1
 416 366 369 386 321 386 c 0
 269 386 248 378 248 358 c 0
 248 332 303 321 367 304 c 0
 452 281 546 244 546 154 c 0xf4
 546 60 457 -12 290 -12 c 0
 204 -12 110 22 46 64 c 1xe8
268 -40 m 1xe8
 366 -48 398 -74 398 -126 c 0
 398 -198 310 -230 208 -234 c 1
 196 -168 l 1
 242 -164 276 -156 276 -134 c 0
 276 -118 266 -108 236 -100 c 1
 268 -40 l 1xe8
EndSplineSet
EndChar

StartChar: uni021A
Encoding: 538 538 186
Width: 600
Flags: MW
HStem: -234 66<190 202> 0 21G<214 214 214 386> 506 144<27 214 27 573 386 386 386 573>
VStem: 214 172<0 506 0 506> 270 122<-145 -126>
LayerCount: 2
Fore
SplineSet
214 0 m 1xf0
 214 506 l 1
 27 506 l 1
 27 650 l 1
 573 650 l 1
 573 506 l 1
 386 506 l 1
 386 0 l 1
 214 0 l 1xf0
262 -40 m 1xe8
 360 -48 392 -74 392 -126 c 0
 392 -198 304 -230 202 -234 c 1
 190 -168 l 1
 236 -164 270 -156 270 -134 c 0
 270 -118 260 -108 230 -100 c 1
 262 -40 l 1xe8
EndSplineSet
EndChar

StartChar: uni021B
Encoding: 539 539 366
Width: 600
Flags: MW
HStem: -234 66<254 266> -12 134<399 420> 366 134<42 170 42 170 334 532>
VStem: 162 172<212 215 215 366> 334 122<-145 -126>
LayerCount: 2
Fore
SplineSet
162 212 m 2xf0
 162 366 l 1
 42 366 l 1
 42 494 l 1
 170 500 l 1
 192 630 l 1
 334 630 l 1
 334 500 l 1
 532 500 l 1
 532 366 l 1
 334 366 l 1
 334 215 l 2
 334 144 367 122 431 122 c 0
 465 122 495 129 522 138 c 1
 552 14 l 1
 508 2 454 -12 386 -12 c 0
 222 -12 162 78 162 212 c 2xf0
326 -40 m 1xe8
 424 -48 456 -74 456 -126 c 0
 456 -198 368 -230 266 -234 c 1
 254 -168 l 1
 300 -164 334 -156 334 -134 c 0
 334 -118 324 -108 294 -100 c 1
 326 -40 l 1xe8
EndSplineSet
EndChar

StartChar: uni0237
Encoding: 567 567 411
Width: 600
GlyphClass: 2
Flags: MW
HStem: -188 134<170 213.5 170 289.5> 366 134<74 436 74 264>
VStem: 264 172<40 46 46 366 366 366>
AnchorPoint: "Anchor-0" 344 522 basechar 0
LayerCount: 2
Fore
SplineSet
74 366 m 1
 74 500 l 1
 436 500 l 1
 436 46 l 2
 436 -76 384 -188 195 -188 c 0
 130 -188 81 -174 37 -154 c 1
 86 -32 l 1
 128 -50 157 -54 183 -54 c 0
 244 -54 264 -28 264 40 c 2
 264 366 l 1
 74 366 l 1
EndSplineSet
EndChar

StartChar: uni0243
Encoding: 579 579 77
Width: 600
Flags: MW
HStem: 0 122<248 298 298 310> 174 77 174 80<2 76 2 76 248 340> 304 100<248 286 286 298 248 286> 528 122<248 248 248 286>
VStem: 76 172<122 122 122 174 122 174 254 304 404 528> 368 164<468 492> 398 164<186 247>
LayerCount: 2
Fore
SplineSet
248 122 m 1xbd
 298 122 l 2
 365 122 398 156 398 216 c 0
 398 278 366 304 298 304 c 2
 248 304 l 1
 248 254 l 1
 340 254 l 1
 340 174 l 1
 248 174 l 1
 248 122 l 1xbd
248 528 m 1
 248 404 l 1
 286 404 l 2
 341 404 368 428 368 472 c 0
 368 512 342 528 286 528 c 2xbe
 248 528 l 1
424 368 m 1xbd
 424 364 l 1
 516 345 562 294 562 202 c 0xbd
 562 61 450 0 310 0 c 2
 76 0 l 1
 76 174 l 1
 2 174 l 1
 2 248 l 1
 76 254 l 1
 76 650 l 1
 290 650 l 2
 426 650 532 614 532 494 c 0xde
 532 442 500 387 424 368 c 1xbd
EndSplineSet
EndChar

StartChar: uni0250
Encoding: 592 592 412
Width: 600
GlyphClass: 2
Flags: MW
HStem: -12 136<304 340> 176 102<236 236> 380 132<314 442> 480 20G<64 204 204 204>
VStem: 64 172<278 342 278 500 278 500> 388 164<327 355.5>
AnchorPoint: "Anchor-2" 322 -22 basechar 0
AnchorPoint: "Anchor-0" 312 522 basechar 0
LayerCount: 2
Fore
SplineSet
552 358 m 0xdc
 552 246 464 188 236 176 c 1
 242 140 276 124 332 124 c 0
 374 124 416 138 476 166 c 1
 536 54 l 1
 460 12 382 -12 298 -12 c 0
 156 -12 64 58 64 222 c 2
 64 500 l 1
 204 500 l 1xdc
 216 448 l 1
 220 448 l 1
 269 484 328 512 390 512 c 0xec
 494 512 552 440 552 358 c 0xdc
388 344 m 0xec
 388 367 370 380 334 380 c 0
 294 380 263 362 236 342 c 1
 236 278 l 1
 358 282 388 310 388 344 c 0xec
EndSplineSet
EndChar

StartChar: uni0252
Encoding: 594 594 414
Width: 600
GlyphClass: 2
Flags: MW
HStem: -12 21G<322 399> -12 140<322 323 290 399> 0 21G<64 198 64 64> 372 140<290 420> 480 20G<64 204 204 204>
VStem: 64 172<152 336 152 500 152 500> 382 176<204 293>
AnchorPoint: "Anchor-2" 296 -22 basechar 0
AnchorPoint: "Anchor-0" 318 522 basechar 0
LayerCount: 2
Fore
SplineSet
382 248 m 0x56
 382 338 353 372 304 372 c 0
 276 372 255 364 236 336 c 1
 236 152 l 1
 256 134 278 128 302 128 c 0
 344 128 382 160 382 248 c 0x56
558 260 m 0
 558 86 454 -12 344 -12 c 0
 300 -12 254 10 216 54 c 1
 212 54 l 1x8e
 198 0 l 1
 64 0 l 1
 64 500 l 1
 204 500 l 1x2e
 216 454 l 1
 220 454 l 1
 254 488 306 512 360 512 c 0
 480 512 558 412 558 260 c 0
EndSplineSet
EndChar
